G04 #@! TF.GenerationSoftware,KiCad,Pcbnew,5.0.1*
G04 #@! TF.CreationDate,2019-04-07T22:06:23+02:00*
G04 #@! TF.ProjectId,ppboard,7070626F6172642E6B696361645F7063,rev?*
G04 #@! TF.SameCoordinates,Original*
G04 #@! TF.FileFunction,Copper,L1,Top,Signal*
G04 #@! TF.FilePolarity,Positive*
%FSLAX46Y46*%
G04 Gerber Fmt 4.6, Leading zero omitted, Abs format (unit mm)*
G04 Created by KiCad (PCBNEW 5.0.1) date Sun Apr  7 22:06:23 2019*
%MOMM*%
%LPD*%
G01*
G04 APERTURE LIST*
G04 #@! TA.AperFunction,SMDPad,CuDef*
%ADD10R,4.290000X4.500000*%
G04 #@! TD*
G04 #@! TA.AperFunction,SMDPad,CuDef*
%ADD11R,0.800000X0.700000*%
G04 #@! TD*
G04 #@! TA.AperFunction,SMDPad,CuDef*
%ADD12R,0.900000X0.400000*%
G04 #@! TD*
G04 #@! TA.AperFunction,Conductor*
%ADD13C,0.100000*%
G04 #@! TD*
G04 #@! TA.AperFunction,SMDPad,CuDef*
%ADD14C,0.875000*%
G04 #@! TD*
G04 #@! TA.AperFunction,SMDPad,CuDef*
%ADD15R,0.800000X0.900000*%
G04 #@! TD*
G04 #@! TA.AperFunction,SMDPad,CuDef*
%ADD16R,2.500000X1.800000*%
G04 #@! TD*
G04 #@! TA.AperFunction,SMDPad,CuDef*
%ADD17C,1.600000*%
G04 #@! TD*
G04 #@! TA.AperFunction,SMDPad,CuDef*
%ADD18C,0.975000*%
G04 #@! TD*
G04 #@! TA.AperFunction,ComponentPad*
%ADD19C,4.800000*%
G04 #@! TD*
G04 #@! TA.AperFunction,ComponentPad*
%ADD20O,3.100000X2.100000*%
G04 #@! TD*
G04 #@! TA.AperFunction,ComponentPad*
%ADD21C,0.600000*%
G04 #@! TD*
G04 #@! TA.AperFunction,SMDPad,CuDef*
%ADD22R,1.800000X2.500000*%
G04 #@! TD*
G04 #@! TA.AperFunction,ComponentPad*
%ADD23C,1.200000*%
G04 #@! TD*
G04 #@! TA.AperFunction,ComponentPad*
%ADD24O,1.750000X1.200000*%
G04 #@! TD*
G04 #@! TA.AperFunction,SMDPad,CuDef*
%ADD25R,0.900000X0.800000*%
G04 #@! TD*
G04 #@! TA.AperFunction,ViaPad*
%ADD26C,0.800000*%
G04 #@! TD*
G04 #@! TA.AperFunction,Conductor*
%ADD27C,4.000000*%
G04 #@! TD*
G04 #@! TA.AperFunction,Conductor*
%ADD28C,0.250000*%
G04 #@! TD*
G04 #@! TA.AperFunction,Conductor*
%ADD29C,0.254000*%
G04 #@! TD*
G04 APERTURE END LIST*
D10*
G04 #@! TO.P,Q3,5*
G04 #@! TO.N,OUT+*
X120275000Y-60600000D03*
D11*
X122525000Y-58690000D03*
X122525000Y-59960000D03*
X122525000Y-61240000D03*
X122525000Y-62510000D03*
G04 #@! TO.P,Q3,4*
G04 #@! TO.N,Net-(Q3-Pad4)*
X117025000Y-62510000D03*
G04 #@! TO.P,Q3,3*
G04 #@! TO.N,BAT2+*
X117025000Y-61240000D03*
G04 #@! TO.P,Q3,2*
X117025000Y-59960000D03*
G04 #@! TO.P,Q3,1*
X117025000Y-58690000D03*
G04 #@! TD*
G04 #@! TO.P,Q4,1*
G04 #@! TO.N,CHRG+*
X158250000Y-40560000D03*
G04 #@! TO.P,Q4,2*
X158250000Y-39290000D03*
G04 #@! TO.P,Q4,3*
X158250000Y-38010000D03*
G04 #@! TO.P,Q4,4*
G04 #@! TO.N,Net-(Q4-Pad4)*
X158250000Y-36740000D03*
G04 #@! TO.P,Q4,5*
G04 #@! TO.N,BAT2+*
X152750000Y-36740000D03*
X152750000Y-38010000D03*
X152750000Y-39290000D03*
X152750000Y-40560000D03*
D10*
X155000000Y-38650000D03*
G04 #@! TD*
D11*
G04 #@! TO.P,Q1,1*
G04 #@! TO.N,BAT1+*
X116825000Y-66915000D03*
G04 #@! TO.P,Q1,2*
X116825000Y-68185000D03*
G04 #@! TO.P,Q1,3*
X116825000Y-69465000D03*
G04 #@! TO.P,Q1,4*
G04 #@! TO.N,Net-(Q1-Pad4)*
X116825000Y-70735000D03*
G04 #@! TO.P,Q1,5*
G04 #@! TO.N,OUT+*
X122325000Y-70735000D03*
X122325000Y-69465000D03*
X122325000Y-68185000D03*
X122325000Y-66915000D03*
D10*
X120075000Y-68825000D03*
G04 #@! TD*
G04 #@! TO.P,Q2,5*
G04 #@! TO.N,BAT1+*
X145925000Y-46450000D03*
D11*
X143675000Y-48360000D03*
X143675000Y-47090000D03*
X143675000Y-45810000D03*
X143675000Y-44540000D03*
G04 #@! TO.P,Q2,4*
G04 #@! TO.N,Net-(Q2-Pad4)*
X149175000Y-44540000D03*
G04 #@! TO.P,Q2,3*
G04 #@! TO.N,CHRG+*
X149175000Y-45810000D03*
G04 #@! TO.P,Q2,2*
X149175000Y-47090000D03*
G04 #@! TO.P,Q2,1*
X149175000Y-48360000D03*
G04 #@! TD*
D12*
G04 #@! TO.P,U1,1*
G04 #@! TO.N,Net-(C6-Pad1)*
X116140000Y-86824000D03*
G04 #@! TO.P,U1,3*
G04 #@! TO.N,Net-(U1-Pad3)*
X116140000Y-85524000D03*
G04 #@! TO.P,U1,5*
G04 #@! TO.N,Net-(Q1-Pad4)*
X113940000Y-86174000D03*
G04 #@! TO.P,U1,2*
G04 #@! TO.N,Net-(D13-Pad2)*
X116140000Y-86174000D03*
G04 #@! TO.P,U1,4*
G04 #@! TO.N,BAT1+*
X113940000Y-85524000D03*
G04 #@! TO.P,U1,6*
G04 #@! TO.N,OUT+*
X113940000Y-86824000D03*
G04 #@! TD*
D13*
G04 #@! TO.N,SW1*
G04 #@! TO.C,R6*
G36*
X118302691Y-93050053D02*
X118323926Y-93053203D01*
X118344750Y-93058419D01*
X118364962Y-93065651D01*
X118384368Y-93074830D01*
X118402781Y-93085866D01*
X118420024Y-93098654D01*
X118435930Y-93113070D01*
X118450346Y-93128976D01*
X118463134Y-93146219D01*
X118474170Y-93164632D01*
X118483349Y-93184038D01*
X118490581Y-93204250D01*
X118495797Y-93225074D01*
X118498947Y-93246309D01*
X118500000Y-93267750D01*
X118500000Y-93780250D01*
X118498947Y-93801691D01*
X118495797Y-93822926D01*
X118490581Y-93843750D01*
X118483349Y-93863962D01*
X118474170Y-93883368D01*
X118463134Y-93901781D01*
X118450346Y-93919024D01*
X118435930Y-93934930D01*
X118420024Y-93949346D01*
X118402781Y-93962134D01*
X118384368Y-93973170D01*
X118364962Y-93982349D01*
X118344750Y-93989581D01*
X118323926Y-93994797D01*
X118302691Y-93997947D01*
X118281250Y-93999000D01*
X117843750Y-93999000D01*
X117822309Y-93997947D01*
X117801074Y-93994797D01*
X117780250Y-93989581D01*
X117760038Y-93982349D01*
X117740632Y-93973170D01*
X117722219Y-93962134D01*
X117704976Y-93949346D01*
X117689070Y-93934930D01*
X117674654Y-93919024D01*
X117661866Y-93901781D01*
X117650830Y-93883368D01*
X117641651Y-93863962D01*
X117634419Y-93843750D01*
X117629203Y-93822926D01*
X117626053Y-93801691D01*
X117625000Y-93780250D01*
X117625000Y-93267750D01*
X117626053Y-93246309D01*
X117629203Y-93225074D01*
X117634419Y-93204250D01*
X117641651Y-93184038D01*
X117650830Y-93164632D01*
X117661866Y-93146219D01*
X117674654Y-93128976D01*
X117689070Y-93113070D01*
X117704976Y-93098654D01*
X117722219Y-93085866D01*
X117740632Y-93074830D01*
X117760038Y-93065651D01*
X117780250Y-93058419D01*
X117801074Y-93053203D01*
X117822309Y-93050053D01*
X117843750Y-93049000D01*
X118281250Y-93049000D01*
X118302691Y-93050053D01*
X118302691Y-93050053D01*
G37*
D14*
G04 #@! TD*
G04 #@! TO.P,R6,1*
G04 #@! TO.N,SW1*
X118062500Y-93524000D03*
D13*
G04 #@! TO.N,BAT1_D-*
G04 #@! TO.C,R6*
G36*
X119877691Y-93050053D02*
X119898926Y-93053203D01*
X119919750Y-93058419D01*
X119939962Y-93065651D01*
X119959368Y-93074830D01*
X119977781Y-93085866D01*
X119995024Y-93098654D01*
X120010930Y-93113070D01*
X120025346Y-93128976D01*
X120038134Y-93146219D01*
X120049170Y-93164632D01*
X120058349Y-93184038D01*
X120065581Y-93204250D01*
X120070797Y-93225074D01*
X120073947Y-93246309D01*
X120075000Y-93267750D01*
X120075000Y-93780250D01*
X120073947Y-93801691D01*
X120070797Y-93822926D01*
X120065581Y-93843750D01*
X120058349Y-93863962D01*
X120049170Y-93883368D01*
X120038134Y-93901781D01*
X120025346Y-93919024D01*
X120010930Y-93934930D01*
X119995024Y-93949346D01*
X119977781Y-93962134D01*
X119959368Y-93973170D01*
X119939962Y-93982349D01*
X119919750Y-93989581D01*
X119898926Y-93994797D01*
X119877691Y-93997947D01*
X119856250Y-93999000D01*
X119418750Y-93999000D01*
X119397309Y-93997947D01*
X119376074Y-93994797D01*
X119355250Y-93989581D01*
X119335038Y-93982349D01*
X119315632Y-93973170D01*
X119297219Y-93962134D01*
X119279976Y-93949346D01*
X119264070Y-93934930D01*
X119249654Y-93919024D01*
X119236866Y-93901781D01*
X119225830Y-93883368D01*
X119216651Y-93863962D01*
X119209419Y-93843750D01*
X119204203Y-93822926D01*
X119201053Y-93801691D01*
X119200000Y-93780250D01*
X119200000Y-93267750D01*
X119201053Y-93246309D01*
X119204203Y-93225074D01*
X119209419Y-93204250D01*
X119216651Y-93184038D01*
X119225830Y-93164632D01*
X119236866Y-93146219D01*
X119249654Y-93128976D01*
X119264070Y-93113070D01*
X119279976Y-93098654D01*
X119297219Y-93085866D01*
X119315632Y-93074830D01*
X119335038Y-93065651D01*
X119355250Y-93058419D01*
X119376074Y-93053203D01*
X119397309Y-93050053D01*
X119418750Y-93049000D01*
X119856250Y-93049000D01*
X119877691Y-93050053D01*
X119877691Y-93050053D01*
G37*
D14*
G04 #@! TD*
G04 #@! TO.P,R6,2*
G04 #@! TO.N,BAT1_D-*
X119637500Y-93524000D03*
D15*
G04 #@! TO.P,Q8,3*
G04 #@! TO.N,Net-(D16-Pad1)*
X177025000Y-69950000D03*
G04 #@! TO.P,Q8,2*
G04 #@! TO.N,BAT1_C-*
X176075000Y-67950000D03*
G04 #@! TO.P,Q8,1*
G04 #@! TO.N,SW4*
X177975000Y-67950000D03*
G04 #@! TD*
D16*
G04 #@! TO.P,D12,2*
G04 #@! TO.N,BAT1_C-*
X165100000Y-65925000D03*
G04 #@! TO.P,D12,1*
G04 #@! TO.N,BAT2+*
X169100000Y-65925000D03*
G04 #@! TD*
G04 #@! TO.P,D8,2*
G04 #@! TO.N,BAT1_C-*
X165300000Y-71150000D03*
G04 #@! TO.P,D8,1*
G04 #@! TO.N,CHRG+*
X169300000Y-71150000D03*
G04 #@! TD*
D13*
G04 #@! TO.N,Net-(C12-Pad1)*
G04 #@! TO.C,R4*
G36*
X174227691Y-62426053D02*
X174248926Y-62429203D01*
X174269750Y-62434419D01*
X174289962Y-62441651D01*
X174309368Y-62450830D01*
X174327781Y-62461866D01*
X174345024Y-62474654D01*
X174360930Y-62489070D01*
X174375346Y-62504976D01*
X174388134Y-62522219D01*
X174399170Y-62540632D01*
X174408349Y-62560038D01*
X174415581Y-62580250D01*
X174420797Y-62601074D01*
X174423947Y-62622309D01*
X174425000Y-62643750D01*
X174425000Y-63156250D01*
X174423947Y-63177691D01*
X174420797Y-63198926D01*
X174415581Y-63219750D01*
X174408349Y-63239962D01*
X174399170Y-63259368D01*
X174388134Y-63277781D01*
X174375346Y-63295024D01*
X174360930Y-63310930D01*
X174345024Y-63325346D01*
X174327781Y-63338134D01*
X174309368Y-63349170D01*
X174289962Y-63358349D01*
X174269750Y-63365581D01*
X174248926Y-63370797D01*
X174227691Y-63373947D01*
X174206250Y-63375000D01*
X173768750Y-63375000D01*
X173747309Y-63373947D01*
X173726074Y-63370797D01*
X173705250Y-63365581D01*
X173685038Y-63358349D01*
X173665632Y-63349170D01*
X173647219Y-63338134D01*
X173629976Y-63325346D01*
X173614070Y-63310930D01*
X173599654Y-63295024D01*
X173586866Y-63277781D01*
X173575830Y-63259368D01*
X173566651Y-63239962D01*
X173559419Y-63219750D01*
X173554203Y-63198926D01*
X173551053Y-63177691D01*
X173550000Y-63156250D01*
X173550000Y-62643750D01*
X173551053Y-62622309D01*
X173554203Y-62601074D01*
X173559419Y-62580250D01*
X173566651Y-62560038D01*
X173575830Y-62540632D01*
X173586866Y-62522219D01*
X173599654Y-62504976D01*
X173614070Y-62489070D01*
X173629976Y-62474654D01*
X173647219Y-62461866D01*
X173665632Y-62450830D01*
X173685038Y-62441651D01*
X173705250Y-62434419D01*
X173726074Y-62429203D01*
X173747309Y-62426053D01*
X173768750Y-62425000D01*
X174206250Y-62425000D01*
X174227691Y-62426053D01*
X174227691Y-62426053D01*
G37*
D14*
G04 #@! TD*
G04 #@! TO.P,R4,1*
G04 #@! TO.N,Net-(C12-Pad1)*
X173987500Y-62900000D03*
D13*
G04 #@! TO.N,BAT2+*
G04 #@! TO.C,R4*
G36*
X172652691Y-62426053D02*
X172673926Y-62429203D01*
X172694750Y-62434419D01*
X172714962Y-62441651D01*
X172734368Y-62450830D01*
X172752781Y-62461866D01*
X172770024Y-62474654D01*
X172785930Y-62489070D01*
X172800346Y-62504976D01*
X172813134Y-62522219D01*
X172824170Y-62540632D01*
X172833349Y-62560038D01*
X172840581Y-62580250D01*
X172845797Y-62601074D01*
X172848947Y-62622309D01*
X172850000Y-62643750D01*
X172850000Y-63156250D01*
X172848947Y-63177691D01*
X172845797Y-63198926D01*
X172840581Y-63219750D01*
X172833349Y-63239962D01*
X172824170Y-63259368D01*
X172813134Y-63277781D01*
X172800346Y-63295024D01*
X172785930Y-63310930D01*
X172770024Y-63325346D01*
X172752781Y-63338134D01*
X172734368Y-63349170D01*
X172714962Y-63358349D01*
X172694750Y-63365581D01*
X172673926Y-63370797D01*
X172652691Y-63373947D01*
X172631250Y-63375000D01*
X172193750Y-63375000D01*
X172172309Y-63373947D01*
X172151074Y-63370797D01*
X172130250Y-63365581D01*
X172110038Y-63358349D01*
X172090632Y-63349170D01*
X172072219Y-63338134D01*
X172054976Y-63325346D01*
X172039070Y-63310930D01*
X172024654Y-63295024D01*
X172011866Y-63277781D01*
X172000830Y-63259368D01*
X171991651Y-63239962D01*
X171984419Y-63219750D01*
X171979203Y-63198926D01*
X171976053Y-63177691D01*
X171975000Y-63156250D01*
X171975000Y-62643750D01*
X171976053Y-62622309D01*
X171979203Y-62601074D01*
X171984419Y-62580250D01*
X171991651Y-62560038D01*
X172000830Y-62540632D01*
X172011866Y-62522219D01*
X172024654Y-62504976D01*
X172039070Y-62489070D01*
X172054976Y-62474654D01*
X172072219Y-62461866D01*
X172090632Y-62450830D01*
X172110038Y-62441651D01*
X172130250Y-62434419D01*
X172151074Y-62429203D01*
X172172309Y-62426053D01*
X172193750Y-62425000D01*
X172631250Y-62425000D01*
X172652691Y-62426053D01*
X172652691Y-62426053D01*
G37*
D14*
G04 #@! TD*
G04 #@! TO.P,R4,2*
G04 #@! TO.N,BAT2+*
X172412500Y-62900000D03*
D13*
G04 #@! TO.N,BAT1_C-*
G04 #@! TO.C,C10*
G36*
X166474504Y-59826204D02*
X166498773Y-59829804D01*
X166522571Y-59835765D01*
X166545671Y-59844030D01*
X166567849Y-59854520D01*
X166588893Y-59867133D01*
X166608598Y-59881747D01*
X166626777Y-59898223D01*
X166643253Y-59916402D01*
X166657867Y-59936107D01*
X166670480Y-59957151D01*
X166680970Y-59979329D01*
X166689235Y-60002429D01*
X166695196Y-60026227D01*
X166698796Y-60050496D01*
X166700000Y-60075000D01*
X166700000Y-61175000D01*
X166698796Y-61199504D01*
X166695196Y-61223773D01*
X166689235Y-61247571D01*
X166680970Y-61270671D01*
X166670480Y-61292849D01*
X166657867Y-61313893D01*
X166643253Y-61333598D01*
X166626777Y-61351777D01*
X166608598Y-61368253D01*
X166588893Y-61382867D01*
X166567849Y-61395480D01*
X166545671Y-61405970D01*
X166522571Y-61414235D01*
X166498773Y-61420196D01*
X166474504Y-61423796D01*
X166450000Y-61425000D01*
X163450000Y-61425000D01*
X163425496Y-61423796D01*
X163401227Y-61420196D01*
X163377429Y-61414235D01*
X163354329Y-61405970D01*
X163332151Y-61395480D01*
X163311107Y-61382867D01*
X163291402Y-61368253D01*
X163273223Y-61351777D01*
X163256747Y-61333598D01*
X163242133Y-61313893D01*
X163229520Y-61292849D01*
X163219030Y-61270671D01*
X163210765Y-61247571D01*
X163204804Y-61223773D01*
X163201204Y-61199504D01*
X163200000Y-61175000D01*
X163200000Y-60075000D01*
X163201204Y-60050496D01*
X163204804Y-60026227D01*
X163210765Y-60002429D01*
X163219030Y-59979329D01*
X163229520Y-59957151D01*
X163242133Y-59936107D01*
X163256747Y-59916402D01*
X163273223Y-59898223D01*
X163291402Y-59881747D01*
X163311107Y-59867133D01*
X163332151Y-59854520D01*
X163354329Y-59844030D01*
X163377429Y-59835765D01*
X163401227Y-59829804D01*
X163425496Y-59826204D01*
X163450000Y-59825000D01*
X166450000Y-59825000D01*
X166474504Y-59826204D01*
X166474504Y-59826204D01*
G37*
D17*
G04 #@! TD*
G04 #@! TO.P,C10,2*
G04 #@! TO.N,BAT1_C-*
X164950000Y-60625000D03*
D13*
G04 #@! TO.N,BAT2+*
G04 #@! TO.C,C10*
G36*
X172074504Y-59826204D02*
X172098773Y-59829804D01*
X172122571Y-59835765D01*
X172145671Y-59844030D01*
X172167849Y-59854520D01*
X172188893Y-59867133D01*
X172208598Y-59881747D01*
X172226777Y-59898223D01*
X172243253Y-59916402D01*
X172257867Y-59936107D01*
X172270480Y-59957151D01*
X172280970Y-59979329D01*
X172289235Y-60002429D01*
X172295196Y-60026227D01*
X172298796Y-60050496D01*
X172300000Y-60075000D01*
X172300000Y-61175000D01*
X172298796Y-61199504D01*
X172295196Y-61223773D01*
X172289235Y-61247571D01*
X172280970Y-61270671D01*
X172270480Y-61292849D01*
X172257867Y-61313893D01*
X172243253Y-61333598D01*
X172226777Y-61351777D01*
X172208598Y-61368253D01*
X172188893Y-61382867D01*
X172167849Y-61395480D01*
X172145671Y-61405970D01*
X172122571Y-61414235D01*
X172098773Y-61420196D01*
X172074504Y-61423796D01*
X172050000Y-61425000D01*
X169050000Y-61425000D01*
X169025496Y-61423796D01*
X169001227Y-61420196D01*
X168977429Y-61414235D01*
X168954329Y-61405970D01*
X168932151Y-61395480D01*
X168911107Y-61382867D01*
X168891402Y-61368253D01*
X168873223Y-61351777D01*
X168856747Y-61333598D01*
X168842133Y-61313893D01*
X168829520Y-61292849D01*
X168819030Y-61270671D01*
X168810765Y-61247571D01*
X168804804Y-61223773D01*
X168801204Y-61199504D01*
X168800000Y-61175000D01*
X168800000Y-60075000D01*
X168801204Y-60050496D01*
X168804804Y-60026227D01*
X168810765Y-60002429D01*
X168819030Y-59979329D01*
X168829520Y-59957151D01*
X168842133Y-59936107D01*
X168856747Y-59916402D01*
X168873223Y-59898223D01*
X168891402Y-59881747D01*
X168911107Y-59867133D01*
X168932151Y-59854520D01*
X168954329Y-59844030D01*
X168977429Y-59835765D01*
X169001227Y-59829804D01*
X169025496Y-59826204D01*
X169050000Y-59825000D01*
X172050000Y-59825000D01*
X172074504Y-59826204D01*
X172074504Y-59826204D01*
G37*
D17*
G04 #@! TD*
G04 #@! TO.P,C10,1*
G04 #@! TO.N,BAT2+*
X170550000Y-60625000D03*
D13*
G04 #@! TO.N,Net-(C12-Pad1)*
G04 #@! TO.C,C12*
G36*
X170255142Y-67976174D02*
X170278803Y-67979684D01*
X170302007Y-67985496D01*
X170324529Y-67993554D01*
X170346153Y-68003782D01*
X170366670Y-68016079D01*
X170385883Y-68030329D01*
X170403607Y-68046393D01*
X170419671Y-68064117D01*
X170433921Y-68083330D01*
X170446218Y-68103847D01*
X170456446Y-68125471D01*
X170464504Y-68147993D01*
X170470316Y-68171197D01*
X170473826Y-68194858D01*
X170475000Y-68218750D01*
X170475000Y-69131250D01*
X170473826Y-69155142D01*
X170470316Y-69178803D01*
X170464504Y-69202007D01*
X170456446Y-69224529D01*
X170446218Y-69246153D01*
X170433921Y-69266670D01*
X170419671Y-69285883D01*
X170403607Y-69303607D01*
X170385883Y-69319671D01*
X170366670Y-69333921D01*
X170346153Y-69346218D01*
X170324529Y-69356446D01*
X170302007Y-69364504D01*
X170278803Y-69370316D01*
X170255142Y-69373826D01*
X170231250Y-69375000D01*
X169743750Y-69375000D01*
X169719858Y-69373826D01*
X169696197Y-69370316D01*
X169672993Y-69364504D01*
X169650471Y-69356446D01*
X169628847Y-69346218D01*
X169608330Y-69333921D01*
X169589117Y-69319671D01*
X169571393Y-69303607D01*
X169555329Y-69285883D01*
X169541079Y-69266670D01*
X169528782Y-69246153D01*
X169518554Y-69224529D01*
X169510496Y-69202007D01*
X169504684Y-69178803D01*
X169501174Y-69155142D01*
X169500000Y-69131250D01*
X169500000Y-68218750D01*
X169501174Y-68194858D01*
X169504684Y-68171197D01*
X169510496Y-68147993D01*
X169518554Y-68125471D01*
X169528782Y-68103847D01*
X169541079Y-68083330D01*
X169555329Y-68064117D01*
X169571393Y-68046393D01*
X169589117Y-68030329D01*
X169608330Y-68016079D01*
X169628847Y-68003782D01*
X169650471Y-67993554D01*
X169672993Y-67985496D01*
X169696197Y-67979684D01*
X169719858Y-67976174D01*
X169743750Y-67975000D01*
X170231250Y-67975000D01*
X170255142Y-67976174D01*
X170255142Y-67976174D01*
G37*
D18*
G04 #@! TD*
G04 #@! TO.P,C12,1*
G04 #@! TO.N,Net-(C12-Pad1)*
X169987500Y-68675000D03*
D13*
G04 #@! TO.N,BAT1_C-*
G04 #@! TO.C,C12*
G36*
X168380142Y-67976174D02*
X168403803Y-67979684D01*
X168427007Y-67985496D01*
X168449529Y-67993554D01*
X168471153Y-68003782D01*
X168491670Y-68016079D01*
X168510883Y-68030329D01*
X168528607Y-68046393D01*
X168544671Y-68064117D01*
X168558921Y-68083330D01*
X168571218Y-68103847D01*
X168581446Y-68125471D01*
X168589504Y-68147993D01*
X168595316Y-68171197D01*
X168598826Y-68194858D01*
X168600000Y-68218750D01*
X168600000Y-69131250D01*
X168598826Y-69155142D01*
X168595316Y-69178803D01*
X168589504Y-69202007D01*
X168581446Y-69224529D01*
X168571218Y-69246153D01*
X168558921Y-69266670D01*
X168544671Y-69285883D01*
X168528607Y-69303607D01*
X168510883Y-69319671D01*
X168491670Y-69333921D01*
X168471153Y-69346218D01*
X168449529Y-69356446D01*
X168427007Y-69364504D01*
X168403803Y-69370316D01*
X168380142Y-69373826D01*
X168356250Y-69375000D01*
X167868750Y-69375000D01*
X167844858Y-69373826D01*
X167821197Y-69370316D01*
X167797993Y-69364504D01*
X167775471Y-69356446D01*
X167753847Y-69346218D01*
X167733330Y-69333921D01*
X167714117Y-69319671D01*
X167696393Y-69303607D01*
X167680329Y-69285883D01*
X167666079Y-69266670D01*
X167653782Y-69246153D01*
X167643554Y-69224529D01*
X167635496Y-69202007D01*
X167629684Y-69178803D01*
X167626174Y-69155142D01*
X167625000Y-69131250D01*
X167625000Y-68218750D01*
X167626174Y-68194858D01*
X167629684Y-68171197D01*
X167635496Y-68147993D01*
X167643554Y-68125471D01*
X167653782Y-68103847D01*
X167666079Y-68083330D01*
X167680329Y-68064117D01*
X167696393Y-68046393D01*
X167714117Y-68030329D01*
X167733330Y-68016079D01*
X167753847Y-68003782D01*
X167775471Y-67993554D01*
X167797993Y-67985496D01*
X167821197Y-67979684D01*
X167844858Y-67976174D01*
X167868750Y-67975000D01*
X168356250Y-67975000D01*
X168380142Y-67976174D01*
X168380142Y-67976174D01*
G37*
D18*
G04 #@! TD*
G04 #@! TO.P,C12,2*
G04 #@! TO.N,BAT1_C-*
X168112500Y-68675000D03*
D12*
G04 #@! TO.P,U4,6*
G04 #@! TO.N,BAT2+*
X172100000Y-66375000D03*
G04 #@! TO.P,U4,4*
G04 #@! TO.N,CHRG+*
X172100000Y-65075000D03*
G04 #@! TO.P,U4,2*
G04 #@! TO.N,Net-(D11-Pad2)*
X174300000Y-65725000D03*
G04 #@! TO.P,U4,5*
G04 #@! TO.N,Net-(Q4-Pad4)*
X172100000Y-65725000D03*
G04 #@! TO.P,U4,3*
G04 #@! TO.N,Net-(U4-Pad3)*
X174300000Y-65075000D03*
G04 #@! TO.P,U4,1*
G04 #@! TO.N,Net-(C12-Pad1)*
X174300000Y-66375000D03*
G04 #@! TD*
D13*
G04 #@! TO.N,CHRG+*
G04 #@! TO.C,C1*
G36*
X166480142Y-67701174D02*
X166503803Y-67704684D01*
X166527007Y-67710496D01*
X166549529Y-67718554D01*
X166571153Y-67728782D01*
X166591670Y-67741079D01*
X166610883Y-67755329D01*
X166628607Y-67771393D01*
X166644671Y-67789117D01*
X166658921Y-67808330D01*
X166671218Y-67828847D01*
X166681446Y-67850471D01*
X166689504Y-67872993D01*
X166695316Y-67896197D01*
X166698826Y-67919858D01*
X166700000Y-67943750D01*
X166700000Y-68856250D01*
X166698826Y-68880142D01*
X166695316Y-68903803D01*
X166689504Y-68927007D01*
X166681446Y-68949529D01*
X166671218Y-68971153D01*
X166658921Y-68991670D01*
X166644671Y-69010883D01*
X166628607Y-69028607D01*
X166610883Y-69044671D01*
X166591670Y-69058921D01*
X166571153Y-69071218D01*
X166549529Y-69081446D01*
X166527007Y-69089504D01*
X166503803Y-69095316D01*
X166480142Y-69098826D01*
X166456250Y-69100000D01*
X165968750Y-69100000D01*
X165944858Y-69098826D01*
X165921197Y-69095316D01*
X165897993Y-69089504D01*
X165875471Y-69081446D01*
X165853847Y-69071218D01*
X165833330Y-69058921D01*
X165814117Y-69044671D01*
X165796393Y-69028607D01*
X165780329Y-69010883D01*
X165766079Y-68991670D01*
X165753782Y-68971153D01*
X165743554Y-68949529D01*
X165735496Y-68927007D01*
X165729684Y-68903803D01*
X165726174Y-68880142D01*
X165725000Y-68856250D01*
X165725000Y-67943750D01*
X165726174Y-67919858D01*
X165729684Y-67896197D01*
X165735496Y-67872993D01*
X165743554Y-67850471D01*
X165753782Y-67828847D01*
X165766079Y-67808330D01*
X165780329Y-67789117D01*
X165796393Y-67771393D01*
X165814117Y-67755329D01*
X165833330Y-67741079D01*
X165853847Y-67728782D01*
X165875471Y-67718554D01*
X165897993Y-67710496D01*
X165921197Y-67704684D01*
X165944858Y-67701174D01*
X165968750Y-67700000D01*
X166456250Y-67700000D01*
X166480142Y-67701174D01*
X166480142Y-67701174D01*
G37*
D18*
G04 #@! TD*
G04 #@! TO.P,C1,2*
G04 #@! TO.N,CHRG+*
X166212500Y-68400000D03*
D13*
G04 #@! TO.N,BAT1_C-*
G04 #@! TO.C,C1*
G36*
X164605142Y-67701174D02*
X164628803Y-67704684D01*
X164652007Y-67710496D01*
X164674529Y-67718554D01*
X164696153Y-67728782D01*
X164716670Y-67741079D01*
X164735883Y-67755329D01*
X164753607Y-67771393D01*
X164769671Y-67789117D01*
X164783921Y-67808330D01*
X164796218Y-67828847D01*
X164806446Y-67850471D01*
X164814504Y-67872993D01*
X164820316Y-67896197D01*
X164823826Y-67919858D01*
X164825000Y-67943750D01*
X164825000Y-68856250D01*
X164823826Y-68880142D01*
X164820316Y-68903803D01*
X164814504Y-68927007D01*
X164806446Y-68949529D01*
X164796218Y-68971153D01*
X164783921Y-68991670D01*
X164769671Y-69010883D01*
X164753607Y-69028607D01*
X164735883Y-69044671D01*
X164716670Y-69058921D01*
X164696153Y-69071218D01*
X164674529Y-69081446D01*
X164652007Y-69089504D01*
X164628803Y-69095316D01*
X164605142Y-69098826D01*
X164581250Y-69100000D01*
X164093750Y-69100000D01*
X164069858Y-69098826D01*
X164046197Y-69095316D01*
X164022993Y-69089504D01*
X164000471Y-69081446D01*
X163978847Y-69071218D01*
X163958330Y-69058921D01*
X163939117Y-69044671D01*
X163921393Y-69028607D01*
X163905329Y-69010883D01*
X163891079Y-68991670D01*
X163878782Y-68971153D01*
X163868554Y-68949529D01*
X163860496Y-68927007D01*
X163854684Y-68903803D01*
X163851174Y-68880142D01*
X163850000Y-68856250D01*
X163850000Y-67943750D01*
X163851174Y-67919858D01*
X163854684Y-67896197D01*
X163860496Y-67872993D01*
X163868554Y-67850471D01*
X163878782Y-67828847D01*
X163891079Y-67808330D01*
X163905329Y-67789117D01*
X163921393Y-67771393D01*
X163939117Y-67755329D01*
X163958330Y-67741079D01*
X163978847Y-67728782D01*
X164000471Y-67718554D01*
X164022993Y-67710496D01*
X164046197Y-67704684D01*
X164069858Y-67701174D01*
X164093750Y-67700000D01*
X164581250Y-67700000D01*
X164605142Y-67701174D01*
X164605142Y-67701174D01*
G37*
D18*
G04 #@! TD*
G04 #@! TO.P,C1,1*
G04 #@! TO.N,BAT1_C-*
X164337500Y-68400000D03*
D13*
G04 #@! TO.N,BAT1+*
G04 #@! TO.C,R1*
G36*
X156227691Y-60226053D02*
X156248926Y-60229203D01*
X156269750Y-60234419D01*
X156289962Y-60241651D01*
X156309368Y-60250830D01*
X156327781Y-60261866D01*
X156345024Y-60274654D01*
X156360930Y-60289070D01*
X156375346Y-60304976D01*
X156388134Y-60322219D01*
X156399170Y-60340632D01*
X156408349Y-60360038D01*
X156415581Y-60380250D01*
X156420797Y-60401074D01*
X156423947Y-60422309D01*
X156425000Y-60443750D01*
X156425000Y-60956250D01*
X156423947Y-60977691D01*
X156420797Y-60998926D01*
X156415581Y-61019750D01*
X156408349Y-61039962D01*
X156399170Y-61059368D01*
X156388134Y-61077781D01*
X156375346Y-61095024D01*
X156360930Y-61110930D01*
X156345024Y-61125346D01*
X156327781Y-61138134D01*
X156309368Y-61149170D01*
X156289962Y-61158349D01*
X156269750Y-61165581D01*
X156248926Y-61170797D01*
X156227691Y-61173947D01*
X156206250Y-61175000D01*
X155768750Y-61175000D01*
X155747309Y-61173947D01*
X155726074Y-61170797D01*
X155705250Y-61165581D01*
X155685038Y-61158349D01*
X155665632Y-61149170D01*
X155647219Y-61138134D01*
X155629976Y-61125346D01*
X155614070Y-61110930D01*
X155599654Y-61095024D01*
X155586866Y-61077781D01*
X155575830Y-61059368D01*
X155566651Y-61039962D01*
X155559419Y-61019750D01*
X155554203Y-60998926D01*
X155551053Y-60977691D01*
X155550000Y-60956250D01*
X155550000Y-60443750D01*
X155551053Y-60422309D01*
X155554203Y-60401074D01*
X155559419Y-60380250D01*
X155566651Y-60360038D01*
X155575830Y-60340632D01*
X155586866Y-60322219D01*
X155599654Y-60304976D01*
X155614070Y-60289070D01*
X155629976Y-60274654D01*
X155647219Y-60261866D01*
X155665632Y-60250830D01*
X155685038Y-60241651D01*
X155705250Y-60234419D01*
X155726074Y-60229203D01*
X155747309Y-60226053D01*
X155768750Y-60225000D01*
X156206250Y-60225000D01*
X156227691Y-60226053D01*
X156227691Y-60226053D01*
G37*
D14*
G04 #@! TD*
G04 #@! TO.P,R1,2*
G04 #@! TO.N,BAT1+*
X155987500Y-60700000D03*
D13*
G04 #@! TO.N,Net-(C5-Pad1)*
G04 #@! TO.C,R1*
G36*
X157802691Y-60226053D02*
X157823926Y-60229203D01*
X157844750Y-60234419D01*
X157864962Y-60241651D01*
X157884368Y-60250830D01*
X157902781Y-60261866D01*
X157920024Y-60274654D01*
X157935930Y-60289070D01*
X157950346Y-60304976D01*
X157963134Y-60322219D01*
X157974170Y-60340632D01*
X157983349Y-60360038D01*
X157990581Y-60380250D01*
X157995797Y-60401074D01*
X157998947Y-60422309D01*
X158000000Y-60443750D01*
X158000000Y-60956250D01*
X157998947Y-60977691D01*
X157995797Y-60998926D01*
X157990581Y-61019750D01*
X157983349Y-61039962D01*
X157974170Y-61059368D01*
X157963134Y-61077781D01*
X157950346Y-61095024D01*
X157935930Y-61110930D01*
X157920024Y-61125346D01*
X157902781Y-61138134D01*
X157884368Y-61149170D01*
X157864962Y-61158349D01*
X157844750Y-61165581D01*
X157823926Y-61170797D01*
X157802691Y-61173947D01*
X157781250Y-61175000D01*
X157343750Y-61175000D01*
X157322309Y-61173947D01*
X157301074Y-61170797D01*
X157280250Y-61165581D01*
X157260038Y-61158349D01*
X157240632Y-61149170D01*
X157222219Y-61138134D01*
X157204976Y-61125346D01*
X157189070Y-61110930D01*
X157174654Y-61095024D01*
X157161866Y-61077781D01*
X157150830Y-61059368D01*
X157141651Y-61039962D01*
X157134419Y-61019750D01*
X157129203Y-60998926D01*
X157126053Y-60977691D01*
X157125000Y-60956250D01*
X157125000Y-60443750D01*
X157126053Y-60422309D01*
X157129203Y-60401074D01*
X157134419Y-60380250D01*
X157141651Y-60360038D01*
X157150830Y-60340632D01*
X157161866Y-60322219D01*
X157174654Y-60304976D01*
X157189070Y-60289070D01*
X157204976Y-60274654D01*
X157222219Y-60261866D01*
X157240632Y-60250830D01*
X157260038Y-60241651D01*
X157280250Y-60234419D01*
X157301074Y-60229203D01*
X157322309Y-60226053D01*
X157343750Y-60225000D01*
X157781250Y-60225000D01*
X157802691Y-60226053D01*
X157802691Y-60226053D01*
G37*
D14*
G04 #@! TD*
G04 #@! TO.P,R1,1*
G04 #@! TO.N,Net-(C5-Pad1)*
X157562500Y-60700000D03*
D13*
G04 #@! TO.N,BAT1_C-*
G04 #@! TO.C,C3*
G36*
X149799504Y-57676204D02*
X149823773Y-57679804D01*
X149847571Y-57685765D01*
X149870671Y-57694030D01*
X149892849Y-57704520D01*
X149913893Y-57717133D01*
X149933598Y-57731747D01*
X149951777Y-57748223D01*
X149968253Y-57766402D01*
X149982867Y-57786107D01*
X149995480Y-57807151D01*
X150005970Y-57829329D01*
X150014235Y-57852429D01*
X150020196Y-57876227D01*
X150023796Y-57900496D01*
X150025000Y-57925000D01*
X150025000Y-59025000D01*
X150023796Y-59049504D01*
X150020196Y-59073773D01*
X150014235Y-59097571D01*
X150005970Y-59120671D01*
X149995480Y-59142849D01*
X149982867Y-59163893D01*
X149968253Y-59183598D01*
X149951777Y-59201777D01*
X149933598Y-59218253D01*
X149913893Y-59232867D01*
X149892849Y-59245480D01*
X149870671Y-59255970D01*
X149847571Y-59264235D01*
X149823773Y-59270196D01*
X149799504Y-59273796D01*
X149775000Y-59275000D01*
X146775000Y-59275000D01*
X146750496Y-59273796D01*
X146726227Y-59270196D01*
X146702429Y-59264235D01*
X146679329Y-59255970D01*
X146657151Y-59245480D01*
X146636107Y-59232867D01*
X146616402Y-59218253D01*
X146598223Y-59201777D01*
X146581747Y-59183598D01*
X146567133Y-59163893D01*
X146554520Y-59142849D01*
X146544030Y-59120671D01*
X146535765Y-59097571D01*
X146529804Y-59073773D01*
X146526204Y-59049504D01*
X146525000Y-59025000D01*
X146525000Y-57925000D01*
X146526204Y-57900496D01*
X146529804Y-57876227D01*
X146535765Y-57852429D01*
X146544030Y-57829329D01*
X146554520Y-57807151D01*
X146567133Y-57786107D01*
X146581747Y-57766402D01*
X146598223Y-57748223D01*
X146616402Y-57731747D01*
X146636107Y-57717133D01*
X146657151Y-57704520D01*
X146679329Y-57694030D01*
X146702429Y-57685765D01*
X146726227Y-57679804D01*
X146750496Y-57676204D01*
X146775000Y-57675000D01*
X149775000Y-57675000D01*
X149799504Y-57676204D01*
X149799504Y-57676204D01*
G37*
D17*
G04 #@! TD*
G04 #@! TO.P,C3,2*
G04 #@! TO.N,BAT1_C-*
X148275000Y-58475000D03*
D13*
G04 #@! TO.N,BAT1+*
G04 #@! TO.C,C3*
G36*
X155399504Y-57676204D02*
X155423773Y-57679804D01*
X155447571Y-57685765D01*
X155470671Y-57694030D01*
X155492849Y-57704520D01*
X155513893Y-57717133D01*
X155533598Y-57731747D01*
X155551777Y-57748223D01*
X155568253Y-57766402D01*
X155582867Y-57786107D01*
X155595480Y-57807151D01*
X155605970Y-57829329D01*
X155614235Y-57852429D01*
X155620196Y-57876227D01*
X155623796Y-57900496D01*
X155625000Y-57925000D01*
X155625000Y-59025000D01*
X155623796Y-59049504D01*
X155620196Y-59073773D01*
X155614235Y-59097571D01*
X155605970Y-59120671D01*
X155595480Y-59142849D01*
X155582867Y-59163893D01*
X155568253Y-59183598D01*
X155551777Y-59201777D01*
X155533598Y-59218253D01*
X155513893Y-59232867D01*
X155492849Y-59245480D01*
X155470671Y-59255970D01*
X155447571Y-59264235D01*
X155423773Y-59270196D01*
X155399504Y-59273796D01*
X155375000Y-59275000D01*
X152375000Y-59275000D01*
X152350496Y-59273796D01*
X152326227Y-59270196D01*
X152302429Y-59264235D01*
X152279329Y-59255970D01*
X152257151Y-59245480D01*
X152236107Y-59232867D01*
X152216402Y-59218253D01*
X152198223Y-59201777D01*
X152181747Y-59183598D01*
X152167133Y-59163893D01*
X152154520Y-59142849D01*
X152144030Y-59120671D01*
X152135765Y-59097571D01*
X152129804Y-59073773D01*
X152126204Y-59049504D01*
X152125000Y-59025000D01*
X152125000Y-57925000D01*
X152126204Y-57900496D01*
X152129804Y-57876227D01*
X152135765Y-57852429D01*
X152144030Y-57829329D01*
X152154520Y-57807151D01*
X152167133Y-57786107D01*
X152181747Y-57766402D01*
X152198223Y-57748223D01*
X152216402Y-57731747D01*
X152236107Y-57717133D01*
X152257151Y-57704520D01*
X152279329Y-57694030D01*
X152302429Y-57685765D01*
X152326227Y-57679804D01*
X152350496Y-57676204D01*
X152375000Y-57675000D01*
X155375000Y-57675000D01*
X155399504Y-57676204D01*
X155399504Y-57676204D01*
G37*
D17*
G04 #@! TD*
G04 #@! TO.P,C3,1*
G04 #@! TO.N,BAT1+*
X153875000Y-58475000D03*
D13*
G04 #@! TO.N,BAT1_D-*
G04 #@! TO.C,C9*
G36*
X108774504Y-38051204D02*
X108798773Y-38054804D01*
X108822571Y-38060765D01*
X108845671Y-38069030D01*
X108867849Y-38079520D01*
X108888893Y-38092133D01*
X108908598Y-38106747D01*
X108926777Y-38123223D01*
X108943253Y-38141402D01*
X108957867Y-38161107D01*
X108970480Y-38182151D01*
X108980970Y-38204329D01*
X108989235Y-38227429D01*
X108995196Y-38251227D01*
X108998796Y-38275496D01*
X109000000Y-38300000D01*
X109000000Y-39400000D01*
X108998796Y-39424504D01*
X108995196Y-39448773D01*
X108989235Y-39472571D01*
X108980970Y-39495671D01*
X108970480Y-39517849D01*
X108957867Y-39538893D01*
X108943253Y-39558598D01*
X108926777Y-39576777D01*
X108908598Y-39593253D01*
X108888893Y-39607867D01*
X108867849Y-39620480D01*
X108845671Y-39630970D01*
X108822571Y-39639235D01*
X108798773Y-39645196D01*
X108774504Y-39648796D01*
X108750000Y-39650000D01*
X105750000Y-39650000D01*
X105725496Y-39648796D01*
X105701227Y-39645196D01*
X105677429Y-39639235D01*
X105654329Y-39630970D01*
X105632151Y-39620480D01*
X105611107Y-39607867D01*
X105591402Y-39593253D01*
X105573223Y-39576777D01*
X105556747Y-39558598D01*
X105542133Y-39538893D01*
X105529520Y-39517849D01*
X105519030Y-39495671D01*
X105510765Y-39472571D01*
X105504804Y-39448773D01*
X105501204Y-39424504D01*
X105500000Y-39400000D01*
X105500000Y-38300000D01*
X105501204Y-38275496D01*
X105504804Y-38251227D01*
X105510765Y-38227429D01*
X105519030Y-38204329D01*
X105529520Y-38182151D01*
X105542133Y-38161107D01*
X105556747Y-38141402D01*
X105573223Y-38123223D01*
X105591402Y-38106747D01*
X105611107Y-38092133D01*
X105632151Y-38079520D01*
X105654329Y-38069030D01*
X105677429Y-38060765D01*
X105701227Y-38054804D01*
X105725496Y-38051204D01*
X105750000Y-38050000D01*
X108750000Y-38050000D01*
X108774504Y-38051204D01*
X108774504Y-38051204D01*
G37*
D17*
G04 #@! TD*
G04 #@! TO.P,C9,2*
G04 #@! TO.N,BAT1_D-*
X107250000Y-38850000D03*
D13*
G04 #@! TO.N,OUT+*
G04 #@! TO.C,C9*
G36*
X114374504Y-38051204D02*
X114398773Y-38054804D01*
X114422571Y-38060765D01*
X114445671Y-38069030D01*
X114467849Y-38079520D01*
X114488893Y-38092133D01*
X114508598Y-38106747D01*
X114526777Y-38123223D01*
X114543253Y-38141402D01*
X114557867Y-38161107D01*
X114570480Y-38182151D01*
X114580970Y-38204329D01*
X114589235Y-38227429D01*
X114595196Y-38251227D01*
X114598796Y-38275496D01*
X114600000Y-38300000D01*
X114600000Y-39400000D01*
X114598796Y-39424504D01*
X114595196Y-39448773D01*
X114589235Y-39472571D01*
X114580970Y-39495671D01*
X114570480Y-39517849D01*
X114557867Y-39538893D01*
X114543253Y-39558598D01*
X114526777Y-39576777D01*
X114508598Y-39593253D01*
X114488893Y-39607867D01*
X114467849Y-39620480D01*
X114445671Y-39630970D01*
X114422571Y-39639235D01*
X114398773Y-39645196D01*
X114374504Y-39648796D01*
X114350000Y-39650000D01*
X111350000Y-39650000D01*
X111325496Y-39648796D01*
X111301227Y-39645196D01*
X111277429Y-39639235D01*
X111254329Y-39630970D01*
X111232151Y-39620480D01*
X111211107Y-39607867D01*
X111191402Y-39593253D01*
X111173223Y-39576777D01*
X111156747Y-39558598D01*
X111142133Y-39538893D01*
X111129520Y-39517849D01*
X111119030Y-39495671D01*
X111110765Y-39472571D01*
X111104804Y-39448773D01*
X111101204Y-39424504D01*
X111100000Y-39400000D01*
X111100000Y-38300000D01*
X111101204Y-38275496D01*
X111104804Y-38251227D01*
X111110765Y-38227429D01*
X111119030Y-38204329D01*
X111129520Y-38182151D01*
X111142133Y-38161107D01*
X111156747Y-38141402D01*
X111173223Y-38123223D01*
X111191402Y-38106747D01*
X111211107Y-38092133D01*
X111232151Y-38079520D01*
X111254329Y-38069030D01*
X111277429Y-38060765D01*
X111301227Y-38054804D01*
X111325496Y-38051204D01*
X111350000Y-38050000D01*
X114350000Y-38050000D01*
X114374504Y-38051204D01*
X114374504Y-38051204D01*
G37*
D17*
G04 #@! TD*
G04 #@! TO.P,C9,1*
G04 #@! TO.N,OUT+*
X112850000Y-38850000D03*
D19*
G04 #@! TO.P,J2,2*
G04 #@! TO.N,BAT1+*
X102000000Y-68600000D03*
G04 #@! TO.P,J2,1*
G04 #@! TO.N,BAT2+*
X102000000Y-61400000D03*
D20*
G04 #@! TO.P,J2,*
G04 #@! TO.N,*
X96000000Y-58250000D03*
X96000000Y-71750000D03*
D21*
G04 #@! TO.P,J2,2*
G04 #@! TO.N,BAT1+*
X103900000Y-68600000D03*
X103344000Y-67257000D03*
X102000000Y-66700000D03*
X103344000Y-69944000D03*
X102000000Y-70500000D03*
X100656000Y-69944000D03*
X100100000Y-68600000D03*
X100656000Y-67257000D03*
G04 #@! TO.P,J2,1*
G04 #@! TO.N,BAT2+*
X102000000Y-63300000D03*
X103344000Y-62743000D03*
X103900000Y-61400000D03*
X103344000Y-60056000D03*
X102000000Y-59500000D03*
X100656000Y-60056000D03*
X100100000Y-61400000D03*
X100656000Y-62743000D03*
G04 #@! TD*
G04 #@! TO.P,J3,1*
G04 #@! TO.N,BAT1_D-*
X100656000Y-81493000D03*
X100100000Y-80150000D03*
X100656000Y-78806000D03*
X102000000Y-78250000D03*
X103344000Y-78806000D03*
X103900000Y-80150000D03*
X103344000Y-81493000D03*
X102000000Y-82050000D03*
G04 #@! TO.P,J3,2*
X100656000Y-86007000D03*
X100100000Y-87350000D03*
X100656000Y-88694000D03*
X102000000Y-89250000D03*
X103344000Y-88694000D03*
X102000000Y-85450000D03*
X103344000Y-86007000D03*
X103900000Y-87350000D03*
D20*
G04 #@! TO.P,J3,*
G04 #@! TO.N,*
X96000000Y-90500000D03*
X96000000Y-77000000D03*
D19*
G04 #@! TO.P,J3,1*
G04 #@! TO.N,BAT1_D-*
X102000000Y-80150000D03*
G04 #@! TO.P,J3,2*
X102000000Y-87350000D03*
G04 #@! TD*
G04 #@! TO.P,J1,2*
G04 #@! TO.N,BAT1_C-*
X102000000Y-49850000D03*
G04 #@! TO.P,J1,1*
X102000000Y-42650000D03*
D20*
G04 #@! TO.P,J1,*
G04 #@! TO.N,*
X96000000Y-39500000D03*
X96000000Y-53000000D03*
D21*
G04 #@! TO.P,J1,2*
G04 #@! TO.N,BAT1_C-*
X103900000Y-49850000D03*
X103344000Y-48507000D03*
X102000000Y-47950000D03*
X103344000Y-51194000D03*
X102000000Y-51750000D03*
X100656000Y-51194000D03*
X100100000Y-49850000D03*
X100656000Y-48507000D03*
G04 #@! TO.P,J1,1*
X102000000Y-44550000D03*
X103344000Y-43993000D03*
X103900000Y-42650000D03*
X103344000Y-41306000D03*
X102000000Y-40750000D03*
X100656000Y-41306000D03*
X100100000Y-42650000D03*
X100656000Y-43993000D03*
G04 #@! TD*
D19*
G04 #@! TO.P,J4,2*
G04 #@! TO.N,BAT1_C-*
X182500000Y-42650000D03*
G04 #@! TO.P,J4,1*
G04 #@! TO.N,CHRG+*
X182500000Y-49850000D03*
D20*
G04 #@! TO.P,J4,*
G04 #@! TO.N,*
X188500000Y-53000000D03*
X188500000Y-39500000D03*
D21*
G04 #@! TO.P,J4,2*
G04 #@! TO.N,BAT1_C-*
X180600000Y-42650000D03*
X181156000Y-43993000D03*
X182500000Y-44550000D03*
X181156000Y-41306000D03*
X182500000Y-40750000D03*
X183844000Y-41306000D03*
X184400000Y-42650000D03*
X183844000Y-43993000D03*
G04 #@! TO.P,J4,1*
G04 #@! TO.N,CHRG+*
X182500000Y-47950000D03*
X181156000Y-48507000D03*
X180600000Y-49850000D03*
X181156000Y-51194000D03*
X182500000Y-51750000D03*
X183844000Y-51194000D03*
X184400000Y-49850000D03*
X183844000Y-48507000D03*
G04 #@! TD*
G04 #@! TO.P,J5,1*
G04 #@! TO.N,OUT+*
X183944000Y-86007000D03*
X184500000Y-87350000D03*
X183944000Y-88694000D03*
X182600000Y-89250000D03*
X181256000Y-88694000D03*
X180700000Y-87350000D03*
X181256000Y-86007000D03*
X182600000Y-85450000D03*
G04 #@! TO.P,J5,2*
G04 #@! TO.N,BAT1_D-*
X183944000Y-81493000D03*
X184500000Y-80150000D03*
X183944000Y-78806000D03*
X182600000Y-78250000D03*
X181256000Y-78806000D03*
X182600000Y-82050000D03*
X181256000Y-81493000D03*
X180700000Y-80150000D03*
D20*
G04 #@! TO.P,J5,*
G04 #@! TO.N,*
X188600000Y-77000000D03*
X188600000Y-90500000D03*
D19*
G04 #@! TO.P,J5,1*
G04 #@! TO.N,OUT+*
X182600000Y-87350000D03*
G04 #@! TO.P,J5,2*
G04 #@! TO.N,BAT1_D-*
X182600000Y-80150000D03*
G04 #@! TD*
D13*
G04 #@! TO.N,BAT1_D-*
G04 #@! TO.C,C4*
G36*
X109226504Y-79075204D02*
X109250773Y-79078804D01*
X109274571Y-79084765D01*
X109297671Y-79093030D01*
X109319849Y-79103520D01*
X109340893Y-79116133D01*
X109360598Y-79130747D01*
X109378777Y-79147223D01*
X109395253Y-79165402D01*
X109409867Y-79185107D01*
X109422480Y-79206151D01*
X109432970Y-79228329D01*
X109441235Y-79251429D01*
X109447196Y-79275227D01*
X109450796Y-79299496D01*
X109452000Y-79324000D01*
X109452000Y-80424000D01*
X109450796Y-80448504D01*
X109447196Y-80472773D01*
X109441235Y-80496571D01*
X109432970Y-80519671D01*
X109422480Y-80541849D01*
X109409867Y-80562893D01*
X109395253Y-80582598D01*
X109378777Y-80600777D01*
X109360598Y-80617253D01*
X109340893Y-80631867D01*
X109319849Y-80644480D01*
X109297671Y-80654970D01*
X109274571Y-80663235D01*
X109250773Y-80669196D01*
X109226504Y-80672796D01*
X109202000Y-80674000D01*
X106202000Y-80674000D01*
X106177496Y-80672796D01*
X106153227Y-80669196D01*
X106129429Y-80663235D01*
X106106329Y-80654970D01*
X106084151Y-80644480D01*
X106063107Y-80631867D01*
X106043402Y-80617253D01*
X106025223Y-80600777D01*
X106008747Y-80582598D01*
X105994133Y-80562893D01*
X105981520Y-80541849D01*
X105971030Y-80519671D01*
X105962765Y-80496571D01*
X105956804Y-80472773D01*
X105953204Y-80448504D01*
X105952000Y-80424000D01*
X105952000Y-79324000D01*
X105953204Y-79299496D01*
X105956804Y-79275227D01*
X105962765Y-79251429D01*
X105971030Y-79228329D01*
X105981520Y-79206151D01*
X105994133Y-79185107D01*
X106008747Y-79165402D01*
X106025223Y-79147223D01*
X106043402Y-79130747D01*
X106063107Y-79116133D01*
X106084151Y-79103520D01*
X106106329Y-79093030D01*
X106129429Y-79084765D01*
X106153227Y-79078804D01*
X106177496Y-79075204D01*
X106202000Y-79074000D01*
X109202000Y-79074000D01*
X109226504Y-79075204D01*
X109226504Y-79075204D01*
G37*
D17*
G04 #@! TD*
G04 #@! TO.P,C4,2*
G04 #@! TO.N,BAT1_D-*
X107702000Y-79874000D03*
D13*
G04 #@! TO.N,OUT+*
G04 #@! TO.C,C4*
G36*
X114826504Y-79075204D02*
X114850773Y-79078804D01*
X114874571Y-79084765D01*
X114897671Y-79093030D01*
X114919849Y-79103520D01*
X114940893Y-79116133D01*
X114960598Y-79130747D01*
X114978777Y-79147223D01*
X114995253Y-79165402D01*
X115009867Y-79185107D01*
X115022480Y-79206151D01*
X115032970Y-79228329D01*
X115041235Y-79251429D01*
X115047196Y-79275227D01*
X115050796Y-79299496D01*
X115052000Y-79324000D01*
X115052000Y-80424000D01*
X115050796Y-80448504D01*
X115047196Y-80472773D01*
X115041235Y-80496571D01*
X115032970Y-80519671D01*
X115022480Y-80541849D01*
X115009867Y-80562893D01*
X114995253Y-80582598D01*
X114978777Y-80600777D01*
X114960598Y-80617253D01*
X114940893Y-80631867D01*
X114919849Y-80644480D01*
X114897671Y-80654970D01*
X114874571Y-80663235D01*
X114850773Y-80669196D01*
X114826504Y-80672796D01*
X114802000Y-80674000D01*
X111802000Y-80674000D01*
X111777496Y-80672796D01*
X111753227Y-80669196D01*
X111729429Y-80663235D01*
X111706329Y-80654970D01*
X111684151Y-80644480D01*
X111663107Y-80631867D01*
X111643402Y-80617253D01*
X111625223Y-80600777D01*
X111608747Y-80582598D01*
X111594133Y-80562893D01*
X111581520Y-80541849D01*
X111571030Y-80519671D01*
X111562765Y-80496571D01*
X111556804Y-80472773D01*
X111553204Y-80448504D01*
X111552000Y-80424000D01*
X111552000Y-79324000D01*
X111553204Y-79299496D01*
X111556804Y-79275227D01*
X111562765Y-79251429D01*
X111571030Y-79228329D01*
X111581520Y-79206151D01*
X111594133Y-79185107D01*
X111608747Y-79165402D01*
X111625223Y-79147223D01*
X111643402Y-79130747D01*
X111663107Y-79116133D01*
X111684151Y-79103520D01*
X111706329Y-79093030D01*
X111729429Y-79084765D01*
X111753227Y-79078804D01*
X111777496Y-79075204D01*
X111802000Y-79074000D01*
X114802000Y-79074000D01*
X114826504Y-79075204D01*
X114826504Y-79075204D01*
G37*
D17*
G04 #@! TD*
G04 #@! TO.P,C4,1*
G04 #@! TO.N,OUT+*
X113302000Y-79874000D03*
D13*
G04 #@! TO.N,OUT+*
G04 #@! TO.C,R2*
G36*
X114429191Y-87970053D02*
X114450426Y-87973203D01*
X114471250Y-87978419D01*
X114491462Y-87985651D01*
X114510868Y-87994830D01*
X114529281Y-88005866D01*
X114546524Y-88018654D01*
X114562430Y-88033070D01*
X114576846Y-88048976D01*
X114589634Y-88066219D01*
X114600670Y-88084632D01*
X114609849Y-88104038D01*
X114617081Y-88124250D01*
X114622297Y-88145074D01*
X114625447Y-88166309D01*
X114626500Y-88187750D01*
X114626500Y-88700250D01*
X114625447Y-88721691D01*
X114622297Y-88742926D01*
X114617081Y-88763750D01*
X114609849Y-88783962D01*
X114600670Y-88803368D01*
X114589634Y-88821781D01*
X114576846Y-88839024D01*
X114562430Y-88854930D01*
X114546524Y-88869346D01*
X114529281Y-88882134D01*
X114510868Y-88893170D01*
X114491462Y-88902349D01*
X114471250Y-88909581D01*
X114450426Y-88914797D01*
X114429191Y-88917947D01*
X114407750Y-88919000D01*
X113970250Y-88919000D01*
X113948809Y-88917947D01*
X113927574Y-88914797D01*
X113906750Y-88909581D01*
X113886538Y-88902349D01*
X113867132Y-88893170D01*
X113848719Y-88882134D01*
X113831476Y-88869346D01*
X113815570Y-88854930D01*
X113801154Y-88839024D01*
X113788366Y-88821781D01*
X113777330Y-88803368D01*
X113768151Y-88783962D01*
X113760919Y-88763750D01*
X113755703Y-88742926D01*
X113752553Y-88721691D01*
X113751500Y-88700250D01*
X113751500Y-88187750D01*
X113752553Y-88166309D01*
X113755703Y-88145074D01*
X113760919Y-88124250D01*
X113768151Y-88104038D01*
X113777330Y-88084632D01*
X113788366Y-88066219D01*
X113801154Y-88048976D01*
X113815570Y-88033070D01*
X113831476Y-88018654D01*
X113848719Y-88005866D01*
X113867132Y-87994830D01*
X113886538Y-87985651D01*
X113906750Y-87978419D01*
X113927574Y-87973203D01*
X113948809Y-87970053D01*
X113970250Y-87969000D01*
X114407750Y-87969000D01*
X114429191Y-87970053D01*
X114429191Y-87970053D01*
G37*
D14*
G04 #@! TD*
G04 #@! TO.P,R2,2*
G04 #@! TO.N,OUT+*
X114189000Y-88444000D03*
D13*
G04 #@! TO.N,Net-(C6-Pad1)*
G04 #@! TO.C,R2*
G36*
X116004191Y-87970053D02*
X116025426Y-87973203D01*
X116046250Y-87978419D01*
X116066462Y-87985651D01*
X116085868Y-87994830D01*
X116104281Y-88005866D01*
X116121524Y-88018654D01*
X116137430Y-88033070D01*
X116151846Y-88048976D01*
X116164634Y-88066219D01*
X116175670Y-88084632D01*
X116184849Y-88104038D01*
X116192081Y-88124250D01*
X116197297Y-88145074D01*
X116200447Y-88166309D01*
X116201500Y-88187750D01*
X116201500Y-88700250D01*
X116200447Y-88721691D01*
X116197297Y-88742926D01*
X116192081Y-88763750D01*
X116184849Y-88783962D01*
X116175670Y-88803368D01*
X116164634Y-88821781D01*
X116151846Y-88839024D01*
X116137430Y-88854930D01*
X116121524Y-88869346D01*
X116104281Y-88882134D01*
X116085868Y-88893170D01*
X116066462Y-88902349D01*
X116046250Y-88909581D01*
X116025426Y-88914797D01*
X116004191Y-88917947D01*
X115982750Y-88919000D01*
X115545250Y-88919000D01*
X115523809Y-88917947D01*
X115502574Y-88914797D01*
X115481750Y-88909581D01*
X115461538Y-88902349D01*
X115442132Y-88893170D01*
X115423719Y-88882134D01*
X115406476Y-88869346D01*
X115390570Y-88854930D01*
X115376154Y-88839024D01*
X115363366Y-88821781D01*
X115352330Y-88803368D01*
X115343151Y-88783962D01*
X115335919Y-88763750D01*
X115330703Y-88742926D01*
X115327553Y-88721691D01*
X115326500Y-88700250D01*
X115326500Y-88187750D01*
X115327553Y-88166309D01*
X115330703Y-88145074D01*
X115335919Y-88124250D01*
X115343151Y-88104038D01*
X115352330Y-88084632D01*
X115363366Y-88066219D01*
X115376154Y-88048976D01*
X115390570Y-88033070D01*
X115406476Y-88018654D01*
X115423719Y-88005866D01*
X115442132Y-87994830D01*
X115461538Y-87985651D01*
X115481750Y-87978419D01*
X115502574Y-87973203D01*
X115523809Y-87970053D01*
X115545250Y-87969000D01*
X115982750Y-87969000D01*
X116004191Y-87970053D01*
X116004191Y-87970053D01*
G37*
D14*
G04 #@! TD*
G04 #@! TO.P,R2,1*
G04 #@! TO.N,Net-(C6-Pad1)*
X115764000Y-88444000D03*
D13*
G04 #@! TO.N,Net-(C11-Pad1)*
G04 #@! TO.C,R3*
G36*
X117177691Y-43266053D02*
X117198926Y-43269203D01*
X117219750Y-43274419D01*
X117239962Y-43281651D01*
X117259368Y-43290830D01*
X117277781Y-43301866D01*
X117295024Y-43314654D01*
X117310930Y-43329070D01*
X117325346Y-43344976D01*
X117338134Y-43362219D01*
X117349170Y-43380632D01*
X117358349Y-43400038D01*
X117365581Y-43420250D01*
X117370797Y-43441074D01*
X117373947Y-43462309D01*
X117375000Y-43483750D01*
X117375000Y-43996250D01*
X117373947Y-44017691D01*
X117370797Y-44038926D01*
X117365581Y-44059750D01*
X117358349Y-44079962D01*
X117349170Y-44099368D01*
X117338134Y-44117781D01*
X117325346Y-44135024D01*
X117310930Y-44150930D01*
X117295024Y-44165346D01*
X117277781Y-44178134D01*
X117259368Y-44189170D01*
X117239962Y-44198349D01*
X117219750Y-44205581D01*
X117198926Y-44210797D01*
X117177691Y-44213947D01*
X117156250Y-44215000D01*
X116718750Y-44215000D01*
X116697309Y-44213947D01*
X116676074Y-44210797D01*
X116655250Y-44205581D01*
X116635038Y-44198349D01*
X116615632Y-44189170D01*
X116597219Y-44178134D01*
X116579976Y-44165346D01*
X116564070Y-44150930D01*
X116549654Y-44135024D01*
X116536866Y-44117781D01*
X116525830Y-44099368D01*
X116516651Y-44079962D01*
X116509419Y-44059750D01*
X116504203Y-44038926D01*
X116501053Y-44017691D01*
X116500000Y-43996250D01*
X116500000Y-43483750D01*
X116501053Y-43462309D01*
X116504203Y-43441074D01*
X116509419Y-43420250D01*
X116516651Y-43400038D01*
X116525830Y-43380632D01*
X116536866Y-43362219D01*
X116549654Y-43344976D01*
X116564070Y-43329070D01*
X116579976Y-43314654D01*
X116597219Y-43301866D01*
X116615632Y-43290830D01*
X116635038Y-43281651D01*
X116655250Y-43274419D01*
X116676074Y-43269203D01*
X116697309Y-43266053D01*
X116718750Y-43265000D01*
X117156250Y-43265000D01*
X117177691Y-43266053D01*
X117177691Y-43266053D01*
G37*
D14*
G04 #@! TD*
G04 #@! TO.P,R3,1*
G04 #@! TO.N,Net-(C11-Pad1)*
X116937500Y-43740000D03*
D13*
G04 #@! TO.N,OUT+*
G04 #@! TO.C,R3*
G36*
X115602691Y-43266053D02*
X115623926Y-43269203D01*
X115644750Y-43274419D01*
X115664962Y-43281651D01*
X115684368Y-43290830D01*
X115702781Y-43301866D01*
X115720024Y-43314654D01*
X115735930Y-43329070D01*
X115750346Y-43344976D01*
X115763134Y-43362219D01*
X115774170Y-43380632D01*
X115783349Y-43400038D01*
X115790581Y-43420250D01*
X115795797Y-43441074D01*
X115798947Y-43462309D01*
X115800000Y-43483750D01*
X115800000Y-43996250D01*
X115798947Y-44017691D01*
X115795797Y-44038926D01*
X115790581Y-44059750D01*
X115783349Y-44079962D01*
X115774170Y-44099368D01*
X115763134Y-44117781D01*
X115750346Y-44135024D01*
X115735930Y-44150930D01*
X115720024Y-44165346D01*
X115702781Y-44178134D01*
X115684368Y-44189170D01*
X115664962Y-44198349D01*
X115644750Y-44205581D01*
X115623926Y-44210797D01*
X115602691Y-44213947D01*
X115581250Y-44215000D01*
X115143750Y-44215000D01*
X115122309Y-44213947D01*
X115101074Y-44210797D01*
X115080250Y-44205581D01*
X115060038Y-44198349D01*
X115040632Y-44189170D01*
X115022219Y-44178134D01*
X115004976Y-44165346D01*
X114989070Y-44150930D01*
X114974654Y-44135024D01*
X114961866Y-44117781D01*
X114950830Y-44099368D01*
X114941651Y-44079962D01*
X114934419Y-44059750D01*
X114929203Y-44038926D01*
X114926053Y-44017691D01*
X114925000Y-43996250D01*
X114925000Y-43483750D01*
X114926053Y-43462309D01*
X114929203Y-43441074D01*
X114934419Y-43420250D01*
X114941651Y-43400038D01*
X114950830Y-43380632D01*
X114961866Y-43362219D01*
X114974654Y-43344976D01*
X114989070Y-43329070D01*
X115004976Y-43314654D01*
X115022219Y-43301866D01*
X115040632Y-43290830D01*
X115060038Y-43281651D01*
X115080250Y-43274419D01*
X115101074Y-43269203D01*
X115122309Y-43266053D01*
X115143750Y-43265000D01*
X115581250Y-43265000D01*
X115602691Y-43266053D01*
X115602691Y-43266053D01*
G37*
D14*
G04 #@! TD*
G04 #@! TO.P,R3,2*
G04 #@! TO.N,OUT+*
X115362500Y-43740000D03*
D12*
G04 #@! TO.P,U2,1*
G04 #@! TO.N,Net-(C5-Pad1)*
X157700000Y-63850000D03*
G04 #@! TO.P,U2,3*
G04 #@! TO.N,Net-(U2-Pad3)*
X157700000Y-62550000D03*
G04 #@! TO.P,U2,5*
G04 #@! TO.N,Net-(Q2-Pad4)*
X155500000Y-63200000D03*
G04 #@! TO.P,U2,2*
G04 #@! TO.N,Net-(D14-Pad2)*
X157700000Y-63200000D03*
G04 #@! TO.P,U2,4*
G04 #@! TO.N,CHRG+*
X155500000Y-62550000D03*
G04 #@! TO.P,U2,6*
G04 #@! TO.N,BAT1+*
X155500000Y-63850000D03*
G04 #@! TD*
G04 #@! TO.P,U3,6*
G04 #@! TO.N,OUT+*
X114950000Y-46930000D03*
G04 #@! TO.P,U3,4*
G04 #@! TO.N,BAT2+*
X114950000Y-45630000D03*
G04 #@! TO.P,U3,2*
G04 #@! TO.N,Net-(D15-Pad2)*
X117150000Y-46280000D03*
G04 #@! TO.P,U3,5*
G04 #@! TO.N,Net-(Q3-Pad4)*
X114950000Y-46280000D03*
G04 #@! TO.P,U3,3*
G04 #@! TO.N,Net-(U3-Pad3)*
X117150000Y-45630000D03*
G04 #@! TO.P,U3,1*
G04 #@! TO.N,Net-(C11-Pad1)*
X117150000Y-46930000D03*
G04 #@! TD*
D13*
G04 #@! TO.N,BAT1_D-*
G04 #@! TO.C,C2*
G36*
X106750142Y-88761174D02*
X106773803Y-88764684D01*
X106797007Y-88770496D01*
X106819529Y-88778554D01*
X106841153Y-88788782D01*
X106861670Y-88801079D01*
X106880883Y-88815329D01*
X106898607Y-88831393D01*
X106914671Y-88849117D01*
X106928921Y-88868330D01*
X106941218Y-88888847D01*
X106951446Y-88910471D01*
X106959504Y-88932993D01*
X106965316Y-88956197D01*
X106968826Y-88979858D01*
X106970000Y-89003750D01*
X106970000Y-89916250D01*
X106968826Y-89940142D01*
X106965316Y-89963803D01*
X106959504Y-89987007D01*
X106951446Y-90009529D01*
X106941218Y-90031153D01*
X106928921Y-90051670D01*
X106914671Y-90070883D01*
X106898607Y-90088607D01*
X106880883Y-90104671D01*
X106861670Y-90118921D01*
X106841153Y-90131218D01*
X106819529Y-90141446D01*
X106797007Y-90149504D01*
X106773803Y-90155316D01*
X106750142Y-90158826D01*
X106726250Y-90160000D01*
X106238750Y-90160000D01*
X106214858Y-90158826D01*
X106191197Y-90155316D01*
X106167993Y-90149504D01*
X106145471Y-90141446D01*
X106123847Y-90131218D01*
X106103330Y-90118921D01*
X106084117Y-90104671D01*
X106066393Y-90088607D01*
X106050329Y-90070883D01*
X106036079Y-90051670D01*
X106023782Y-90031153D01*
X106013554Y-90009529D01*
X106005496Y-89987007D01*
X105999684Y-89963803D01*
X105996174Y-89940142D01*
X105995000Y-89916250D01*
X105995000Y-89003750D01*
X105996174Y-88979858D01*
X105999684Y-88956197D01*
X106005496Y-88932993D01*
X106013554Y-88910471D01*
X106023782Y-88888847D01*
X106036079Y-88868330D01*
X106050329Y-88849117D01*
X106066393Y-88831393D01*
X106084117Y-88815329D01*
X106103330Y-88801079D01*
X106123847Y-88788782D01*
X106145471Y-88778554D01*
X106167993Y-88770496D01*
X106191197Y-88764684D01*
X106214858Y-88761174D01*
X106238750Y-88760000D01*
X106726250Y-88760000D01*
X106750142Y-88761174D01*
X106750142Y-88761174D01*
G37*
D18*
G04 #@! TD*
G04 #@! TO.P,C2,1*
G04 #@! TO.N,BAT1_D-*
X106482500Y-89460000D03*
D13*
G04 #@! TO.N,BAT1+*
G04 #@! TO.C,C2*
G36*
X108625142Y-88761174D02*
X108648803Y-88764684D01*
X108672007Y-88770496D01*
X108694529Y-88778554D01*
X108716153Y-88788782D01*
X108736670Y-88801079D01*
X108755883Y-88815329D01*
X108773607Y-88831393D01*
X108789671Y-88849117D01*
X108803921Y-88868330D01*
X108816218Y-88888847D01*
X108826446Y-88910471D01*
X108834504Y-88932993D01*
X108840316Y-88956197D01*
X108843826Y-88979858D01*
X108845000Y-89003750D01*
X108845000Y-89916250D01*
X108843826Y-89940142D01*
X108840316Y-89963803D01*
X108834504Y-89987007D01*
X108826446Y-90009529D01*
X108816218Y-90031153D01*
X108803921Y-90051670D01*
X108789671Y-90070883D01*
X108773607Y-90088607D01*
X108755883Y-90104671D01*
X108736670Y-90118921D01*
X108716153Y-90131218D01*
X108694529Y-90141446D01*
X108672007Y-90149504D01*
X108648803Y-90155316D01*
X108625142Y-90158826D01*
X108601250Y-90160000D01*
X108113750Y-90160000D01*
X108089858Y-90158826D01*
X108066197Y-90155316D01*
X108042993Y-90149504D01*
X108020471Y-90141446D01*
X107998847Y-90131218D01*
X107978330Y-90118921D01*
X107959117Y-90104671D01*
X107941393Y-90088607D01*
X107925329Y-90070883D01*
X107911079Y-90051670D01*
X107898782Y-90031153D01*
X107888554Y-90009529D01*
X107880496Y-89987007D01*
X107874684Y-89963803D01*
X107871174Y-89940142D01*
X107870000Y-89916250D01*
X107870000Y-89003750D01*
X107871174Y-88979858D01*
X107874684Y-88956197D01*
X107880496Y-88932993D01*
X107888554Y-88910471D01*
X107898782Y-88888847D01*
X107911079Y-88868330D01*
X107925329Y-88849117D01*
X107941393Y-88831393D01*
X107959117Y-88815329D01*
X107978330Y-88801079D01*
X107998847Y-88788782D01*
X108020471Y-88778554D01*
X108042993Y-88770496D01*
X108066197Y-88764684D01*
X108089858Y-88761174D01*
X108113750Y-88760000D01*
X108601250Y-88760000D01*
X108625142Y-88761174D01*
X108625142Y-88761174D01*
G37*
D18*
G04 #@! TD*
G04 #@! TO.P,C2,2*
G04 #@! TO.N,BAT1+*
X108357500Y-89460000D03*
D13*
G04 #@! TO.N,Net-(C5-Pad1)*
G04 #@! TO.C,C5*
G36*
X154430142Y-66426174D02*
X154453803Y-66429684D01*
X154477007Y-66435496D01*
X154499529Y-66443554D01*
X154521153Y-66453782D01*
X154541670Y-66466079D01*
X154560883Y-66480329D01*
X154578607Y-66496393D01*
X154594671Y-66514117D01*
X154608921Y-66533330D01*
X154621218Y-66553847D01*
X154631446Y-66575471D01*
X154639504Y-66597993D01*
X154645316Y-66621197D01*
X154648826Y-66644858D01*
X154650000Y-66668750D01*
X154650000Y-67581250D01*
X154648826Y-67605142D01*
X154645316Y-67628803D01*
X154639504Y-67652007D01*
X154631446Y-67674529D01*
X154621218Y-67696153D01*
X154608921Y-67716670D01*
X154594671Y-67735883D01*
X154578607Y-67753607D01*
X154560883Y-67769671D01*
X154541670Y-67783921D01*
X154521153Y-67796218D01*
X154499529Y-67806446D01*
X154477007Y-67814504D01*
X154453803Y-67820316D01*
X154430142Y-67823826D01*
X154406250Y-67825000D01*
X153918750Y-67825000D01*
X153894858Y-67823826D01*
X153871197Y-67820316D01*
X153847993Y-67814504D01*
X153825471Y-67806446D01*
X153803847Y-67796218D01*
X153783330Y-67783921D01*
X153764117Y-67769671D01*
X153746393Y-67753607D01*
X153730329Y-67735883D01*
X153716079Y-67716670D01*
X153703782Y-67696153D01*
X153693554Y-67674529D01*
X153685496Y-67652007D01*
X153679684Y-67628803D01*
X153676174Y-67605142D01*
X153675000Y-67581250D01*
X153675000Y-66668750D01*
X153676174Y-66644858D01*
X153679684Y-66621197D01*
X153685496Y-66597993D01*
X153693554Y-66575471D01*
X153703782Y-66553847D01*
X153716079Y-66533330D01*
X153730329Y-66514117D01*
X153746393Y-66496393D01*
X153764117Y-66480329D01*
X153783330Y-66466079D01*
X153803847Y-66453782D01*
X153825471Y-66443554D01*
X153847993Y-66435496D01*
X153871197Y-66429684D01*
X153894858Y-66426174D01*
X153918750Y-66425000D01*
X154406250Y-66425000D01*
X154430142Y-66426174D01*
X154430142Y-66426174D01*
G37*
D18*
G04 #@! TD*
G04 #@! TO.P,C5,1*
G04 #@! TO.N,Net-(C5-Pad1)*
X154162500Y-67125000D03*
D13*
G04 #@! TO.N,BAT1_C-*
G04 #@! TO.C,C5*
G36*
X152555142Y-66426174D02*
X152578803Y-66429684D01*
X152602007Y-66435496D01*
X152624529Y-66443554D01*
X152646153Y-66453782D01*
X152666670Y-66466079D01*
X152685883Y-66480329D01*
X152703607Y-66496393D01*
X152719671Y-66514117D01*
X152733921Y-66533330D01*
X152746218Y-66553847D01*
X152756446Y-66575471D01*
X152764504Y-66597993D01*
X152770316Y-66621197D01*
X152773826Y-66644858D01*
X152775000Y-66668750D01*
X152775000Y-67581250D01*
X152773826Y-67605142D01*
X152770316Y-67628803D01*
X152764504Y-67652007D01*
X152756446Y-67674529D01*
X152746218Y-67696153D01*
X152733921Y-67716670D01*
X152719671Y-67735883D01*
X152703607Y-67753607D01*
X152685883Y-67769671D01*
X152666670Y-67783921D01*
X152646153Y-67796218D01*
X152624529Y-67806446D01*
X152602007Y-67814504D01*
X152578803Y-67820316D01*
X152555142Y-67823826D01*
X152531250Y-67825000D01*
X152043750Y-67825000D01*
X152019858Y-67823826D01*
X151996197Y-67820316D01*
X151972993Y-67814504D01*
X151950471Y-67806446D01*
X151928847Y-67796218D01*
X151908330Y-67783921D01*
X151889117Y-67769671D01*
X151871393Y-67753607D01*
X151855329Y-67735883D01*
X151841079Y-67716670D01*
X151828782Y-67696153D01*
X151818554Y-67674529D01*
X151810496Y-67652007D01*
X151804684Y-67628803D01*
X151801174Y-67605142D01*
X151800000Y-67581250D01*
X151800000Y-66668750D01*
X151801174Y-66644858D01*
X151804684Y-66621197D01*
X151810496Y-66597993D01*
X151818554Y-66575471D01*
X151828782Y-66553847D01*
X151841079Y-66533330D01*
X151855329Y-66514117D01*
X151871393Y-66496393D01*
X151889117Y-66480329D01*
X151908330Y-66466079D01*
X151928847Y-66453782D01*
X151950471Y-66443554D01*
X151972993Y-66435496D01*
X151996197Y-66429684D01*
X152019858Y-66426174D01*
X152043750Y-66425000D01*
X152531250Y-66425000D01*
X152555142Y-66426174D01*
X152555142Y-66426174D01*
G37*
D18*
G04 #@! TD*
G04 #@! TO.P,C5,2*
G04 #@! TO.N,BAT1_C-*
X152287500Y-67125000D03*
D13*
G04 #@! TO.N,BAT1_D-*
G04 #@! TO.C,C6*
G36*
X110560142Y-88761174D02*
X110583803Y-88764684D01*
X110607007Y-88770496D01*
X110629529Y-88778554D01*
X110651153Y-88788782D01*
X110671670Y-88801079D01*
X110690883Y-88815329D01*
X110708607Y-88831393D01*
X110724671Y-88849117D01*
X110738921Y-88868330D01*
X110751218Y-88888847D01*
X110761446Y-88910471D01*
X110769504Y-88932993D01*
X110775316Y-88956197D01*
X110778826Y-88979858D01*
X110780000Y-89003750D01*
X110780000Y-89916250D01*
X110778826Y-89940142D01*
X110775316Y-89963803D01*
X110769504Y-89987007D01*
X110761446Y-90009529D01*
X110751218Y-90031153D01*
X110738921Y-90051670D01*
X110724671Y-90070883D01*
X110708607Y-90088607D01*
X110690883Y-90104671D01*
X110671670Y-90118921D01*
X110651153Y-90131218D01*
X110629529Y-90141446D01*
X110607007Y-90149504D01*
X110583803Y-90155316D01*
X110560142Y-90158826D01*
X110536250Y-90160000D01*
X110048750Y-90160000D01*
X110024858Y-90158826D01*
X110001197Y-90155316D01*
X109977993Y-90149504D01*
X109955471Y-90141446D01*
X109933847Y-90131218D01*
X109913330Y-90118921D01*
X109894117Y-90104671D01*
X109876393Y-90088607D01*
X109860329Y-90070883D01*
X109846079Y-90051670D01*
X109833782Y-90031153D01*
X109823554Y-90009529D01*
X109815496Y-89987007D01*
X109809684Y-89963803D01*
X109806174Y-89940142D01*
X109805000Y-89916250D01*
X109805000Y-89003750D01*
X109806174Y-88979858D01*
X109809684Y-88956197D01*
X109815496Y-88932993D01*
X109823554Y-88910471D01*
X109833782Y-88888847D01*
X109846079Y-88868330D01*
X109860329Y-88849117D01*
X109876393Y-88831393D01*
X109894117Y-88815329D01*
X109913330Y-88801079D01*
X109933847Y-88788782D01*
X109955471Y-88778554D01*
X109977993Y-88770496D01*
X110001197Y-88764684D01*
X110024858Y-88761174D01*
X110048750Y-88760000D01*
X110536250Y-88760000D01*
X110560142Y-88761174D01*
X110560142Y-88761174D01*
G37*
D18*
G04 #@! TD*
G04 #@! TO.P,C6,2*
G04 #@! TO.N,BAT1_D-*
X110292500Y-89460000D03*
D13*
G04 #@! TO.N,Net-(C6-Pad1)*
G04 #@! TO.C,C6*
G36*
X112435142Y-88761174D02*
X112458803Y-88764684D01*
X112482007Y-88770496D01*
X112504529Y-88778554D01*
X112526153Y-88788782D01*
X112546670Y-88801079D01*
X112565883Y-88815329D01*
X112583607Y-88831393D01*
X112599671Y-88849117D01*
X112613921Y-88868330D01*
X112626218Y-88888847D01*
X112636446Y-88910471D01*
X112644504Y-88932993D01*
X112650316Y-88956197D01*
X112653826Y-88979858D01*
X112655000Y-89003750D01*
X112655000Y-89916250D01*
X112653826Y-89940142D01*
X112650316Y-89963803D01*
X112644504Y-89987007D01*
X112636446Y-90009529D01*
X112626218Y-90031153D01*
X112613921Y-90051670D01*
X112599671Y-90070883D01*
X112583607Y-90088607D01*
X112565883Y-90104671D01*
X112546670Y-90118921D01*
X112526153Y-90131218D01*
X112504529Y-90141446D01*
X112482007Y-90149504D01*
X112458803Y-90155316D01*
X112435142Y-90158826D01*
X112411250Y-90160000D01*
X111923750Y-90160000D01*
X111899858Y-90158826D01*
X111876197Y-90155316D01*
X111852993Y-90149504D01*
X111830471Y-90141446D01*
X111808847Y-90131218D01*
X111788330Y-90118921D01*
X111769117Y-90104671D01*
X111751393Y-90088607D01*
X111735329Y-90070883D01*
X111721079Y-90051670D01*
X111708782Y-90031153D01*
X111698554Y-90009529D01*
X111690496Y-89987007D01*
X111684684Y-89963803D01*
X111681174Y-89940142D01*
X111680000Y-89916250D01*
X111680000Y-89003750D01*
X111681174Y-88979858D01*
X111684684Y-88956197D01*
X111690496Y-88932993D01*
X111698554Y-88910471D01*
X111708782Y-88888847D01*
X111721079Y-88868330D01*
X111735329Y-88849117D01*
X111751393Y-88831393D01*
X111769117Y-88815329D01*
X111788330Y-88801079D01*
X111808847Y-88788782D01*
X111830471Y-88778554D01*
X111852993Y-88770496D01*
X111876197Y-88764684D01*
X111899858Y-88761174D01*
X111923750Y-88760000D01*
X112411250Y-88760000D01*
X112435142Y-88761174D01*
X112435142Y-88761174D01*
G37*
D18*
G04 #@! TD*
G04 #@! TO.P,C6,1*
G04 #@! TO.N,Net-(C6-Pad1)*
X112167500Y-89460000D03*
D13*
G04 #@! TO.N,BAT2+*
G04 #@! TO.C,C7*
G36*
X113105142Y-47901174D02*
X113128803Y-47904684D01*
X113152007Y-47910496D01*
X113174529Y-47918554D01*
X113196153Y-47928782D01*
X113216670Y-47941079D01*
X113235883Y-47955329D01*
X113253607Y-47971393D01*
X113269671Y-47989117D01*
X113283921Y-48008330D01*
X113296218Y-48028847D01*
X113306446Y-48050471D01*
X113314504Y-48072993D01*
X113320316Y-48096197D01*
X113323826Y-48119858D01*
X113325000Y-48143750D01*
X113325000Y-49056250D01*
X113323826Y-49080142D01*
X113320316Y-49103803D01*
X113314504Y-49127007D01*
X113306446Y-49149529D01*
X113296218Y-49171153D01*
X113283921Y-49191670D01*
X113269671Y-49210883D01*
X113253607Y-49228607D01*
X113235883Y-49244671D01*
X113216670Y-49258921D01*
X113196153Y-49271218D01*
X113174529Y-49281446D01*
X113152007Y-49289504D01*
X113128803Y-49295316D01*
X113105142Y-49298826D01*
X113081250Y-49300000D01*
X112593750Y-49300000D01*
X112569858Y-49298826D01*
X112546197Y-49295316D01*
X112522993Y-49289504D01*
X112500471Y-49281446D01*
X112478847Y-49271218D01*
X112458330Y-49258921D01*
X112439117Y-49244671D01*
X112421393Y-49228607D01*
X112405329Y-49210883D01*
X112391079Y-49191670D01*
X112378782Y-49171153D01*
X112368554Y-49149529D01*
X112360496Y-49127007D01*
X112354684Y-49103803D01*
X112351174Y-49080142D01*
X112350000Y-49056250D01*
X112350000Y-48143750D01*
X112351174Y-48119858D01*
X112354684Y-48096197D01*
X112360496Y-48072993D01*
X112368554Y-48050471D01*
X112378782Y-48028847D01*
X112391079Y-48008330D01*
X112405329Y-47989117D01*
X112421393Y-47971393D01*
X112439117Y-47955329D01*
X112458330Y-47941079D01*
X112478847Y-47928782D01*
X112500471Y-47918554D01*
X112522993Y-47910496D01*
X112546197Y-47904684D01*
X112569858Y-47901174D01*
X112593750Y-47900000D01*
X113081250Y-47900000D01*
X113105142Y-47901174D01*
X113105142Y-47901174D01*
G37*
D18*
G04 #@! TD*
G04 #@! TO.P,C7,2*
G04 #@! TO.N,BAT2+*
X112837500Y-48600000D03*
D13*
G04 #@! TO.N,BAT1_D-*
G04 #@! TO.C,C7*
G36*
X111230142Y-47901174D02*
X111253803Y-47904684D01*
X111277007Y-47910496D01*
X111299529Y-47918554D01*
X111321153Y-47928782D01*
X111341670Y-47941079D01*
X111360883Y-47955329D01*
X111378607Y-47971393D01*
X111394671Y-47989117D01*
X111408921Y-48008330D01*
X111421218Y-48028847D01*
X111431446Y-48050471D01*
X111439504Y-48072993D01*
X111445316Y-48096197D01*
X111448826Y-48119858D01*
X111450000Y-48143750D01*
X111450000Y-49056250D01*
X111448826Y-49080142D01*
X111445316Y-49103803D01*
X111439504Y-49127007D01*
X111431446Y-49149529D01*
X111421218Y-49171153D01*
X111408921Y-49191670D01*
X111394671Y-49210883D01*
X111378607Y-49228607D01*
X111360883Y-49244671D01*
X111341670Y-49258921D01*
X111321153Y-49271218D01*
X111299529Y-49281446D01*
X111277007Y-49289504D01*
X111253803Y-49295316D01*
X111230142Y-49298826D01*
X111206250Y-49300000D01*
X110718750Y-49300000D01*
X110694858Y-49298826D01*
X110671197Y-49295316D01*
X110647993Y-49289504D01*
X110625471Y-49281446D01*
X110603847Y-49271218D01*
X110583330Y-49258921D01*
X110564117Y-49244671D01*
X110546393Y-49228607D01*
X110530329Y-49210883D01*
X110516079Y-49191670D01*
X110503782Y-49171153D01*
X110493554Y-49149529D01*
X110485496Y-49127007D01*
X110479684Y-49103803D01*
X110476174Y-49080142D01*
X110475000Y-49056250D01*
X110475000Y-48143750D01*
X110476174Y-48119858D01*
X110479684Y-48096197D01*
X110485496Y-48072993D01*
X110493554Y-48050471D01*
X110503782Y-48028847D01*
X110516079Y-48008330D01*
X110530329Y-47989117D01*
X110546393Y-47971393D01*
X110564117Y-47955329D01*
X110583330Y-47941079D01*
X110603847Y-47928782D01*
X110625471Y-47918554D01*
X110647993Y-47910496D01*
X110671197Y-47904684D01*
X110694858Y-47901174D01*
X110718750Y-47900000D01*
X111206250Y-47900000D01*
X111230142Y-47901174D01*
X111230142Y-47901174D01*
G37*
D18*
G04 #@! TD*
G04 #@! TO.P,C7,1*
G04 #@! TO.N,BAT1_D-*
X110962500Y-48600000D03*
D13*
G04 #@! TO.N,CHRG+*
G04 #@! TO.C,C8*
G36*
X150805142Y-66576174D02*
X150828803Y-66579684D01*
X150852007Y-66585496D01*
X150874529Y-66593554D01*
X150896153Y-66603782D01*
X150916670Y-66616079D01*
X150935883Y-66630329D01*
X150953607Y-66646393D01*
X150969671Y-66664117D01*
X150983921Y-66683330D01*
X150996218Y-66703847D01*
X151006446Y-66725471D01*
X151014504Y-66747993D01*
X151020316Y-66771197D01*
X151023826Y-66794858D01*
X151025000Y-66818750D01*
X151025000Y-67731250D01*
X151023826Y-67755142D01*
X151020316Y-67778803D01*
X151014504Y-67802007D01*
X151006446Y-67824529D01*
X150996218Y-67846153D01*
X150983921Y-67866670D01*
X150969671Y-67885883D01*
X150953607Y-67903607D01*
X150935883Y-67919671D01*
X150916670Y-67933921D01*
X150896153Y-67946218D01*
X150874529Y-67956446D01*
X150852007Y-67964504D01*
X150828803Y-67970316D01*
X150805142Y-67973826D01*
X150781250Y-67975000D01*
X150293750Y-67975000D01*
X150269858Y-67973826D01*
X150246197Y-67970316D01*
X150222993Y-67964504D01*
X150200471Y-67956446D01*
X150178847Y-67946218D01*
X150158330Y-67933921D01*
X150139117Y-67919671D01*
X150121393Y-67903607D01*
X150105329Y-67885883D01*
X150091079Y-67866670D01*
X150078782Y-67846153D01*
X150068554Y-67824529D01*
X150060496Y-67802007D01*
X150054684Y-67778803D01*
X150051174Y-67755142D01*
X150050000Y-67731250D01*
X150050000Y-66818750D01*
X150051174Y-66794858D01*
X150054684Y-66771197D01*
X150060496Y-66747993D01*
X150068554Y-66725471D01*
X150078782Y-66703847D01*
X150091079Y-66683330D01*
X150105329Y-66664117D01*
X150121393Y-66646393D01*
X150139117Y-66630329D01*
X150158330Y-66616079D01*
X150178847Y-66603782D01*
X150200471Y-66593554D01*
X150222993Y-66585496D01*
X150246197Y-66579684D01*
X150269858Y-66576174D01*
X150293750Y-66575000D01*
X150781250Y-66575000D01*
X150805142Y-66576174D01*
X150805142Y-66576174D01*
G37*
D18*
G04 #@! TD*
G04 #@! TO.P,C8,2*
G04 #@! TO.N,CHRG+*
X150537500Y-67275000D03*
D13*
G04 #@! TO.N,BAT1_C-*
G04 #@! TO.C,C8*
G36*
X148930142Y-66576174D02*
X148953803Y-66579684D01*
X148977007Y-66585496D01*
X148999529Y-66593554D01*
X149021153Y-66603782D01*
X149041670Y-66616079D01*
X149060883Y-66630329D01*
X149078607Y-66646393D01*
X149094671Y-66664117D01*
X149108921Y-66683330D01*
X149121218Y-66703847D01*
X149131446Y-66725471D01*
X149139504Y-66747993D01*
X149145316Y-66771197D01*
X149148826Y-66794858D01*
X149150000Y-66818750D01*
X149150000Y-67731250D01*
X149148826Y-67755142D01*
X149145316Y-67778803D01*
X149139504Y-67802007D01*
X149131446Y-67824529D01*
X149121218Y-67846153D01*
X149108921Y-67866670D01*
X149094671Y-67885883D01*
X149078607Y-67903607D01*
X149060883Y-67919671D01*
X149041670Y-67933921D01*
X149021153Y-67946218D01*
X148999529Y-67956446D01*
X148977007Y-67964504D01*
X148953803Y-67970316D01*
X148930142Y-67973826D01*
X148906250Y-67975000D01*
X148418750Y-67975000D01*
X148394858Y-67973826D01*
X148371197Y-67970316D01*
X148347993Y-67964504D01*
X148325471Y-67956446D01*
X148303847Y-67946218D01*
X148283330Y-67933921D01*
X148264117Y-67919671D01*
X148246393Y-67903607D01*
X148230329Y-67885883D01*
X148216079Y-67866670D01*
X148203782Y-67846153D01*
X148193554Y-67824529D01*
X148185496Y-67802007D01*
X148179684Y-67778803D01*
X148176174Y-67755142D01*
X148175000Y-67731250D01*
X148175000Y-66818750D01*
X148176174Y-66794858D01*
X148179684Y-66771197D01*
X148185496Y-66747993D01*
X148193554Y-66725471D01*
X148203782Y-66703847D01*
X148216079Y-66683330D01*
X148230329Y-66664117D01*
X148246393Y-66646393D01*
X148264117Y-66630329D01*
X148283330Y-66616079D01*
X148303847Y-66603782D01*
X148325471Y-66593554D01*
X148347993Y-66585496D01*
X148371197Y-66579684D01*
X148394858Y-66576174D01*
X148418750Y-66575000D01*
X148906250Y-66575000D01*
X148930142Y-66576174D01*
X148930142Y-66576174D01*
G37*
D18*
G04 #@! TD*
G04 #@! TO.P,C8,1*
G04 #@! TO.N,BAT1_C-*
X148662500Y-67275000D03*
D13*
G04 #@! TO.N,Net-(C11-Pad1)*
G04 #@! TO.C,C11*
G36*
X109055142Y-47801174D02*
X109078803Y-47804684D01*
X109102007Y-47810496D01*
X109124529Y-47818554D01*
X109146153Y-47828782D01*
X109166670Y-47841079D01*
X109185883Y-47855329D01*
X109203607Y-47871393D01*
X109219671Y-47889117D01*
X109233921Y-47908330D01*
X109246218Y-47928847D01*
X109256446Y-47950471D01*
X109264504Y-47972993D01*
X109270316Y-47996197D01*
X109273826Y-48019858D01*
X109275000Y-48043750D01*
X109275000Y-48956250D01*
X109273826Y-48980142D01*
X109270316Y-49003803D01*
X109264504Y-49027007D01*
X109256446Y-49049529D01*
X109246218Y-49071153D01*
X109233921Y-49091670D01*
X109219671Y-49110883D01*
X109203607Y-49128607D01*
X109185883Y-49144671D01*
X109166670Y-49158921D01*
X109146153Y-49171218D01*
X109124529Y-49181446D01*
X109102007Y-49189504D01*
X109078803Y-49195316D01*
X109055142Y-49198826D01*
X109031250Y-49200000D01*
X108543750Y-49200000D01*
X108519858Y-49198826D01*
X108496197Y-49195316D01*
X108472993Y-49189504D01*
X108450471Y-49181446D01*
X108428847Y-49171218D01*
X108408330Y-49158921D01*
X108389117Y-49144671D01*
X108371393Y-49128607D01*
X108355329Y-49110883D01*
X108341079Y-49091670D01*
X108328782Y-49071153D01*
X108318554Y-49049529D01*
X108310496Y-49027007D01*
X108304684Y-49003803D01*
X108301174Y-48980142D01*
X108300000Y-48956250D01*
X108300000Y-48043750D01*
X108301174Y-48019858D01*
X108304684Y-47996197D01*
X108310496Y-47972993D01*
X108318554Y-47950471D01*
X108328782Y-47928847D01*
X108341079Y-47908330D01*
X108355329Y-47889117D01*
X108371393Y-47871393D01*
X108389117Y-47855329D01*
X108408330Y-47841079D01*
X108428847Y-47828782D01*
X108450471Y-47818554D01*
X108472993Y-47810496D01*
X108496197Y-47804684D01*
X108519858Y-47801174D01*
X108543750Y-47800000D01*
X109031250Y-47800000D01*
X109055142Y-47801174D01*
X109055142Y-47801174D01*
G37*
D18*
G04 #@! TD*
G04 #@! TO.P,C11,1*
G04 #@! TO.N,Net-(C11-Pad1)*
X108787500Y-48500000D03*
D13*
G04 #@! TO.N,BAT1_D-*
G04 #@! TO.C,C11*
G36*
X107180142Y-47801174D02*
X107203803Y-47804684D01*
X107227007Y-47810496D01*
X107249529Y-47818554D01*
X107271153Y-47828782D01*
X107291670Y-47841079D01*
X107310883Y-47855329D01*
X107328607Y-47871393D01*
X107344671Y-47889117D01*
X107358921Y-47908330D01*
X107371218Y-47928847D01*
X107381446Y-47950471D01*
X107389504Y-47972993D01*
X107395316Y-47996197D01*
X107398826Y-48019858D01*
X107400000Y-48043750D01*
X107400000Y-48956250D01*
X107398826Y-48980142D01*
X107395316Y-49003803D01*
X107389504Y-49027007D01*
X107381446Y-49049529D01*
X107371218Y-49071153D01*
X107358921Y-49091670D01*
X107344671Y-49110883D01*
X107328607Y-49128607D01*
X107310883Y-49144671D01*
X107291670Y-49158921D01*
X107271153Y-49171218D01*
X107249529Y-49181446D01*
X107227007Y-49189504D01*
X107203803Y-49195316D01*
X107180142Y-49198826D01*
X107156250Y-49200000D01*
X106668750Y-49200000D01*
X106644858Y-49198826D01*
X106621197Y-49195316D01*
X106597993Y-49189504D01*
X106575471Y-49181446D01*
X106553847Y-49171218D01*
X106533330Y-49158921D01*
X106514117Y-49144671D01*
X106496393Y-49128607D01*
X106480329Y-49110883D01*
X106466079Y-49091670D01*
X106453782Y-49071153D01*
X106443554Y-49049529D01*
X106435496Y-49027007D01*
X106429684Y-49003803D01*
X106426174Y-48980142D01*
X106425000Y-48956250D01*
X106425000Y-48043750D01*
X106426174Y-48019858D01*
X106429684Y-47996197D01*
X106435496Y-47972993D01*
X106443554Y-47950471D01*
X106453782Y-47928847D01*
X106466079Y-47908330D01*
X106480329Y-47889117D01*
X106496393Y-47871393D01*
X106514117Y-47855329D01*
X106533330Y-47841079D01*
X106553847Y-47828782D01*
X106575471Y-47818554D01*
X106597993Y-47810496D01*
X106621197Y-47804684D01*
X106644858Y-47801174D01*
X106668750Y-47800000D01*
X107156250Y-47800000D01*
X107180142Y-47801174D01*
X107180142Y-47801174D01*
G37*
D18*
G04 #@! TD*
G04 #@! TO.P,C11,2*
G04 #@! TO.N,BAT1_D-*
X106912500Y-48500000D03*
D16*
G04 #@! TO.P,D1,1*
G04 #@! TO.N,CHRG+*
X153325000Y-70125000D03*
G04 #@! TO.P,D1,2*
G04 #@! TO.N,BAT1_C-*
X149325000Y-70125000D03*
G04 #@! TD*
G04 #@! TO.P,D2,2*
G04 #@! TO.N,BAT1_D-*
X106944000Y-92508000D03*
G04 #@! TO.P,D2,1*
G04 #@! TO.N,BAT1+*
X110944000Y-92508000D03*
G04 #@! TD*
G04 #@! TO.P,D4,1*
G04 #@! TO.N,BAT1+*
X152409500Y-64100000D03*
G04 #@! TO.P,D4,2*
G04 #@! TO.N,BAT1_C-*
X148409500Y-64100000D03*
G04 #@! TD*
G04 #@! TO.P,D6,1*
G04 #@! TO.N,OUT+*
X110952000Y-86574000D03*
G04 #@! TO.P,D6,2*
G04 #@! TO.N,BAT1_D-*
X106952000Y-86574000D03*
G04 #@! TD*
G04 #@! TO.P,D7,2*
G04 #@! TO.N,BAT1_D-*
X107650000Y-44750000D03*
G04 #@! TO.P,D7,1*
G04 #@! TO.N,BAT2+*
X111650000Y-44750000D03*
G04 #@! TD*
G04 #@! TO.P,D10,2*
G04 #@! TO.N,BAT1_D-*
X107579000Y-52630000D03*
G04 #@! TO.P,D10,1*
G04 #@! TO.N,OUT+*
X111579000Y-52630000D03*
G04 #@! TD*
D22*
G04 #@! TO.P,D13,2*
G04 #@! TO.N,Net-(D13-Pad2)*
X118850000Y-83650000D03*
G04 #@! TO.P,D13,1*
G04 #@! TO.N,Net-(D13-Pad1)*
X118850000Y-87650000D03*
G04 #@! TD*
G04 #@! TO.P,D15,1*
G04 #@! TO.N,Net-(D15-Pad1)*
X120183500Y-48153000D03*
G04 #@! TO.P,D15,2*
G04 #@! TO.N,Net-(D15-Pad2)*
X120183500Y-44153000D03*
G04 #@! TD*
G04 #@! TO.P,D16,2*
G04 #@! TO.N,Net-(D11-Pad2)*
X176925000Y-61700000D03*
G04 #@! TO.P,D16,1*
G04 #@! TO.N,Net-(D16-Pad1)*
X176925000Y-65700000D03*
G04 #@! TD*
D15*
G04 #@! TO.P,Q5,3*
G04 #@! TO.N,Net-(D13-Pad1)*
X118850000Y-89730000D03*
G04 #@! TO.P,Q5,2*
G04 #@! TO.N,BAT1_D-*
X119800000Y-91730000D03*
G04 #@! TO.P,Q5,1*
G04 #@! TO.N,SW1*
X117900000Y-91730000D03*
G04 #@! TD*
G04 #@! TO.P,Q6,1*
G04 #@! TO.N,SW2*
X161250000Y-67975000D03*
G04 #@! TO.P,Q6,2*
G04 #@! TO.N,BAT1_C-*
X159350000Y-67975000D03*
G04 #@! TO.P,Q6,3*
G04 #@! TO.N,Net-(D14-Pad1)*
X160300000Y-69975000D03*
G04 #@! TD*
G04 #@! TO.P,Q7,1*
G04 #@! TO.N,SW3*
X119090000Y-52570000D03*
G04 #@! TO.P,Q7,2*
G04 #@! TO.N,BAT1_D-*
X120990000Y-52570000D03*
G04 #@! TO.P,Q7,3*
G04 #@! TO.N,Net-(D15-Pad1)*
X120040000Y-50570000D03*
G04 #@! TD*
D13*
G04 #@! TO.N,BAT1_C-*
G04 #@! TO.C,R5*
G36*
X159827691Y-71301053D02*
X159848926Y-71304203D01*
X159869750Y-71309419D01*
X159889962Y-71316651D01*
X159909368Y-71325830D01*
X159927781Y-71336866D01*
X159945024Y-71349654D01*
X159960930Y-71364070D01*
X159975346Y-71379976D01*
X159988134Y-71397219D01*
X159999170Y-71415632D01*
X160008349Y-71435038D01*
X160015581Y-71455250D01*
X160020797Y-71476074D01*
X160023947Y-71497309D01*
X160025000Y-71518750D01*
X160025000Y-72031250D01*
X160023947Y-72052691D01*
X160020797Y-72073926D01*
X160015581Y-72094750D01*
X160008349Y-72114962D01*
X159999170Y-72134368D01*
X159988134Y-72152781D01*
X159975346Y-72170024D01*
X159960930Y-72185930D01*
X159945024Y-72200346D01*
X159927781Y-72213134D01*
X159909368Y-72224170D01*
X159889962Y-72233349D01*
X159869750Y-72240581D01*
X159848926Y-72245797D01*
X159827691Y-72248947D01*
X159806250Y-72250000D01*
X159368750Y-72250000D01*
X159347309Y-72248947D01*
X159326074Y-72245797D01*
X159305250Y-72240581D01*
X159285038Y-72233349D01*
X159265632Y-72224170D01*
X159247219Y-72213134D01*
X159229976Y-72200346D01*
X159214070Y-72185930D01*
X159199654Y-72170024D01*
X159186866Y-72152781D01*
X159175830Y-72134368D01*
X159166651Y-72114962D01*
X159159419Y-72094750D01*
X159154203Y-72073926D01*
X159151053Y-72052691D01*
X159150000Y-72031250D01*
X159150000Y-71518750D01*
X159151053Y-71497309D01*
X159154203Y-71476074D01*
X159159419Y-71455250D01*
X159166651Y-71435038D01*
X159175830Y-71415632D01*
X159186866Y-71397219D01*
X159199654Y-71379976D01*
X159214070Y-71364070D01*
X159229976Y-71349654D01*
X159247219Y-71336866D01*
X159265632Y-71325830D01*
X159285038Y-71316651D01*
X159305250Y-71309419D01*
X159326074Y-71304203D01*
X159347309Y-71301053D01*
X159368750Y-71300000D01*
X159806250Y-71300000D01*
X159827691Y-71301053D01*
X159827691Y-71301053D01*
G37*
D14*
G04 #@! TD*
G04 #@! TO.P,R5,2*
G04 #@! TO.N,BAT1_C-*
X159587500Y-71775000D03*
D13*
G04 #@! TO.N,SW2*
G04 #@! TO.C,R5*
G36*
X161402691Y-71301053D02*
X161423926Y-71304203D01*
X161444750Y-71309419D01*
X161464962Y-71316651D01*
X161484368Y-71325830D01*
X161502781Y-71336866D01*
X161520024Y-71349654D01*
X161535930Y-71364070D01*
X161550346Y-71379976D01*
X161563134Y-71397219D01*
X161574170Y-71415632D01*
X161583349Y-71435038D01*
X161590581Y-71455250D01*
X161595797Y-71476074D01*
X161598947Y-71497309D01*
X161600000Y-71518750D01*
X161600000Y-72031250D01*
X161598947Y-72052691D01*
X161595797Y-72073926D01*
X161590581Y-72094750D01*
X161583349Y-72114962D01*
X161574170Y-72134368D01*
X161563134Y-72152781D01*
X161550346Y-72170024D01*
X161535930Y-72185930D01*
X161520024Y-72200346D01*
X161502781Y-72213134D01*
X161484368Y-72224170D01*
X161464962Y-72233349D01*
X161444750Y-72240581D01*
X161423926Y-72245797D01*
X161402691Y-72248947D01*
X161381250Y-72250000D01*
X160943750Y-72250000D01*
X160922309Y-72248947D01*
X160901074Y-72245797D01*
X160880250Y-72240581D01*
X160860038Y-72233349D01*
X160840632Y-72224170D01*
X160822219Y-72213134D01*
X160804976Y-72200346D01*
X160789070Y-72185930D01*
X160774654Y-72170024D01*
X160761866Y-72152781D01*
X160750830Y-72134368D01*
X160741651Y-72114962D01*
X160734419Y-72094750D01*
X160729203Y-72073926D01*
X160726053Y-72052691D01*
X160725000Y-72031250D01*
X160725000Y-71518750D01*
X160726053Y-71497309D01*
X160729203Y-71476074D01*
X160734419Y-71455250D01*
X160741651Y-71435038D01*
X160750830Y-71415632D01*
X160761866Y-71397219D01*
X160774654Y-71379976D01*
X160789070Y-71364070D01*
X160804976Y-71349654D01*
X160822219Y-71336866D01*
X160840632Y-71325830D01*
X160860038Y-71316651D01*
X160880250Y-71309419D01*
X160901074Y-71304203D01*
X160922309Y-71301053D01*
X160943750Y-71300000D01*
X161381250Y-71300000D01*
X161402691Y-71301053D01*
X161402691Y-71301053D01*
G37*
D14*
G04 #@! TD*
G04 #@! TO.P,R5,1*
G04 #@! TO.N,SW2*
X161162500Y-71775000D03*
D13*
G04 #@! TO.N,BAT1_D-*
G04 #@! TO.C,R7*
G36*
X121217691Y-53846053D02*
X121238926Y-53849203D01*
X121259750Y-53854419D01*
X121279962Y-53861651D01*
X121299368Y-53870830D01*
X121317781Y-53881866D01*
X121335024Y-53894654D01*
X121350930Y-53909070D01*
X121365346Y-53924976D01*
X121378134Y-53942219D01*
X121389170Y-53960632D01*
X121398349Y-53980038D01*
X121405581Y-54000250D01*
X121410797Y-54021074D01*
X121413947Y-54042309D01*
X121415000Y-54063750D01*
X121415000Y-54576250D01*
X121413947Y-54597691D01*
X121410797Y-54618926D01*
X121405581Y-54639750D01*
X121398349Y-54659962D01*
X121389170Y-54679368D01*
X121378134Y-54697781D01*
X121365346Y-54715024D01*
X121350930Y-54730930D01*
X121335024Y-54745346D01*
X121317781Y-54758134D01*
X121299368Y-54769170D01*
X121279962Y-54778349D01*
X121259750Y-54785581D01*
X121238926Y-54790797D01*
X121217691Y-54793947D01*
X121196250Y-54795000D01*
X120758750Y-54795000D01*
X120737309Y-54793947D01*
X120716074Y-54790797D01*
X120695250Y-54785581D01*
X120675038Y-54778349D01*
X120655632Y-54769170D01*
X120637219Y-54758134D01*
X120619976Y-54745346D01*
X120604070Y-54730930D01*
X120589654Y-54715024D01*
X120576866Y-54697781D01*
X120565830Y-54679368D01*
X120556651Y-54659962D01*
X120549419Y-54639750D01*
X120544203Y-54618926D01*
X120541053Y-54597691D01*
X120540000Y-54576250D01*
X120540000Y-54063750D01*
X120541053Y-54042309D01*
X120544203Y-54021074D01*
X120549419Y-54000250D01*
X120556651Y-53980038D01*
X120565830Y-53960632D01*
X120576866Y-53942219D01*
X120589654Y-53924976D01*
X120604070Y-53909070D01*
X120619976Y-53894654D01*
X120637219Y-53881866D01*
X120655632Y-53870830D01*
X120675038Y-53861651D01*
X120695250Y-53854419D01*
X120716074Y-53849203D01*
X120737309Y-53846053D01*
X120758750Y-53845000D01*
X121196250Y-53845000D01*
X121217691Y-53846053D01*
X121217691Y-53846053D01*
G37*
D14*
G04 #@! TD*
G04 #@! TO.P,R7,2*
G04 #@! TO.N,BAT1_D-*
X120977500Y-54320000D03*
D13*
G04 #@! TO.N,SW3*
G04 #@! TO.C,R7*
G36*
X119642691Y-53846053D02*
X119663926Y-53849203D01*
X119684750Y-53854419D01*
X119704962Y-53861651D01*
X119724368Y-53870830D01*
X119742781Y-53881866D01*
X119760024Y-53894654D01*
X119775930Y-53909070D01*
X119790346Y-53924976D01*
X119803134Y-53942219D01*
X119814170Y-53960632D01*
X119823349Y-53980038D01*
X119830581Y-54000250D01*
X119835797Y-54021074D01*
X119838947Y-54042309D01*
X119840000Y-54063750D01*
X119840000Y-54576250D01*
X119838947Y-54597691D01*
X119835797Y-54618926D01*
X119830581Y-54639750D01*
X119823349Y-54659962D01*
X119814170Y-54679368D01*
X119803134Y-54697781D01*
X119790346Y-54715024D01*
X119775930Y-54730930D01*
X119760024Y-54745346D01*
X119742781Y-54758134D01*
X119724368Y-54769170D01*
X119704962Y-54778349D01*
X119684750Y-54785581D01*
X119663926Y-54790797D01*
X119642691Y-54793947D01*
X119621250Y-54795000D01*
X119183750Y-54795000D01*
X119162309Y-54793947D01*
X119141074Y-54790797D01*
X119120250Y-54785581D01*
X119100038Y-54778349D01*
X119080632Y-54769170D01*
X119062219Y-54758134D01*
X119044976Y-54745346D01*
X119029070Y-54730930D01*
X119014654Y-54715024D01*
X119001866Y-54697781D01*
X118990830Y-54679368D01*
X118981651Y-54659962D01*
X118974419Y-54639750D01*
X118969203Y-54618926D01*
X118966053Y-54597691D01*
X118965000Y-54576250D01*
X118965000Y-54063750D01*
X118966053Y-54042309D01*
X118969203Y-54021074D01*
X118974419Y-54000250D01*
X118981651Y-53980038D01*
X118990830Y-53960632D01*
X119001866Y-53942219D01*
X119014654Y-53924976D01*
X119029070Y-53909070D01*
X119044976Y-53894654D01*
X119062219Y-53881866D01*
X119080632Y-53870830D01*
X119100038Y-53861651D01*
X119120250Y-53854419D01*
X119141074Y-53849203D01*
X119162309Y-53846053D01*
X119183750Y-53845000D01*
X119621250Y-53845000D01*
X119642691Y-53846053D01*
X119642691Y-53846053D01*
G37*
D14*
G04 #@! TD*
G04 #@! TO.P,R7,1*
G04 #@! TO.N,SW3*
X119402500Y-54320000D03*
D13*
G04 #@! TO.N,SW4*
G04 #@! TO.C,R8*
G36*
X178052691Y-71251053D02*
X178073926Y-71254203D01*
X178094750Y-71259419D01*
X178114962Y-71266651D01*
X178134368Y-71275830D01*
X178152781Y-71286866D01*
X178170024Y-71299654D01*
X178185930Y-71314070D01*
X178200346Y-71329976D01*
X178213134Y-71347219D01*
X178224170Y-71365632D01*
X178233349Y-71385038D01*
X178240581Y-71405250D01*
X178245797Y-71426074D01*
X178248947Y-71447309D01*
X178250000Y-71468750D01*
X178250000Y-71981250D01*
X178248947Y-72002691D01*
X178245797Y-72023926D01*
X178240581Y-72044750D01*
X178233349Y-72064962D01*
X178224170Y-72084368D01*
X178213134Y-72102781D01*
X178200346Y-72120024D01*
X178185930Y-72135930D01*
X178170024Y-72150346D01*
X178152781Y-72163134D01*
X178134368Y-72174170D01*
X178114962Y-72183349D01*
X178094750Y-72190581D01*
X178073926Y-72195797D01*
X178052691Y-72198947D01*
X178031250Y-72200000D01*
X177593750Y-72200000D01*
X177572309Y-72198947D01*
X177551074Y-72195797D01*
X177530250Y-72190581D01*
X177510038Y-72183349D01*
X177490632Y-72174170D01*
X177472219Y-72163134D01*
X177454976Y-72150346D01*
X177439070Y-72135930D01*
X177424654Y-72120024D01*
X177411866Y-72102781D01*
X177400830Y-72084368D01*
X177391651Y-72064962D01*
X177384419Y-72044750D01*
X177379203Y-72023926D01*
X177376053Y-72002691D01*
X177375000Y-71981250D01*
X177375000Y-71468750D01*
X177376053Y-71447309D01*
X177379203Y-71426074D01*
X177384419Y-71405250D01*
X177391651Y-71385038D01*
X177400830Y-71365632D01*
X177411866Y-71347219D01*
X177424654Y-71329976D01*
X177439070Y-71314070D01*
X177454976Y-71299654D01*
X177472219Y-71286866D01*
X177490632Y-71275830D01*
X177510038Y-71266651D01*
X177530250Y-71259419D01*
X177551074Y-71254203D01*
X177572309Y-71251053D01*
X177593750Y-71250000D01*
X178031250Y-71250000D01*
X178052691Y-71251053D01*
X178052691Y-71251053D01*
G37*
D14*
G04 #@! TD*
G04 #@! TO.P,R8,1*
G04 #@! TO.N,SW4*
X177812500Y-71725000D03*
D13*
G04 #@! TO.N,BAT1_C-*
G04 #@! TO.C,R8*
G36*
X176477691Y-71251053D02*
X176498926Y-71254203D01*
X176519750Y-71259419D01*
X176539962Y-71266651D01*
X176559368Y-71275830D01*
X176577781Y-71286866D01*
X176595024Y-71299654D01*
X176610930Y-71314070D01*
X176625346Y-71329976D01*
X176638134Y-71347219D01*
X176649170Y-71365632D01*
X176658349Y-71385038D01*
X176665581Y-71405250D01*
X176670797Y-71426074D01*
X176673947Y-71447309D01*
X176675000Y-71468750D01*
X176675000Y-71981250D01*
X176673947Y-72002691D01*
X176670797Y-72023926D01*
X176665581Y-72044750D01*
X176658349Y-72064962D01*
X176649170Y-72084368D01*
X176638134Y-72102781D01*
X176625346Y-72120024D01*
X176610930Y-72135930D01*
X176595024Y-72150346D01*
X176577781Y-72163134D01*
X176559368Y-72174170D01*
X176539962Y-72183349D01*
X176519750Y-72190581D01*
X176498926Y-72195797D01*
X176477691Y-72198947D01*
X176456250Y-72200000D01*
X176018750Y-72200000D01*
X175997309Y-72198947D01*
X175976074Y-72195797D01*
X175955250Y-72190581D01*
X175935038Y-72183349D01*
X175915632Y-72174170D01*
X175897219Y-72163134D01*
X175879976Y-72150346D01*
X175864070Y-72135930D01*
X175849654Y-72120024D01*
X175836866Y-72102781D01*
X175825830Y-72084368D01*
X175816651Y-72064962D01*
X175809419Y-72044750D01*
X175804203Y-72023926D01*
X175801053Y-72002691D01*
X175800000Y-71981250D01*
X175800000Y-71468750D01*
X175801053Y-71447309D01*
X175804203Y-71426074D01*
X175809419Y-71405250D01*
X175816651Y-71385038D01*
X175825830Y-71365632D01*
X175836866Y-71347219D01*
X175849654Y-71329976D01*
X175864070Y-71314070D01*
X175879976Y-71299654D01*
X175897219Y-71286866D01*
X175915632Y-71275830D01*
X175935038Y-71266651D01*
X175955250Y-71259419D01*
X175976074Y-71254203D01*
X175997309Y-71251053D01*
X176018750Y-71250000D01*
X176456250Y-71250000D01*
X176477691Y-71251053D01*
X176477691Y-71251053D01*
G37*
D14*
G04 #@! TD*
G04 #@! TO.P,R8,2*
G04 #@! TO.N,BAT1_C-*
X176237500Y-71725000D03*
D13*
G04 #@! TO.N,OUT+*
G04 #@! TO.C,R9*
G36*
X179838642Y-72568674D02*
X179862303Y-72572184D01*
X179885507Y-72577996D01*
X179908029Y-72586054D01*
X179929653Y-72596282D01*
X179950170Y-72608579D01*
X179969383Y-72622829D01*
X179987107Y-72638893D01*
X180003171Y-72656617D01*
X180017421Y-72675830D01*
X180029718Y-72696347D01*
X180039946Y-72717971D01*
X180048004Y-72740493D01*
X180053816Y-72763697D01*
X180057326Y-72787358D01*
X180058500Y-72811250D01*
X180058500Y-73723750D01*
X180057326Y-73747642D01*
X180053816Y-73771303D01*
X180048004Y-73794507D01*
X180039946Y-73817029D01*
X180029718Y-73838653D01*
X180017421Y-73859170D01*
X180003171Y-73878383D01*
X179987107Y-73896107D01*
X179969383Y-73912171D01*
X179950170Y-73926421D01*
X179929653Y-73938718D01*
X179908029Y-73948946D01*
X179885507Y-73957004D01*
X179862303Y-73962816D01*
X179838642Y-73966326D01*
X179814750Y-73967500D01*
X179327250Y-73967500D01*
X179303358Y-73966326D01*
X179279697Y-73962816D01*
X179256493Y-73957004D01*
X179233971Y-73948946D01*
X179212347Y-73938718D01*
X179191830Y-73926421D01*
X179172617Y-73912171D01*
X179154893Y-73896107D01*
X179138829Y-73878383D01*
X179124579Y-73859170D01*
X179112282Y-73838653D01*
X179102054Y-73817029D01*
X179093996Y-73794507D01*
X179088184Y-73771303D01*
X179084674Y-73747642D01*
X179083500Y-73723750D01*
X179083500Y-72811250D01*
X179084674Y-72787358D01*
X179088184Y-72763697D01*
X179093996Y-72740493D01*
X179102054Y-72717971D01*
X179112282Y-72696347D01*
X179124579Y-72675830D01*
X179138829Y-72656617D01*
X179154893Y-72638893D01*
X179172617Y-72622829D01*
X179191830Y-72608579D01*
X179212347Y-72596282D01*
X179233971Y-72586054D01*
X179256493Y-72577996D01*
X179279697Y-72572184D01*
X179303358Y-72568674D01*
X179327250Y-72567500D01*
X179814750Y-72567500D01*
X179838642Y-72568674D01*
X179838642Y-72568674D01*
G37*
D18*
G04 #@! TD*
G04 #@! TO.P,R9,1*
G04 #@! TO.N,OUT+*
X179571000Y-73267500D03*
D13*
G04 #@! TO.N,BAT1_D-*
G04 #@! TO.C,R9*
G36*
X181713642Y-72568674D02*
X181737303Y-72572184D01*
X181760507Y-72577996D01*
X181783029Y-72586054D01*
X181804653Y-72596282D01*
X181825170Y-72608579D01*
X181844383Y-72622829D01*
X181862107Y-72638893D01*
X181878171Y-72656617D01*
X181892421Y-72675830D01*
X181904718Y-72696347D01*
X181914946Y-72717971D01*
X181923004Y-72740493D01*
X181928816Y-72763697D01*
X181932326Y-72787358D01*
X181933500Y-72811250D01*
X181933500Y-73723750D01*
X181932326Y-73747642D01*
X181928816Y-73771303D01*
X181923004Y-73794507D01*
X181914946Y-73817029D01*
X181904718Y-73838653D01*
X181892421Y-73859170D01*
X181878171Y-73878383D01*
X181862107Y-73896107D01*
X181844383Y-73912171D01*
X181825170Y-73926421D01*
X181804653Y-73938718D01*
X181783029Y-73948946D01*
X181760507Y-73957004D01*
X181737303Y-73962816D01*
X181713642Y-73966326D01*
X181689750Y-73967500D01*
X181202250Y-73967500D01*
X181178358Y-73966326D01*
X181154697Y-73962816D01*
X181131493Y-73957004D01*
X181108971Y-73948946D01*
X181087347Y-73938718D01*
X181066830Y-73926421D01*
X181047617Y-73912171D01*
X181029893Y-73896107D01*
X181013829Y-73878383D01*
X180999579Y-73859170D01*
X180987282Y-73838653D01*
X180977054Y-73817029D01*
X180968996Y-73794507D01*
X180963184Y-73771303D01*
X180959674Y-73747642D01*
X180958500Y-73723750D01*
X180958500Y-72811250D01*
X180959674Y-72787358D01*
X180963184Y-72763697D01*
X180968996Y-72740493D01*
X180977054Y-72717971D01*
X180987282Y-72696347D01*
X180999579Y-72675830D01*
X181013829Y-72656617D01*
X181029893Y-72638893D01*
X181047617Y-72622829D01*
X181066830Y-72608579D01*
X181087347Y-72596282D01*
X181108971Y-72586054D01*
X181131493Y-72577996D01*
X181154697Y-72572184D01*
X181178358Y-72568674D01*
X181202250Y-72567500D01*
X181689750Y-72567500D01*
X181713642Y-72568674D01*
X181713642Y-72568674D01*
G37*
D18*
G04 #@! TD*
G04 #@! TO.P,R9,2*
G04 #@! TO.N,BAT1_D-*
X181446000Y-73267500D03*
D13*
G04 #@! TO.N,SW4*
G04 #@! TO.C,J6*
G36*
X187374505Y-66001204D02*
X187398773Y-66004804D01*
X187422572Y-66010765D01*
X187445671Y-66019030D01*
X187467850Y-66029520D01*
X187488893Y-66042132D01*
X187508599Y-66056747D01*
X187526777Y-66073223D01*
X187543253Y-66091401D01*
X187557868Y-66111107D01*
X187570480Y-66132150D01*
X187580970Y-66154329D01*
X187589235Y-66177428D01*
X187595196Y-66201227D01*
X187598796Y-66225495D01*
X187600000Y-66249999D01*
X187600000Y-66950001D01*
X187598796Y-66974505D01*
X187595196Y-66998773D01*
X187589235Y-67022572D01*
X187580970Y-67045671D01*
X187570480Y-67067850D01*
X187557868Y-67088893D01*
X187543253Y-67108599D01*
X187526777Y-67126777D01*
X187508599Y-67143253D01*
X187488893Y-67157868D01*
X187467850Y-67170480D01*
X187445671Y-67180970D01*
X187422572Y-67189235D01*
X187398773Y-67195196D01*
X187374505Y-67198796D01*
X187350001Y-67200000D01*
X186099999Y-67200000D01*
X186075495Y-67198796D01*
X186051227Y-67195196D01*
X186027428Y-67189235D01*
X186004329Y-67180970D01*
X185982150Y-67170480D01*
X185961107Y-67157868D01*
X185941401Y-67143253D01*
X185923223Y-67126777D01*
X185906747Y-67108599D01*
X185892132Y-67088893D01*
X185879520Y-67067850D01*
X185869030Y-67045671D01*
X185860765Y-67022572D01*
X185854804Y-66998773D01*
X185851204Y-66974505D01*
X185850000Y-66950001D01*
X185850000Y-66249999D01*
X185851204Y-66225495D01*
X185854804Y-66201227D01*
X185860765Y-66177428D01*
X185869030Y-66154329D01*
X185879520Y-66132150D01*
X185892132Y-66111107D01*
X185906747Y-66091401D01*
X185923223Y-66073223D01*
X185941401Y-66056747D01*
X185961107Y-66042132D01*
X185982150Y-66029520D01*
X186004329Y-66019030D01*
X186027428Y-66010765D01*
X186051227Y-66004804D01*
X186075495Y-66001204D01*
X186099999Y-66000000D01*
X187350001Y-66000000D01*
X187374505Y-66001204D01*
X187374505Y-66001204D01*
G37*
D23*
G04 #@! TD*
G04 #@! TO.P,J6,1*
G04 #@! TO.N,SW4*
X186725000Y-66600000D03*
D24*
G04 #@! TO.P,J6,2*
G04 #@! TO.N,SW2*
X186725000Y-64600000D03*
G04 #@! TO.P,J6,3*
G04 #@! TO.N,SW3*
X186725000Y-62600000D03*
G04 #@! TO.P,J6,4*
G04 #@! TO.N,SW1*
X186725000Y-60600000D03*
G04 #@! TO.P,J6,5*
G04 #@! TO.N,Net-(D17-Pad1)*
X186725000Y-58600000D03*
G04 #@! TD*
D25*
G04 #@! TO.P,D3,2*
G04 #@! TO.N,Net-(D14-Pad2)*
X157600000Y-71075000D03*
G04 #@! TO.P,D3,*
G04 #@! TO.N,*
X157600000Y-69175000D03*
G04 #@! TO.P,D3,1*
G04 #@! TO.N,CHRG+*
X155600000Y-70125000D03*
G04 #@! TD*
G04 #@! TO.P,D5,2*
G04 #@! TO.N,Net-(D13-Pad2)*
X116040000Y-93458000D03*
G04 #@! TO.P,D5,*
G04 #@! TO.N,*
X116040000Y-91558000D03*
G04 #@! TO.P,D5,1*
G04 #@! TO.N,BAT1+*
X114040000Y-92508000D03*
G04 #@! TD*
G04 #@! TO.P,D9,1*
G04 #@! TO.N,BAT2+*
X114040000Y-52600000D03*
G04 #@! TO.P,D9,*
G04 #@! TO.N,*
X116040000Y-51650000D03*
G04 #@! TO.P,D9,2*
G04 #@! TO.N,Net-(D15-Pad2)*
X116040000Y-53550000D03*
G04 #@! TD*
G04 #@! TO.P,D11,1*
G04 #@! TO.N,CHRG+*
X171575000Y-71075000D03*
G04 #@! TO.P,D11,*
G04 #@! TO.N,*
X173575000Y-70125000D03*
G04 #@! TO.P,D11,2*
G04 #@! TO.N,Net-(D11-Pad2)*
X173575000Y-72025000D03*
G04 #@! TD*
D22*
G04 #@! TO.P,D14,1*
G04 #@! TO.N,Net-(D14-Pad1)*
X160225000Y-65675000D03*
G04 #@! TO.P,D14,2*
G04 #@! TO.N,Net-(D14-Pad2)*
X160225000Y-61675000D03*
G04 #@! TD*
D25*
G04 #@! TO.P,D17,1*
G04 #@! TO.N,Net-(D17-Pad1)*
X183575000Y-56875000D03*
G04 #@! TO.P,D17,*
G04 #@! TO.N,*
X181575000Y-57825000D03*
G04 #@! TO.P,D17,2*
G04 #@! TO.N,BAT2+*
X181575000Y-55925000D03*
G04 #@! TD*
G04 #@! TO.P,D18,2*
G04 #@! TO.N,BAT1+*
X177450000Y-56075000D03*
G04 #@! TO.P,D18,*
G04 #@! TO.N,*
X177450000Y-57975000D03*
G04 #@! TO.P,D18,1*
G04 #@! TO.N,Net-(D17-Pad1)*
X179450000Y-57025000D03*
G04 #@! TD*
D26*
G04 #@! TO.N,BAT1_C-*
X162284000Y-60567500D03*
G04 #@! TO.N,CHRG+*
X171893256Y-64055187D03*
X164316000Y-55932000D03*
G04 #@! TO.N,BAT1_D-*
X104880000Y-92571500D03*
X120818500Y-93524000D03*
X110277500Y-88126500D03*
X122787000Y-54281000D03*
X127359000Y-54281000D03*
G04 #@! TO.N,BAT1+*
X132250000Y-49050000D03*
X150155500Y-56122500D03*
X152822500Y-56122500D03*
G04 #@! TO.N,BAT2+*
X131900000Y-42200000D03*
X110976000Y-42216000D03*
X151044500Y-40946000D03*
X168911662Y-62822982D03*
G04 #@! TO.N,SW3*
X117770500Y-54979500D03*
G04 #@! TO.N,SW2*
X162665000Y-71807000D03*
G04 #@! TO.N,Net-(Q2-Pad4)*
X154473500Y-63275000D03*
X149150000Y-43375000D03*
G04 #@! TO.N,Net-(Q3-Pad4)*
X117389501Y-50404000D03*
X117000000Y-64225000D03*
G04 #@! TO.N,Net-(Q4-Pad4)*
X171146739Y-65601697D03*
X189208000Y-55170000D03*
G04 #@! TD*
D27*
G04 #@! TO.N,BAT1_C-*
X102000000Y-42650000D02*
X102000000Y-49850000D01*
D28*
X148275000Y-63275000D02*
X149100000Y-64100000D01*
X148275000Y-58475000D02*
X148275000Y-63275000D01*
X149100000Y-66837500D02*
X148662500Y-67275000D01*
X149100000Y-64100000D02*
X149100000Y-66837500D01*
X148662500Y-69462500D02*
X149325000Y-70125000D01*
X148662500Y-67275000D02*
X148662500Y-69462500D01*
X152287500Y-66937500D02*
X152287500Y-67125000D01*
X149100000Y-64100000D02*
X149450000Y-64100000D01*
X149325000Y-71275000D02*
X150873000Y-72823000D01*
X149325000Y-70125000D02*
X149325000Y-71275000D01*
X159350000Y-71537500D02*
X159587500Y-71775000D01*
X159350000Y-67975000D02*
X159350000Y-71537500D01*
X152287500Y-67925000D02*
X152931000Y-68568500D01*
X152287500Y-67125000D02*
X152287500Y-67925000D01*
X156632500Y-69722498D02*
X156632500Y-72823000D01*
X155478502Y-68568500D02*
X156632500Y-69722498D01*
X152931000Y-68568500D02*
X155478502Y-68568500D01*
X150873000Y-72823000D02*
X156632500Y-72823000D01*
X156632500Y-72823000D02*
X158539500Y-72823000D01*
X164950000Y-65775000D02*
X165100000Y-65925000D01*
X164950000Y-60625000D02*
X164950000Y-65775000D01*
X176075000Y-71562500D02*
X176237500Y-71725000D01*
X176075000Y-67950000D02*
X176075000Y-71562500D01*
X164337500Y-70187500D02*
X165300000Y-71150000D01*
X164337500Y-68400000D02*
X164337500Y-70187500D01*
X165100000Y-67637500D02*
X164337500Y-68400000D01*
X165100000Y-65925000D02*
X165100000Y-67637500D01*
X175139500Y-72823000D02*
X176237500Y-71725000D01*
X172507500Y-70572498D02*
X172507500Y-72823000D01*
X171860001Y-69924999D02*
X172507500Y-70572498D01*
X169362499Y-69924999D02*
X171860001Y-69924999D01*
X168112500Y-68675000D02*
X169362499Y-69924999D01*
X172507500Y-72823000D02*
X175139500Y-72823000D01*
X163738500Y-60625000D02*
X164950000Y-60625000D01*
X159587500Y-72789000D02*
X159553500Y-72823000D01*
X159587500Y-71775000D02*
X159587500Y-72789000D01*
X158539500Y-72823000D02*
X159553500Y-72823000D01*
X159553500Y-72823000D02*
X164777000Y-72823000D01*
X165300000Y-72791000D02*
X165300000Y-71150000D01*
X165332000Y-72823000D02*
X165300000Y-72791000D01*
X165332000Y-72823000D02*
X172507500Y-72823000D01*
X164777000Y-72823000D02*
X165332000Y-72823000D01*
X162341500Y-60625000D02*
X162284000Y-60567500D01*
X164950000Y-60625000D02*
X162341500Y-60625000D01*
G04 #@! TO.N,CHRG+*
X149286000Y-48444000D02*
X149336000Y-48444000D01*
X149139500Y-48590500D02*
X149286000Y-48444000D01*
X155250000Y-62550000D02*
X155500000Y-62550000D01*
X153325000Y-70125000D02*
X155600000Y-70125000D01*
X153325000Y-70062500D02*
X153325000Y-70125000D01*
X150537500Y-67275000D02*
X153325000Y-70062500D01*
X169375000Y-71075000D02*
X169300000Y-71150000D01*
X171575000Y-71075000D02*
X169375000Y-71075000D01*
X168962500Y-71150000D02*
X169300000Y-71150000D01*
X166212500Y-68400000D02*
X168962500Y-71150000D01*
X172100000Y-65075000D02*
X172100000Y-64625000D01*
X150537500Y-62789000D02*
X150537500Y-67275000D01*
X150776500Y-62550000D02*
X150537500Y-62789000D01*
X155500000Y-62550000D02*
X151362000Y-62550000D01*
X151362000Y-62550000D02*
X150776500Y-62550000D01*
X172100000Y-64625000D02*
X171893256Y-64055187D01*
X155904000Y-47520000D02*
X164316000Y-55932000D01*
X151362000Y-62550000D02*
X151362000Y-47520000D01*
X151362000Y-47520000D02*
X155904000Y-47520000D01*
X171893256Y-64055187D02*
X171493257Y-63655188D01*
X171493257Y-63655188D02*
X171089510Y-63655188D01*
X171089510Y-63655188D02*
X169395983Y-61961661D01*
X166768737Y-67843763D02*
X166212500Y-68400000D01*
X166768737Y-63892905D02*
X166768737Y-67843763D01*
X168699981Y-61961661D02*
X166768737Y-63892905D01*
X169395983Y-61961661D02*
X168699981Y-61961661D01*
G04 #@! TO.N,BAT1_D-*
X103030000Y-86320000D02*
X102000000Y-87350000D01*
X106944000Y-91844500D02*
X106944000Y-92508000D01*
X103900000Y-87350000D02*
X102000000Y-87350000D01*
X106952000Y-88990500D02*
X106482500Y-89460000D01*
X106952000Y-86574000D02*
X106952000Y-88990500D01*
X106176000Y-87350000D02*
X106952000Y-86574000D01*
X102000000Y-87350000D02*
X106176000Y-87350000D01*
X106482500Y-92046500D02*
X106944000Y-92508000D01*
X106482500Y-89460000D02*
X106482500Y-92046500D01*
X119800000Y-93361500D02*
X119637500Y-93524000D01*
X119800000Y-91730000D02*
X119800000Y-93361500D01*
X102276000Y-79874000D02*
X102000000Y-80150000D01*
X107702000Y-79874000D02*
X102276000Y-79874000D01*
X106944000Y-92508000D02*
X105444000Y-92508000D01*
X105444000Y-92508000D02*
X104943500Y-92508000D01*
X104943500Y-92508000D02*
X104880000Y-92571500D01*
X119637500Y-93524000D02*
X120175000Y-93524000D01*
X120175000Y-93524000D02*
X120818500Y-93524000D01*
X110292500Y-89460000D02*
X110292500Y-88141500D01*
X110292500Y-88141500D02*
X110277500Y-88126500D01*
X107250000Y-44350000D02*
X107650000Y-44750000D01*
X107250000Y-38850000D02*
X107250000Y-44350000D01*
X107650000Y-47762500D02*
X106912500Y-48500000D01*
X107650000Y-44750000D02*
X107650000Y-47762500D01*
X120990000Y-54307500D02*
X120977500Y-54320000D01*
X120990000Y-52570000D02*
X120990000Y-54307500D01*
X106912500Y-51963500D02*
X107579000Y-52630000D01*
X121016500Y-54281000D02*
X120977500Y-54320000D01*
X122787000Y-54281000D02*
X121016500Y-54281000D01*
X107250000Y-38850000D02*
X109027500Y-37072500D01*
X109027500Y-37072500D02*
X120691500Y-37072500D01*
X120691500Y-37072500D02*
X127295500Y-43676500D01*
X127295500Y-43676500D02*
X127295500Y-54217500D01*
X127295500Y-54217500D02*
X127359000Y-54281000D01*
X107579000Y-51983500D02*
X107579000Y-52630000D01*
X107929000Y-52630000D02*
X107579000Y-52630000D01*
X107579000Y-53780000D02*
X105808000Y-55551000D01*
X107579000Y-52630000D02*
X107579000Y-53780000D01*
X105808000Y-55551000D02*
X94212000Y-55551000D01*
X92674999Y-57088001D02*
X92674999Y-78588499D01*
X94212000Y-55551000D02*
X92674999Y-57088001D01*
X94236500Y-80150000D02*
X102000000Y-80150000D01*
X92674999Y-78588499D02*
X94236500Y-80150000D01*
X106912500Y-48500000D02*
X106912500Y-49899500D01*
X182589000Y-80139000D02*
X182600000Y-80150000D01*
X110962500Y-49400000D02*
X110336000Y-50026500D01*
X110962500Y-48600000D02*
X110962500Y-49400000D01*
X110336000Y-50026500D02*
X106912500Y-50026500D01*
X106912500Y-49899500D02*
X106912500Y-50026500D01*
X106912500Y-50026500D02*
X106912500Y-51963500D01*
X181446000Y-73267500D02*
X182604000Y-73267500D01*
X182604000Y-73267500D02*
X183493000Y-74156500D01*
X183493000Y-74156500D02*
X183493000Y-77268000D01*
X182600000Y-78250000D02*
X182600000Y-80150000D01*
X183493000Y-77357000D02*
X182600000Y-78250000D01*
X183493000Y-77268000D02*
X183493000Y-77357000D01*
D27*
G04 #@! TO.N,BAT1+*
X134766000Y-46534000D02*
X132250000Y-49050000D01*
D28*
X155987500Y-60587500D02*
X155987500Y-60700000D01*
X153875000Y-58475000D02*
X155987500Y-60587500D01*
X153350000Y-63850000D02*
X153100000Y-64100000D01*
D27*
X143678500Y-46534000D02*
X134766000Y-46534000D01*
X146036000Y-46534000D02*
X143678500Y-46534000D01*
D28*
X153584500Y-58184500D02*
X153875000Y-58475000D01*
X155987500Y-61275000D02*
X155987500Y-60700000D01*
X156309490Y-61596990D02*
X155987500Y-61275000D01*
X156309490Y-63740510D02*
X156309490Y-61596990D01*
X156200000Y-63850000D02*
X156309490Y-63740510D01*
X155500000Y-63850000D02*
X156200000Y-63850000D01*
X110944000Y-92046500D02*
X110944000Y-92508000D01*
X110594000Y-92508000D02*
X110944000Y-92508000D01*
X108357500Y-90271500D02*
X110594000Y-92508000D01*
X108357500Y-89460000D02*
X108357500Y-90271500D01*
X114040000Y-92508000D02*
X110944000Y-92508000D01*
X102000000Y-68600000D02*
X105864000Y-68600000D01*
X105864000Y-68600000D02*
X110277500Y-73013500D01*
X113240000Y-85524000D02*
X112286500Y-84570500D01*
X112286500Y-84570500D02*
X110277500Y-84570500D01*
X113940000Y-85524000D02*
X113240000Y-85524000D01*
X110277500Y-73013500D02*
X110277500Y-84570500D01*
X146036000Y-46534000D02*
X146036000Y-55051000D01*
X146036000Y-55051000D02*
X147107500Y-56122500D01*
X147107500Y-56122500D02*
X150155500Y-56122500D01*
X152822500Y-57422500D02*
X153875000Y-58475000D01*
X152822500Y-56122500D02*
X152822500Y-57422500D01*
X110277500Y-84570500D02*
X109579000Y-84570500D01*
X109579000Y-84570500D02*
X108944000Y-85205500D01*
X108357500Y-89460000D02*
X108357500Y-88395500D01*
X108944000Y-87809000D02*
X108944000Y-85205500D01*
X108357500Y-88395500D02*
X108944000Y-87809000D01*
X153909500Y-64100000D02*
X152409500Y-64100000D01*
X155000000Y-64100000D02*
X153909500Y-64100000D01*
X155250000Y-63850000D02*
X155000000Y-64100000D01*
X155500000Y-63850000D02*
X155250000Y-63850000D01*
X162846006Y-58475000D02*
X155725000Y-58475000D01*
X177450000Y-56075000D02*
X165246006Y-56075000D01*
X155725000Y-58475000D02*
X153875000Y-58475000D01*
X165246006Y-56075000D02*
X162846006Y-58475000D01*
G04 #@! TO.N,OUT+*
X122700000Y-58390000D02*
X122650000Y-58390000D01*
X111202000Y-86824000D02*
X110952000Y-86574000D01*
X113940000Y-86824000D02*
X111202000Y-86824000D01*
X113302000Y-79874000D02*
X113302000Y-82923500D01*
X115650000Y-46930000D02*
X114950000Y-46930000D01*
X115725001Y-46854999D02*
X115650000Y-46930000D01*
X117615502Y-38850000D02*
X117616002Y-38850500D01*
X112850000Y-38850000D02*
X117615502Y-38850000D01*
X117616002Y-38850500D02*
X120501000Y-38850500D01*
X120501000Y-38850500D02*
X126152500Y-44502000D01*
X126152500Y-44502000D02*
X126152500Y-57646500D01*
X111579000Y-52630000D02*
X111163170Y-52630000D01*
X111929000Y-52630000D02*
X111579000Y-52630000D01*
X113940000Y-88195000D02*
X114189000Y-88444000D01*
X113940000Y-86824000D02*
X113940000Y-88195000D01*
X113838910Y-82923500D02*
X115299510Y-84384100D01*
X113302000Y-82923500D02*
X113838910Y-82923500D01*
X115299510Y-84384100D02*
X115299510Y-86406490D01*
X114882000Y-86824000D02*
X113940000Y-86824000D01*
X115299510Y-86406490D02*
X114882000Y-86824000D01*
X122650000Y-57790000D02*
X122650000Y-58390000D01*
X120665000Y-55805000D02*
X122650000Y-57790000D01*
X113604000Y-55805000D02*
X120665000Y-55805000D01*
X111579000Y-53780000D02*
X113604000Y-55805000D01*
X111579000Y-52630000D02*
X111579000Y-53780000D01*
X120112000Y-71132000D02*
X117024000Y-74220000D01*
X117024000Y-74220000D02*
X113960500Y-74220000D01*
X113302000Y-74878500D02*
X113302000Y-79874000D01*
X113960500Y-74220000D02*
X113302000Y-74878500D01*
X115362500Y-44583999D02*
X115725001Y-44946500D01*
X115362500Y-43740000D02*
X115362500Y-44583999D01*
X115725001Y-44946500D02*
X115725001Y-46854999D01*
X179571000Y-73267500D02*
X178730500Y-73267500D01*
X178730500Y-73267500D02*
X177714500Y-74283500D01*
X177714500Y-74283500D02*
X177714500Y-76125000D01*
X111579000Y-51480000D02*
X111579000Y-52630000D01*
X111928500Y-46978500D02*
X111928500Y-51130500D01*
X110277500Y-46407000D02*
X111357000Y-46407000D01*
X115362500Y-43165000D02*
X113688499Y-41490999D01*
X111357000Y-46407000D02*
X111928500Y-46978500D01*
X109793747Y-45923247D02*
X110277500Y-46407000D01*
X115362500Y-43740000D02*
X115362500Y-43165000D01*
X113688499Y-41490999D02*
X110240501Y-41490999D01*
X110240501Y-41490999D02*
X109793747Y-41937753D01*
X111928500Y-51130500D02*
X111579000Y-51480000D01*
X109793747Y-41937753D02*
X109793747Y-45923247D01*
G04 #@! TO.N,Net-(C5-Pad1)*
X154162500Y-67125000D02*
X157568000Y-67125000D01*
X157700000Y-66993000D02*
X157700000Y-63850000D01*
X157568000Y-67125000D02*
X157700000Y-66993000D01*
X157562500Y-60700000D02*
X156759500Y-61503000D01*
X157000000Y-63850000D02*
X157700000Y-63850000D01*
X156759500Y-63609500D02*
X157000000Y-63850000D01*
X156759500Y-61503000D02*
X156759500Y-63609500D01*
G04 #@! TO.N,Net-(C6-Pad1)*
X116140000Y-88068000D02*
X115764000Y-88444000D01*
X116140000Y-86824000D02*
X116140000Y-88068000D01*
X115764000Y-88444000D02*
X115764000Y-89307500D01*
X112167500Y-89460000D02*
X113071500Y-89460000D01*
X113071500Y-89460000D02*
X113516000Y-89904500D01*
X113516000Y-89904500D02*
X115421000Y-89904500D01*
X115764000Y-89561500D02*
X115764000Y-88444000D01*
X115421000Y-89904500D02*
X115764000Y-89561500D01*
G04 #@! TO.N,BAT2+*
X131884000Y-42216000D02*
X131900000Y-42200000D01*
D27*
X135318000Y-38782000D02*
X131900000Y-42200000D01*
D28*
X172875001Y-63937501D02*
X172875001Y-66299999D01*
X169679290Y-61495710D02*
X170550000Y-60625000D01*
X172412500Y-63475000D02*
X172875001Y-63937501D01*
X172300000Y-66575000D02*
X172100000Y-66375000D01*
X172600000Y-66575000D02*
X172300000Y-66575000D01*
X172412500Y-62900000D02*
X172412500Y-63475000D01*
X169624990Y-61550010D02*
X169679290Y-61495710D01*
X172875001Y-66299999D02*
X172600000Y-66575000D01*
X172412500Y-62487500D02*
X172412500Y-62900000D01*
X170550000Y-60625000D02*
X172412500Y-62487500D01*
X171400000Y-66825000D02*
X171850000Y-66375000D01*
X171850000Y-66375000D02*
X172100000Y-66375000D01*
X170350000Y-66825000D02*
X171400000Y-66825000D01*
X169450000Y-65925000D02*
X170350000Y-66825000D01*
X169100000Y-65925000D02*
X169450000Y-65925000D01*
D27*
X153648000Y-38782000D02*
X135318000Y-38782000D01*
D28*
X112837500Y-47087500D02*
X112837500Y-48600000D01*
X111650000Y-44750000D02*
X111650000Y-45900000D01*
X111650000Y-45900000D02*
X112837500Y-47087500D01*
X111650000Y-44750000D02*
X111650000Y-42890000D01*
X111650000Y-42890000D02*
X110976000Y-42216000D01*
X114040000Y-49802500D02*
X114040000Y-52600000D01*
X112837500Y-48600000D02*
X114040000Y-49802500D01*
X112530000Y-45630000D02*
X111650000Y-44750000D01*
X114950000Y-45630000D02*
X112530000Y-45630000D01*
X170550000Y-60625000D02*
X174163500Y-57011500D01*
X180875000Y-55925000D02*
X181575000Y-55925000D01*
X177948502Y-57011500D02*
X179035002Y-55925000D01*
X179035002Y-55925000D02*
X180875000Y-55925000D01*
X174163500Y-57011500D02*
X177948502Y-57011500D01*
X151044500Y-40882500D02*
X151044500Y-40946000D01*
X153145000Y-38782000D02*
X151044500Y-40882500D01*
X153648000Y-38782000D02*
X153145000Y-38782000D01*
X169100000Y-63011320D02*
X168911662Y-62822982D01*
X169100000Y-65925000D02*
X169100000Y-63011320D01*
X152750000Y-36740000D02*
X152750000Y-38010000D01*
G04 #@! TO.N,Net-(C11-Pad1)*
X116450000Y-46930000D02*
X117150000Y-46930000D01*
X116310000Y-46790000D02*
X116450000Y-46930000D01*
X116937500Y-44382500D02*
X116310000Y-45010000D01*
X116937500Y-43740000D02*
X116937500Y-44382500D01*
X116310000Y-46790000D02*
X116310000Y-45010000D01*
X116937500Y-41271000D02*
X116945000Y-41263500D01*
X116310000Y-40628500D02*
X110251474Y-40628500D01*
X116937500Y-43740000D02*
X116937500Y-41271000D01*
X108787500Y-47452500D02*
X108787500Y-48500000D01*
X116945000Y-41263500D02*
X116310000Y-40628500D01*
X108787500Y-46436500D02*
X108787500Y-47452500D01*
X110251474Y-40628500D02*
X109343737Y-41536237D01*
X109343737Y-45880263D02*
X108787500Y-46436500D01*
X109343737Y-41536237D02*
X109343737Y-45880263D01*
G04 #@! TO.N,Net-(C12-Pad1)*
X173600000Y-66375000D02*
X174300000Y-66375000D01*
X173524999Y-66299999D02*
X173600000Y-66375000D01*
X173987500Y-63475000D02*
X173524999Y-63937501D01*
X173987500Y-62900000D02*
X173987500Y-63475000D01*
X173524999Y-63937501D02*
X173524999Y-66299999D01*
X171300000Y-68675000D02*
X172507500Y-67467500D01*
X169987500Y-68675000D02*
X171300000Y-68675000D01*
X172325000Y-67650000D02*
X172507500Y-67467500D01*
X172507500Y-67467500D02*
X173600000Y-66375000D01*
G04 #@! TO.N,Net-(D11-Pad2)*
X173575000Y-72025000D02*
X174275000Y-72025000D01*
X176925000Y-62050000D02*
X175365000Y-63610000D01*
X176925000Y-61700000D02*
X176925000Y-62050000D01*
X175365000Y-65360000D02*
X175000000Y-65725000D01*
X175000000Y-65725000D02*
X174300000Y-65725000D01*
X175365000Y-63610000D02*
X175365000Y-65360000D01*
X175349999Y-66074999D02*
X175000000Y-65725000D01*
X175349999Y-70950001D02*
X175349999Y-66074999D01*
X174275000Y-72025000D02*
X175349999Y-70950001D01*
G04 #@! TO.N,Net-(D14-Pad2)*
X158400000Y-63200000D02*
X157700000Y-63200000D01*
X159050000Y-63200000D02*
X158400000Y-63200000D01*
X160225000Y-62025000D02*
X159050000Y-63200000D01*
X160225000Y-61675000D02*
X160225000Y-62025000D01*
X158475001Y-63275001D02*
X158400000Y-63200000D01*
X158475001Y-70899999D02*
X158475001Y-63275001D01*
X158300000Y-71075000D02*
X158475001Y-70899999D01*
X157600000Y-71075000D02*
X158300000Y-71075000D01*
G04 #@! TO.N,Net-(D13-Pad2)*
X117675000Y-83650000D02*
X118850000Y-83650000D01*
X117389500Y-85624500D02*
X117389500Y-83935500D01*
X117389500Y-83935500D02*
X117675000Y-83650000D01*
X116140000Y-86174000D02*
X116840000Y-86174000D01*
X116840000Y-86174000D02*
X117389500Y-85624500D01*
X116090000Y-93458000D02*
X116040000Y-93458000D01*
X117008500Y-92539500D02*
X116090000Y-93458000D01*
X117008500Y-86342500D02*
X117008500Y-92539500D01*
X116840000Y-86174000D02*
X117008500Y-86342500D01*
G04 #@! TO.N,Net-(D15-Pad2)*
X118406500Y-46280000D02*
X120183500Y-44503000D01*
X120183500Y-44503000D02*
X120183500Y-44153000D01*
X117150000Y-46280000D02*
X117961000Y-46280000D01*
X116090000Y-53550000D02*
X116040000Y-53550000D01*
X118114501Y-46306501D02*
X118114501Y-51525499D01*
X118114501Y-51525499D02*
X116090000Y-53550000D01*
X118088000Y-46280000D02*
X118114501Y-46306501D01*
X118088000Y-46280000D02*
X118406500Y-46280000D01*
X117961000Y-46280000D02*
X118088000Y-46280000D01*
G04 #@! TO.N,Net-(D13-Pad1)*
X118850000Y-89730000D02*
X118850000Y-87650000D01*
G04 #@! TO.N,Net-(D14-Pad1)*
X160225000Y-69900000D02*
X160300000Y-69975000D01*
X160225000Y-65675000D02*
X160225000Y-69900000D01*
G04 #@! TO.N,Net-(D15-Pad1)*
X120183500Y-50426500D02*
X120040000Y-50570000D01*
X120183500Y-48153000D02*
X120183500Y-50426500D01*
G04 #@! TO.N,Net-(D16-Pad1)*
X176900000Y-65725000D02*
X176925000Y-65700000D01*
X176925000Y-69850000D02*
X177025000Y-69950000D01*
X176925000Y-65700000D02*
X176925000Y-69850000D01*
G04 #@! TO.N,Net-(D17-Pad1)*
X183425000Y-57025000D02*
X183575000Y-56875000D01*
X179450000Y-57025000D02*
X183425000Y-57025000D01*
X186725000Y-57750000D02*
X186725000Y-58600000D01*
X185850000Y-56875000D02*
X186725000Y-57750000D01*
X183575000Y-56875000D02*
X185850000Y-56875000D01*
G04 #@! TO.N,SW4*
X177975000Y-71562500D02*
X177812500Y-71725000D01*
X177975000Y-67950000D02*
X177975000Y-71562500D01*
X177975000Y-67900000D02*
X177975000Y-67950000D01*
X186725000Y-66600000D02*
X182731000Y-66600000D01*
X181381000Y-67950000D02*
X177975000Y-67950000D01*
X182731000Y-66600000D02*
X181381000Y-67950000D01*
G04 #@! TO.N,SW3*
X119090000Y-54007500D02*
X119402500Y-54320000D01*
X119090000Y-52570000D02*
X119090000Y-54007500D01*
X119402500Y-54320000D02*
X118430000Y-54320000D01*
X118430000Y-54320000D02*
X117770500Y-54979500D01*
G04 #@! TO.N,SW2*
X161250000Y-71687500D02*
X161162500Y-71775000D01*
X161250000Y-67975000D02*
X161250000Y-71687500D01*
X161162500Y-71775000D02*
X162633000Y-71775000D01*
X162633000Y-71775000D02*
X162665000Y-71807000D01*
G04 #@! TO.N,SW1*
X118062500Y-91892500D02*
X117900000Y-91730000D01*
X118062500Y-93524000D02*
X118062500Y-91892500D01*
X119138490Y-94599990D02*
X188703510Y-94599990D01*
X118062500Y-93524000D02*
X119138490Y-94599990D01*
X187850000Y-60600000D02*
X186725000Y-60600000D01*
X191113000Y-92190500D02*
X191113000Y-62345500D01*
X188703510Y-94599990D02*
X191113000Y-92190500D01*
X189367500Y-60600000D02*
X187850000Y-60600000D01*
X191113000Y-62345500D02*
X189367500Y-60600000D01*
G04 #@! TO.N,Net-(Q1-Pad4)*
X114640000Y-86174000D02*
X113940000Y-86174000D01*
X114849500Y-85964500D02*
X114640000Y-86174000D01*
X114151000Y-83872000D02*
X114849500Y-84570500D01*
X114849500Y-84570500D02*
X114849500Y-85964500D01*
X110776981Y-83690019D02*
X110958962Y-83872000D01*
X110958962Y-83872000D02*
X114151000Y-83872000D01*
X110776981Y-83690019D02*
X110776981Y-74165019D01*
X110776981Y-74165019D02*
X111293500Y-73648500D01*
X116825000Y-70735000D02*
X116825000Y-73200000D01*
X116376500Y-73648500D02*
X111293500Y-73648500D01*
X116825000Y-73200000D02*
X116376500Y-73648500D01*
G04 #@! TO.N,Net-(Q2-Pad4)*
X155500000Y-63200000D02*
X154548500Y-63200000D01*
X154548500Y-63200000D02*
X154473500Y-63275000D01*
X149150000Y-44515000D02*
X149175000Y-44540000D01*
X149150000Y-43375000D02*
X149150000Y-44515000D01*
G04 #@! TO.N,Net-(Q3-Pad4)*
X114950000Y-46280000D02*
X114250000Y-46280000D01*
X114024000Y-46506000D02*
X114024000Y-48756500D01*
X114250000Y-46280000D02*
X114024000Y-46506000D01*
X115271501Y-50004001D02*
X114659000Y-49391500D01*
X116989502Y-50004001D02*
X115271501Y-50004001D01*
X117389501Y-50404000D02*
X116989502Y-50004001D01*
X114024000Y-48756500D02*
X114659000Y-49391500D01*
X117000000Y-62535000D02*
X117025000Y-62510000D01*
X117000000Y-64225000D02*
X117000000Y-62535000D01*
G04 #@! TO.N,Net-(Q4-Pad4)*
X172100000Y-65725000D02*
X171270042Y-65725000D01*
X171270042Y-65725000D02*
X171146739Y-65601697D01*
X159378000Y-35612000D02*
X158250000Y-36740000D01*
X188954000Y-35612000D02*
X159378000Y-35612000D01*
X191240000Y-37898000D02*
X188954000Y-35612000D01*
X191240000Y-53900000D02*
X191240000Y-37898000D01*
X189208000Y-55170000D02*
X189970000Y-55170000D01*
X189970000Y-55170000D02*
X191240000Y-53900000D01*
G04 #@! TD*
D29*
G04 #@! TO.N,BAT1+*
G36*
X117199000Y-69737560D02*
X116425000Y-69737560D01*
X116177235Y-69786843D01*
X115967191Y-69927191D01*
X115826843Y-70137235D01*
X115777560Y-70385000D01*
X115777560Y-71085000D01*
X115826843Y-71332765D01*
X115967191Y-71542809D01*
X116065000Y-71608164D01*
X116065001Y-72823000D01*
X98403000Y-72823000D01*
X98403000Y-65457000D01*
X117199000Y-65457000D01*
X117199000Y-69737560D01*
X117199000Y-69737560D01*
G37*
X117199000Y-69737560D02*
X116425000Y-69737560D01*
X116177235Y-69786843D01*
X115967191Y-69927191D01*
X115826843Y-70137235D01*
X115777560Y-70385000D01*
X115777560Y-71085000D01*
X115826843Y-71332765D01*
X115967191Y-71542809D01*
X116065000Y-71608164D01*
X116065001Y-72823000D01*
X98403000Y-72823000D01*
X98403000Y-65457000D01*
X117199000Y-65457000D01*
X117199000Y-69737560D01*
G04 #@! TO.N,CHRG+*
G36*
X179959005Y-46114594D02*
X179999836Y-46142673D01*
X180049501Y-46152999D01*
X186033000Y-46176502D01*
X186033000Y-54027000D01*
X148443240Y-54027000D01*
X148528381Y-49156954D01*
X148668157Y-48947765D01*
X148717440Y-48700000D01*
X148717440Y-46560052D01*
X148722622Y-46534000D01*
X148717440Y-46507948D01*
X148717440Y-45525991D01*
X148775000Y-45537440D01*
X149575000Y-45537440D01*
X149822765Y-45488157D01*
X150032809Y-45347809D01*
X150173157Y-45137765D01*
X150222440Y-44890000D01*
X150222440Y-44190000D01*
X150173157Y-43942235D01*
X150088067Y-43814890D01*
X150185000Y-43580874D01*
X150185000Y-43169126D01*
X150027431Y-42788720D01*
X149736280Y-42497569D01*
X149355874Y-42340000D01*
X148944126Y-42340000D01*
X148645395Y-42463738D01*
X148663694Y-41417000D01*
X150119319Y-41417000D01*
X150167069Y-41532280D01*
X150458220Y-41823431D01*
X150838626Y-41981000D01*
X151250374Y-41981000D01*
X151630780Y-41823431D01*
X151921931Y-41532280D01*
X151968842Y-41419026D01*
X152102235Y-41508157D01*
X152350000Y-41557440D01*
X153150000Y-41557440D01*
X153200274Y-41547440D01*
X157145000Y-41547440D01*
X157392765Y-41498157D01*
X157602809Y-41357809D01*
X157743157Y-41147765D01*
X157792440Y-40900000D01*
X157792440Y-37725991D01*
X157850000Y-37737440D01*
X158650000Y-37737440D01*
X158897765Y-37688157D01*
X159107809Y-37547809D01*
X159248157Y-37337765D01*
X159297440Y-37090000D01*
X159297440Y-36767361D01*
X159692802Y-36372000D01*
X170473400Y-36372000D01*
X179959005Y-46114594D01*
X179959005Y-46114594D01*
G37*
X179959005Y-46114594D02*
X179999836Y-46142673D01*
X180049501Y-46152999D01*
X186033000Y-46176502D01*
X186033000Y-54027000D01*
X148443240Y-54027000D01*
X148528381Y-49156954D01*
X148668157Y-48947765D01*
X148717440Y-48700000D01*
X148717440Y-46560052D01*
X148722622Y-46534000D01*
X148717440Y-46507948D01*
X148717440Y-45525991D01*
X148775000Y-45537440D01*
X149575000Y-45537440D01*
X149822765Y-45488157D01*
X150032809Y-45347809D01*
X150173157Y-45137765D01*
X150222440Y-44890000D01*
X150222440Y-44190000D01*
X150173157Y-43942235D01*
X150088067Y-43814890D01*
X150185000Y-43580874D01*
X150185000Y-43169126D01*
X150027431Y-42788720D01*
X149736280Y-42497569D01*
X149355874Y-42340000D01*
X148944126Y-42340000D01*
X148645395Y-42463738D01*
X148663694Y-41417000D01*
X150119319Y-41417000D01*
X150167069Y-41532280D01*
X150458220Y-41823431D01*
X150838626Y-41981000D01*
X151250374Y-41981000D01*
X151630780Y-41823431D01*
X151921931Y-41532280D01*
X151968842Y-41419026D01*
X152102235Y-41508157D01*
X152350000Y-41557440D01*
X153150000Y-41557440D01*
X153200274Y-41547440D01*
X157145000Y-41547440D01*
X157392765Y-41498157D01*
X157602809Y-41357809D01*
X157743157Y-41147765D01*
X157792440Y-40900000D01*
X157792440Y-37725991D01*
X157850000Y-37737440D01*
X158650000Y-37737440D01*
X158897765Y-37688157D01*
X159107809Y-37547809D01*
X159248157Y-37337765D01*
X159297440Y-37090000D01*
X159297440Y-36767361D01*
X159692802Y-36372000D01*
X170473400Y-36372000D01*
X179959005Y-46114594D01*
G04 #@! TO.N,OUT+*
G36*
X144186501Y-70282453D02*
X144195959Y-70331095D01*
X144228891Y-70377712D01*
X148991391Y-74632212D01*
X149034076Y-74657381D01*
X149076219Y-74664500D01*
X181173192Y-74609160D01*
X181202250Y-74614940D01*
X181689750Y-74614940D01*
X181723578Y-74608211D01*
X182733000Y-74606471D01*
X182733001Y-77042197D01*
X182660198Y-77115000D01*
X181996301Y-77115000D01*
X180880811Y-77577051D01*
X180027051Y-78430811D01*
X179565000Y-79546301D01*
X179565000Y-80753699D01*
X180027051Y-81869189D01*
X180880811Y-82722949D01*
X181996301Y-83185000D01*
X183203699Y-83185000D01*
X184319189Y-82722949D01*
X185172949Y-81869189D01*
X185635000Y-80753699D01*
X185635000Y-79546301D01*
X185172949Y-78430811D01*
X184319189Y-77577051D01*
X184231355Y-77540669D01*
X184247929Y-77457345D01*
X184253000Y-77431851D01*
X184253000Y-77431848D01*
X184267888Y-77357000D01*
X184253000Y-77282152D01*
X184253000Y-74603850D01*
X185779000Y-74601219D01*
X185779000Y-93839990D01*
X121807889Y-93839990D01*
X121853500Y-93729874D01*
X121853500Y-93318126D01*
X121771000Y-93118953D01*
X121771000Y-79554000D01*
X121761333Y-79505399D01*
X121745271Y-79477363D01*
X118215000Y-74812362D01*
X118215000Y-55915658D01*
X118356780Y-55856931D01*
X118410266Y-55803445D01*
X144249449Y-55678618D01*
X144186501Y-70282453D01*
X144186501Y-70282453D01*
G37*
X144186501Y-70282453D02*
X144195959Y-70331095D01*
X144228891Y-70377712D01*
X148991391Y-74632212D01*
X149034076Y-74657381D01*
X149076219Y-74664500D01*
X181173192Y-74609160D01*
X181202250Y-74614940D01*
X181689750Y-74614940D01*
X181723578Y-74608211D01*
X182733000Y-74606471D01*
X182733001Y-77042197D01*
X182660198Y-77115000D01*
X181996301Y-77115000D01*
X180880811Y-77577051D01*
X180027051Y-78430811D01*
X179565000Y-79546301D01*
X179565000Y-80753699D01*
X180027051Y-81869189D01*
X180880811Y-82722949D01*
X181996301Y-83185000D01*
X183203699Y-83185000D01*
X184319189Y-82722949D01*
X185172949Y-81869189D01*
X185635000Y-80753699D01*
X185635000Y-79546301D01*
X185172949Y-78430811D01*
X184319189Y-77577051D01*
X184231355Y-77540669D01*
X184247929Y-77457345D01*
X184253000Y-77431851D01*
X184253000Y-77431848D01*
X184267888Y-77357000D01*
X184253000Y-77282152D01*
X184253000Y-74603850D01*
X185779000Y-74601219D01*
X185779000Y-93839990D01*
X121807889Y-93839990D01*
X121853500Y-93729874D01*
X121853500Y-93318126D01*
X121771000Y-93118953D01*
X121771000Y-79554000D01*
X121761333Y-79505399D01*
X121745271Y-79477363D01*
X118215000Y-74812362D01*
X118215000Y-55915658D01*
X118356780Y-55856931D01*
X118410266Y-55803445D01*
X144249449Y-55678618D01*
X144186501Y-70282453D01*
G04 #@! TO.N,BAT2+*
G36*
X117453000Y-61518129D02*
X117425000Y-61512560D01*
X116625000Y-61512560D01*
X116377235Y-61561843D01*
X116167191Y-61702191D01*
X116026843Y-61912235D01*
X115977560Y-62160000D01*
X115977560Y-62860000D01*
X116026843Y-63107765D01*
X116167191Y-63317809D01*
X116240001Y-63366459D01*
X116240000Y-63521289D01*
X116122569Y-63638720D01*
X115965000Y-64019126D01*
X115965000Y-64187000D01*
X98407455Y-64187000D01*
X98652697Y-57075000D01*
X117453000Y-57075000D01*
X117453000Y-61518129D01*
X117453000Y-61518129D01*
G37*
X117453000Y-61518129D02*
X117425000Y-61512560D01*
X116625000Y-61512560D01*
X116377235Y-61561843D01*
X116167191Y-61702191D01*
X116026843Y-61912235D01*
X115977560Y-62160000D01*
X115977560Y-62860000D01*
X116026843Y-63107765D01*
X116167191Y-63317809D01*
X116240001Y-63366459D01*
X116240000Y-63521289D01*
X116122569Y-63638720D01*
X115965000Y-64019126D01*
X115965000Y-64187000D01*
X98407455Y-64187000D01*
X98652697Y-57075000D01*
X117453000Y-57075000D01*
X117453000Y-61518129D01*
G04 #@! TD*
M02*
