M48
;DRILL file {KiCad 5.0.1} date Sun Apr  7 22:06:44 2019
;FORMAT={-:-/ absolute / inch / decimal}
FMAT,2
INCH,TZ
T1C0.0157
T2C0.0295
T3C0.0315
T4C0.1102
%
G90
G05
M72
T1
X4.1291Y-3.6445
X4.3416Y-3.4695
X4.3691Y-1.662
X4.6063Y-2.5285
X4.6216Y-1.9844
X4.6366Y-2.1645
X4.7566Y-3.682
X4.8341Y-2.137
X5.0141Y-2.137
X5.1929Y-1.6614
X5.2067Y-1.9311
X5.872Y-1.7077
X5.9116Y-2.2095
X5.9466Y-1.612
X6.0166Y-2.2095
X6.0816Y-2.4911
X6.3891Y-2.3845
X6.4041Y-2.827
X6.4691Y-2.202
X6.6501Y-2.4733
X6.7381Y-2.5827
X6.7675Y-2.5219
X7.4491Y-2.172
X3.9409Y-2.4173
X3.9409Y-2.7008
X3.9628Y-2.3644
X3.9628Y-2.4702
X3.9628Y-2.6479
X3.9628Y-2.7537
X4.0157Y-2.3425
X4.0157Y-2.4921
X4.0157Y-2.626
X4.0157Y-2.7756
X4.0687Y-2.3644
X4.0687Y-2.4702
X4.0687Y-2.6479
X4.0687Y-2.7537
X4.0906Y-2.4173
X4.0906Y-2.7008
X7.1142Y-3.1555
X7.1142Y-3.439
X7.1361Y-3.1026
X7.1361Y-3.2084
X7.1361Y-3.3861
X7.1361Y-3.4919
X7.189Y-3.0807
X7.189Y-3.2303
X7.189Y-3.3642
X7.189Y-3.5138
X7.2419Y-3.1026
X7.2419Y-3.2084
X7.2419Y-3.3861
X7.2419Y-3.4919
X7.2638Y-3.1555
X7.2638Y-3.439
X7.1102Y-1.6791
X7.1102Y-1.9626
X7.1321Y-1.6262
X7.1321Y-1.732
X7.1321Y-1.9097
X7.1321Y-2.0155
X7.185Y-1.6043
X7.185Y-1.7539
X7.185Y-1.8878
X7.185Y-2.0374
X7.238Y-1.6262
X7.238Y-1.732
X7.238Y-1.9097
X7.238Y-2.0155
X7.2598Y-1.6791
X7.2598Y-1.9626
X3.9409Y-1.6791
X3.9409Y-1.9626
X3.9628Y-1.6262
X3.9628Y-1.732
X3.9628Y-1.9097
X3.9628Y-2.0155
X4.0157Y-1.6043
X4.0157Y-1.7539
X4.0157Y-1.8878
X4.0157Y-2.0374
X4.0687Y-1.6262
X4.0687Y-1.732
X4.0687Y-1.9097
X4.0687Y-2.0155
X4.0906Y-1.6791
X4.0906Y-1.9626
X3.9409Y-3.1555
X3.9409Y-3.439
X3.9628Y-3.1026
X3.9628Y-3.2084
X3.9628Y-3.3861
X3.9628Y-3.4919
X4.0157Y-3.0807
X4.0157Y-3.2303
X4.0157Y-3.3642
X4.0157Y-3.5138
X4.0687Y-3.1026
X4.0687Y-3.2084
X4.0687Y-3.3861
X4.0687Y-3.4919
X4.0906Y-3.1555
X4.0906Y-3.439
T2
X7.3514Y-2.3071
X7.3514Y-2.3858
X7.3514Y-2.4646
X7.3514Y-2.5433
X7.3514Y-2.622
T4
X4.0157Y-1.6791
X4.0157Y-1.9626
X4.0157Y-3.1555
X4.0157Y-3.439
X4.0157Y-2.4173
X4.0157Y-2.7008
X7.189Y-3.1555
X7.189Y-3.439
X7.185Y-1.6791
X7.185Y-1.9626
T3
X3.7598Y-2.2933G85X3.7992Y-2.2933
G05
X3.7598Y-2.8248G85X3.7992Y-2.8248
G05
X7.4449Y-3.0315G85X7.4055Y-3.0315
G05
X7.4449Y-3.563G85X7.4055Y-3.563
G05
X7.4409Y-1.5551G85X7.4016Y-1.5551
G05
X7.4409Y-2.0866G85X7.4016Y-2.0866
G05
X3.7598Y-1.5551G85X3.7992Y-1.5551
G05
X3.7598Y-2.0866G85X3.7992Y-2.0866
G05
X3.7598Y-3.0315G85X3.7992Y-3.0315
G05
X3.7598Y-3.563G85X3.7992Y-3.563
G05
T0
M30
