G04 #@! TF.GenerationSoftware,KiCad,Pcbnew,5.0.1*
G04 #@! TF.CreationDate,2019-04-07T22:06:23+02:00*
G04 #@! TF.ProjectId,ppboard,7070626F6172642E6B696361645F7063,rev?*
G04 #@! TF.SameCoordinates,Original*
G04 #@! TF.FileFunction,Legend,Bot*
G04 #@! TF.FilePolarity,Positive*
%FSLAX46Y46*%
G04 Gerber Fmt 4.6, Leading zero omitted, Abs format (unit mm)*
G04 Created by KiCad (PCBNEW 5.0.1) date Sun Apr  7 22:06:23 2019*
%MOMM*%
%LPD*%
G01*
G04 APERTURE LIST*
%ADD10C,0.200000*%
G04 APERTURE END LIST*
D10*
X186517142Y-47626666D02*
X186564761Y-47579047D01*
X186612380Y-47436190D01*
X186612380Y-47340952D01*
X186564761Y-47198095D01*
X186469523Y-47102857D01*
X186374285Y-47055238D01*
X186183809Y-47007619D01*
X186040952Y-47007619D01*
X185850476Y-47055238D01*
X185755238Y-47102857D01*
X185660000Y-47198095D01*
X185612380Y-47340952D01*
X185612380Y-47436190D01*
X185660000Y-47579047D01*
X185707619Y-47626666D01*
X186612380Y-48055238D02*
X185612380Y-48055238D01*
X186088571Y-48055238D02*
X186088571Y-48626666D01*
X186612380Y-48626666D02*
X185612380Y-48626666D01*
X186612380Y-49674285D02*
X186136190Y-49340952D01*
X186612380Y-49102857D02*
X185612380Y-49102857D01*
X185612380Y-49483809D01*
X185660000Y-49579047D01*
X185707619Y-49626666D01*
X185802857Y-49674285D01*
X185945714Y-49674285D01*
X186040952Y-49626666D01*
X186088571Y-49579047D01*
X186136190Y-49483809D01*
X186136190Y-49102857D01*
X185660000Y-50626666D02*
X185612380Y-50531428D01*
X185612380Y-50388571D01*
X185660000Y-50245714D01*
X185755238Y-50150476D01*
X185850476Y-50102857D01*
X186040952Y-50055238D01*
X186183809Y-50055238D01*
X186374285Y-50102857D01*
X186469523Y-50150476D01*
X186564761Y-50245714D01*
X186612380Y-50388571D01*
X186612380Y-50483809D01*
X186564761Y-50626666D01*
X186517142Y-50674285D01*
X186183809Y-50674285D01*
X186183809Y-50483809D01*
X186231428Y-51102857D02*
X186231428Y-51864761D01*
X186612380Y-51483809D02*
X185850476Y-51483809D01*
X186507142Y-40290666D02*
X186554761Y-40243047D01*
X186602380Y-40100190D01*
X186602380Y-40004952D01*
X186554761Y-39862095D01*
X186459523Y-39766857D01*
X186364285Y-39719238D01*
X186173809Y-39671619D01*
X186030952Y-39671619D01*
X185840476Y-39719238D01*
X185745238Y-39766857D01*
X185650000Y-39862095D01*
X185602380Y-40004952D01*
X185602380Y-40100190D01*
X185650000Y-40243047D01*
X185697619Y-40290666D01*
X186602380Y-40719238D02*
X185602380Y-40719238D01*
X186078571Y-40719238D02*
X186078571Y-41290666D01*
X186602380Y-41290666D02*
X185602380Y-41290666D01*
X186602380Y-42338285D02*
X186126190Y-42004952D01*
X186602380Y-41766857D02*
X185602380Y-41766857D01*
X185602380Y-42147809D01*
X185650000Y-42243047D01*
X185697619Y-42290666D01*
X185792857Y-42338285D01*
X185935714Y-42338285D01*
X186030952Y-42290666D01*
X186078571Y-42243047D01*
X186126190Y-42147809D01*
X186126190Y-41766857D01*
X185650000Y-43290666D02*
X185602380Y-43195428D01*
X185602380Y-43052571D01*
X185650000Y-42909714D01*
X185745238Y-42814476D01*
X185840476Y-42766857D01*
X186030952Y-42719238D01*
X186173809Y-42719238D01*
X186364285Y-42766857D01*
X186459523Y-42814476D01*
X186554761Y-42909714D01*
X186602380Y-43052571D01*
X186602380Y-43147809D01*
X186554761Y-43290666D01*
X186507142Y-43338285D01*
X186173809Y-43338285D01*
X186173809Y-43147809D01*
X186221428Y-43766857D02*
X186221428Y-44528761D01*
X185952380Y-85524952D02*
X185952380Y-85715428D01*
X186000000Y-85810666D01*
X186095238Y-85905904D01*
X186285714Y-85953523D01*
X186619047Y-85953523D01*
X186809523Y-85905904D01*
X186904761Y-85810666D01*
X186952380Y-85715428D01*
X186952380Y-85524952D01*
X186904761Y-85429714D01*
X186809523Y-85334476D01*
X186619047Y-85286857D01*
X186285714Y-85286857D01*
X186095238Y-85334476D01*
X186000000Y-85429714D01*
X185952380Y-85524952D01*
X185952380Y-86382095D02*
X186761904Y-86382095D01*
X186857142Y-86429714D01*
X186904761Y-86477333D01*
X186952380Y-86572571D01*
X186952380Y-86763047D01*
X186904761Y-86858285D01*
X186857142Y-86905904D01*
X186761904Y-86953523D01*
X185952380Y-86953523D01*
X185952380Y-87286857D02*
X185952380Y-87858285D01*
X186952380Y-87572571D02*
X185952380Y-87572571D01*
X186571428Y-88191619D02*
X186571428Y-88953523D01*
X186952380Y-88572571D02*
X186190476Y-88572571D01*
X185852380Y-78192952D02*
X185852380Y-78383428D01*
X185900000Y-78478666D01*
X185995238Y-78573904D01*
X186185714Y-78621523D01*
X186519047Y-78621523D01*
X186709523Y-78573904D01*
X186804761Y-78478666D01*
X186852380Y-78383428D01*
X186852380Y-78192952D01*
X186804761Y-78097714D01*
X186709523Y-78002476D01*
X186519047Y-77954857D01*
X186185714Y-77954857D01*
X185995238Y-78002476D01*
X185900000Y-78097714D01*
X185852380Y-78192952D01*
X185852380Y-79050095D02*
X186661904Y-79050095D01*
X186757142Y-79097714D01*
X186804761Y-79145333D01*
X186852380Y-79240571D01*
X186852380Y-79431047D01*
X186804761Y-79526285D01*
X186757142Y-79573904D01*
X186661904Y-79621523D01*
X185852380Y-79621523D01*
X185852380Y-79954857D02*
X185852380Y-80526285D01*
X186852380Y-80240571D02*
X185852380Y-80240571D01*
X186471428Y-80859619D02*
X186471428Y-81621523D01*
X98478571Y-85207714D02*
X98526190Y-85350571D01*
X98573809Y-85398190D01*
X98669047Y-85445809D01*
X98811904Y-85445809D01*
X98907142Y-85398190D01*
X98954761Y-85350571D01*
X99002380Y-85255333D01*
X99002380Y-84874380D01*
X98002380Y-84874380D01*
X98002380Y-85207714D01*
X98050000Y-85302952D01*
X98097619Y-85350571D01*
X98192857Y-85398190D01*
X98288095Y-85398190D01*
X98383333Y-85350571D01*
X98430952Y-85302952D01*
X98478571Y-85207714D01*
X98478571Y-84874380D01*
X98716666Y-85826761D02*
X98716666Y-86302952D01*
X99002380Y-85731523D02*
X98002380Y-86064857D01*
X99002380Y-86398190D01*
X98002380Y-86588666D02*
X98002380Y-87160095D01*
X99002380Y-86874380D02*
X98002380Y-86874380D01*
X99002380Y-88017238D02*
X99002380Y-87445809D01*
X99002380Y-87731523D02*
X98002380Y-87731523D01*
X98145238Y-87636285D01*
X98240476Y-87541047D01*
X98288095Y-87445809D01*
X99002380Y-89207714D02*
X98002380Y-89207714D01*
X98002380Y-89445809D01*
X98050000Y-89588666D01*
X98145238Y-89683904D01*
X98240476Y-89731523D01*
X98430952Y-89779142D01*
X98573809Y-89779142D01*
X98764285Y-89731523D01*
X98859523Y-89683904D01*
X98954761Y-89588666D01*
X99002380Y-89445809D01*
X99002380Y-89207714D01*
X98621428Y-90207714D02*
X98621428Y-90969619D01*
X98532571Y-76689714D02*
X98580190Y-76832571D01*
X98627809Y-76880190D01*
X98723047Y-76927809D01*
X98865904Y-76927809D01*
X98961142Y-76880190D01*
X99008761Y-76832571D01*
X99056380Y-76737333D01*
X99056380Y-76356380D01*
X98056380Y-76356380D01*
X98056380Y-76689714D01*
X98104000Y-76784952D01*
X98151619Y-76832571D01*
X98246857Y-76880190D01*
X98342095Y-76880190D01*
X98437333Y-76832571D01*
X98484952Y-76784952D01*
X98532571Y-76689714D01*
X98532571Y-76356380D01*
X98770666Y-77308761D02*
X98770666Y-77784952D01*
X99056380Y-77213523D02*
X98056380Y-77546857D01*
X99056380Y-77880190D01*
X98056380Y-78070666D02*
X98056380Y-78642095D01*
X99056380Y-78356380D02*
X98056380Y-78356380D01*
X98151619Y-78927809D02*
X98104000Y-78975428D01*
X98056380Y-79070666D01*
X98056380Y-79308761D01*
X98104000Y-79404000D01*
X98151619Y-79451619D01*
X98246857Y-79499238D01*
X98342095Y-79499238D01*
X98484952Y-79451619D01*
X99056380Y-78880190D01*
X99056380Y-79499238D01*
X99056380Y-80689714D02*
X98056380Y-80689714D01*
X98056380Y-80927809D01*
X98104000Y-81070666D01*
X98199238Y-81165904D01*
X98294476Y-81213523D01*
X98484952Y-81261142D01*
X98627809Y-81261142D01*
X98818285Y-81213523D01*
X98913523Y-81165904D01*
X99008761Y-81070666D01*
X99056380Y-80927809D01*
X99056380Y-80689714D01*
X98675428Y-81689714D02*
X98675428Y-82451619D01*
X98478571Y-39105714D02*
X98526190Y-39248571D01*
X98573809Y-39296190D01*
X98669047Y-39343809D01*
X98811904Y-39343809D01*
X98907142Y-39296190D01*
X98954761Y-39248571D01*
X99002380Y-39153333D01*
X99002380Y-38772380D01*
X98002380Y-38772380D01*
X98002380Y-39105714D01*
X98050000Y-39200952D01*
X98097619Y-39248571D01*
X98192857Y-39296190D01*
X98288095Y-39296190D01*
X98383333Y-39248571D01*
X98430952Y-39200952D01*
X98478571Y-39105714D01*
X98478571Y-38772380D01*
X98716666Y-39724761D02*
X98716666Y-40200952D01*
X99002380Y-39629523D02*
X98002380Y-39962857D01*
X99002380Y-40296190D01*
X98002380Y-40486666D02*
X98002380Y-41058095D01*
X99002380Y-40772380D02*
X98002380Y-40772380D01*
X98097619Y-41343809D02*
X98050000Y-41391428D01*
X98002380Y-41486666D01*
X98002380Y-41724761D01*
X98050000Y-41820000D01*
X98097619Y-41867619D01*
X98192857Y-41915238D01*
X98288095Y-41915238D01*
X98430952Y-41867619D01*
X99002380Y-41296190D01*
X99002380Y-41915238D01*
X98907142Y-43677142D02*
X98954761Y-43629523D01*
X99002380Y-43486666D01*
X99002380Y-43391428D01*
X98954761Y-43248571D01*
X98859523Y-43153333D01*
X98764285Y-43105714D01*
X98573809Y-43058095D01*
X98430952Y-43058095D01*
X98240476Y-43105714D01*
X98145238Y-43153333D01*
X98050000Y-43248571D01*
X98002380Y-43391428D01*
X98002380Y-43486666D01*
X98050000Y-43629523D01*
X98097619Y-43677142D01*
X98621428Y-44105714D02*
X98621428Y-44867619D01*
X98528571Y-47519714D02*
X98576190Y-47662571D01*
X98623809Y-47710190D01*
X98719047Y-47757809D01*
X98861904Y-47757809D01*
X98957142Y-47710190D01*
X99004761Y-47662571D01*
X99052380Y-47567333D01*
X99052380Y-47186380D01*
X98052380Y-47186380D01*
X98052380Y-47519714D01*
X98100000Y-47614952D01*
X98147619Y-47662571D01*
X98242857Y-47710190D01*
X98338095Y-47710190D01*
X98433333Y-47662571D01*
X98480952Y-47614952D01*
X98528571Y-47519714D01*
X98528571Y-47186380D01*
X98766666Y-48138761D02*
X98766666Y-48614952D01*
X99052380Y-48043523D02*
X98052380Y-48376857D01*
X99052380Y-48710190D01*
X98052380Y-48900666D02*
X98052380Y-49472095D01*
X99052380Y-49186380D02*
X98052380Y-49186380D01*
X99052380Y-50329238D02*
X99052380Y-49757809D01*
X99052380Y-50043523D02*
X98052380Y-50043523D01*
X98195238Y-49948285D01*
X98290476Y-49853047D01*
X98338095Y-49757809D01*
X98957142Y-52091142D02*
X99004761Y-52043523D01*
X99052380Y-51900666D01*
X99052380Y-51805428D01*
X99004761Y-51662571D01*
X98909523Y-51567333D01*
X98814285Y-51519714D01*
X98623809Y-51472095D01*
X98480952Y-51472095D01*
X98290476Y-51519714D01*
X98195238Y-51567333D01*
X98100000Y-51662571D01*
X98052380Y-51805428D01*
X98052380Y-51900666D01*
X98100000Y-52043523D01*
X98147619Y-52091142D01*
X98671428Y-52519714D02*
X98671428Y-53281619D01*
X98278571Y-59240666D02*
X98326190Y-59383523D01*
X98373809Y-59431142D01*
X98469047Y-59478761D01*
X98611904Y-59478761D01*
X98707142Y-59431142D01*
X98754761Y-59383523D01*
X98802380Y-59288285D01*
X98802380Y-58907333D01*
X97802380Y-58907333D01*
X97802380Y-59240666D01*
X97850000Y-59335904D01*
X97897619Y-59383523D01*
X97992857Y-59431142D01*
X98088095Y-59431142D01*
X98183333Y-59383523D01*
X98230952Y-59335904D01*
X98278571Y-59240666D01*
X98278571Y-58907333D01*
X98516666Y-59859714D02*
X98516666Y-60335904D01*
X98802380Y-59764476D02*
X97802380Y-60097809D01*
X98802380Y-60431142D01*
X97802380Y-60621619D02*
X97802380Y-61193047D01*
X98802380Y-60907333D02*
X97802380Y-60907333D01*
X97897619Y-61478761D02*
X97850000Y-61526380D01*
X97802380Y-61621619D01*
X97802380Y-61859714D01*
X97850000Y-61954952D01*
X97897619Y-62002571D01*
X97992857Y-62050190D01*
X98088095Y-62050190D01*
X98230952Y-62002571D01*
X98802380Y-61431142D01*
X98802380Y-62050190D01*
X98421428Y-62478761D02*
X98421428Y-63240666D01*
X98802380Y-62859714D02*
X98040476Y-62859714D01*
X98278571Y-66776666D02*
X98326190Y-66919523D01*
X98373809Y-66967142D01*
X98469047Y-67014761D01*
X98611904Y-67014761D01*
X98707142Y-66967142D01*
X98754761Y-66919523D01*
X98802380Y-66824285D01*
X98802380Y-66443333D01*
X97802380Y-66443333D01*
X97802380Y-66776666D01*
X97850000Y-66871904D01*
X97897619Y-66919523D01*
X97992857Y-66967142D01*
X98088095Y-66967142D01*
X98183333Y-66919523D01*
X98230952Y-66871904D01*
X98278571Y-66776666D01*
X98278571Y-66443333D01*
X98516666Y-67395714D02*
X98516666Y-67871904D01*
X98802380Y-67300476D02*
X97802380Y-67633809D01*
X98802380Y-67967142D01*
X97802380Y-68157619D02*
X97802380Y-68729047D01*
X98802380Y-68443333D02*
X97802380Y-68443333D01*
X98802380Y-69586190D02*
X98802380Y-69014761D01*
X98802380Y-69300476D02*
X97802380Y-69300476D01*
X97945238Y-69205238D01*
X98040476Y-69110000D01*
X98088095Y-69014761D01*
X98421428Y-70014761D02*
X98421428Y-70776666D01*
X98802380Y-70395714D02*
X98040476Y-70395714D01*
M02*
