G04 #@! TF.GenerationSoftware,KiCad,Pcbnew,5.0.1*
G04 #@! TF.CreationDate,2019-04-07T22:06:23+02:00*
G04 #@! TF.ProjectId,ppboard,7070626F6172642E6B696361645F7063,rev?*
G04 #@! TF.SameCoordinates,Original*
G04 #@! TF.FileFunction,Soldermask,Bot*
G04 #@! TF.FilePolarity,Negative*
%FSLAX46Y46*%
G04 Gerber Fmt 4.6, Leading zero omitted, Abs format (unit mm)*
G04 Created by KiCad (PCBNEW 5.0.1) date Sun Apr  7 22:06:23 2019*
%MOMM*%
%LPD*%
G01*
G04 APERTURE LIST*
%ADD10C,0.100000*%
G04 APERTURE END LIST*
D10*
G36*
X189315830Y-89414930D02*
X189315833Y-89414931D01*
X189315834Y-89414931D01*
X189523373Y-89477887D01*
X189523375Y-89477888D01*
X189714644Y-89580123D01*
X189882291Y-89717709D01*
X190019877Y-89885356D01*
X190122112Y-90076625D01*
X190185070Y-90284170D01*
X190206327Y-90500000D01*
X190185070Y-90715830D01*
X190122112Y-90923375D01*
X190019877Y-91114644D01*
X189882291Y-91282291D01*
X189714644Y-91419877D01*
X189523375Y-91522112D01*
X189523373Y-91522113D01*
X189315834Y-91585069D01*
X189315833Y-91585069D01*
X189315830Y-91585070D01*
X189154089Y-91601000D01*
X188045911Y-91601000D01*
X187884170Y-91585070D01*
X187884167Y-91585069D01*
X187884166Y-91585069D01*
X187676627Y-91522113D01*
X187676625Y-91522112D01*
X187485356Y-91419877D01*
X187317709Y-91282291D01*
X187180123Y-91114644D01*
X187077888Y-90923375D01*
X187014930Y-90715830D01*
X186993673Y-90500000D01*
X187014930Y-90284170D01*
X187077888Y-90076625D01*
X187180123Y-89885356D01*
X187317709Y-89717709D01*
X187485356Y-89580123D01*
X187676625Y-89477888D01*
X187676627Y-89477887D01*
X187884166Y-89414931D01*
X187884167Y-89414931D01*
X187884170Y-89414930D01*
X188045911Y-89399000D01*
X189154089Y-89399000D01*
X189315830Y-89414930D01*
X189315830Y-89414930D01*
G37*
G36*
X96715830Y-89414930D02*
X96715833Y-89414931D01*
X96715834Y-89414931D01*
X96923373Y-89477887D01*
X96923375Y-89477888D01*
X97114644Y-89580123D01*
X97282291Y-89717709D01*
X97419877Y-89885356D01*
X97522112Y-90076625D01*
X97585070Y-90284170D01*
X97606327Y-90500000D01*
X97585070Y-90715830D01*
X97522112Y-90923375D01*
X97419877Y-91114644D01*
X97282291Y-91282291D01*
X97114644Y-91419877D01*
X96923375Y-91522112D01*
X96923373Y-91522113D01*
X96715834Y-91585069D01*
X96715833Y-91585069D01*
X96715830Y-91585070D01*
X96554089Y-91601000D01*
X95445911Y-91601000D01*
X95284170Y-91585070D01*
X95284167Y-91585069D01*
X95284166Y-91585069D01*
X95076627Y-91522113D01*
X95076625Y-91522112D01*
X94885356Y-91419877D01*
X94717709Y-91282291D01*
X94580123Y-91114644D01*
X94477888Y-90923375D01*
X94414930Y-90715830D01*
X94393673Y-90500000D01*
X94414930Y-90284170D01*
X94477888Y-90076625D01*
X94580123Y-89885356D01*
X94717709Y-89717709D01*
X94885356Y-89580123D01*
X95076625Y-89477888D01*
X95076627Y-89477887D01*
X95284166Y-89414931D01*
X95284167Y-89414931D01*
X95284170Y-89414930D01*
X95445911Y-89399000D01*
X96554089Y-89399000D01*
X96715830Y-89414930D01*
X96715830Y-89414930D01*
G37*
G36*
X183314927Y-84993190D02*
X183314929Y-84993191D01*
X183314930Y-84993191D01*
X183760984Y-85177952D01*
X184014905Y-85347617D01*
X184162424Y-85446186D01*
X184503814Y-85787576D01*
X184503816Y-85787579D01*
X184772048Y-86189016D01*
X184956809Y-86635070D01*
X185051000Y-87108598D01*
X185051000Y-87591402D01*
X184956809Y-88064930D01*
X184772048Y-88510984D01*
X184672859Y-88659430D01*
X184503814Y-88912424D01*
X184162424Y-89253814D01*
X184162421Y-89253816D01*
X183760984Y-89522048D01*
X183314930Y-89706809D01*
X183314929Y-89706809D01*
X183314927Y-89706810D01*
X182841404Y-89801000D01*
X182358596Y-89801000D01*
X181885073Y-89706810D01*
X181885071Y-89706809D01*
X181885070Y-89706809D01*
X181439016Y-89522048D01*
X181037579Y-89253816D01*
X181037576Y-89253814D01*
X180696186Y-88912424D01*
X180527141Y-88659430D01*
X180427952Y-88510984D01*
X180243191Y-88064930D01*
X180149000Y-87591402D01*
X180149000Y-87108598D01*
X180243191Y-86635070D01*
X180427952Y-86189016D01*
X180696184Y-85787579D01*
X180696186Y-85787576D01*
X181037576Y-85446186D01*
X181185095Y-85347617D01*
X181439016Y-85177952D01*
X181885070Y-84993191D01*
X181885071Y-84993191D01*
X181885073Y-84993190D01*
X182358596Y-84899000D01*
X182841404Y-84899000D01*
X183314927Y-84993190D01*
X183314927Y-84993190D01*
G37*
G36*
X102714927Y-84993190D02*
X102714929Y-84993191D01*
X102714930Y-84993191D01*
X103160984Y-85177952D01*
X103414905Y-85347617D01*
X103562424Y-85446186D01*
X103903814Y-85787576D01*
X103903816Y-85787579D01*
X104172048Y-86189016D01*
X104356809Y-86635070D01*
X104451000Y-87108598D01*
X104451000Y-87591402D01*
X104356809Y-88064930D01*
X104172048Y-88510984D01*
X104072859Y-88659430D01*
X103903814Y-88912424D01*
X103562424Y-89253814D01*
X103562421Y-89253816D01*
X103160984Y-89522048D01*
X102714930Y-89706809D01*
X102714929Y-89706809D01*
X102714927Y-89706810D01*
X102241404Y-89801000D01*
X101758596Y-89801000D01*
X101285073Y-89706810D01*
X101285071Y-89706809D01*
X101285070Y-89706809D01*
X100839016Y-89522048D01*
X100437579Y-89253816D01*
X100437576Y-89253814D01*
X100096186Y-88912424D01*
X99927141Y-88659430D01*
X99827952Y-88510984D01*
X99643191Y-88064930D01*
X99549000Y-87591402D01*
X99549000Y-87108598D01*
X99643191Y-86635070D01*
X99827952Y-86189016D01*
X100096184Y-85787579D01*
X100096186Y-85787576D01*
X100437576Y-85446186D01*
X100585095Y-85347617D01*
X100839016Y-85177952D01*
X101285070Y-84993191D01*
X101285071Y-84993191D01*
X101285073Y-84993190D01*
X101758596Y-84899000D01*
X102241404Y-84899000D01*
X102714927Y-84993190D01*
X102714927Y-84993190D01*
G37*
G36*
X183314927Y-77793190D02*
X183314929Y-77793191D01*
X183314930Y-77793191D01*
X183760984Y-77977952D01*
X184014905Y-78147617D01*
X184162424Y-78246186D01*
X184503814Y-78587576D01*
X184503816Y-78587579D01*
X184772048Y-78989016D01*
X184956809Y-79435070D01*
X185051000Y-79908598D01*
X185051000Y-80391402D01*
X184956809Y-80864930D01*
X184772048Y-81310984D01*
X184582018Y-81595383D01*
X184503814Y-81712424D01*
X184162424Y-82053814D01*
X184162421Y-82053816D01*
X183760984Y-82322048D01*
X183314930Y-82506809D01*
X183314929Y-82506809D01*
X183314927Y-82506810D01*
X182841404Y-82601000D01*
X182358596Y-82601000D01*
X181885073Y-82506810D01*
X181885071Y-82506809D01*
X181885070Y-82506809D01*
X181439016Y-82322048D01*
X181037579Y-82053816D01*
X181037576Y-82053814D01*
X180696186Y-81712424D01*
X180617982Y-81595383D01*
X180427952Y-81310984D01*
X180243191Y-80864930D01*
X180149000Y-80391402D01*
X180149000Y-79908598D01*
X180243191Y-79435070D01*
X180427952Y-78989016D01*
X180696184Y-78587579D01*
X180696186Y-78587576D01*
X181037576Y-78246186D01*
X181185095Y-78147617D01*
X181439016Y-77977952D01*
X181885070Y-77793191D01*
X181885071Y-77793191D01*
X181885073Y-77793190D01*
X182358596Y-77699000D01*
X182841404Y-77699000D01*
X183314927Y-77793190D01*
X183314927Y-77793190D01*
G37*
G36*
X102714927Y-77793190D02*
X102714929Y-77793191D01*
X102714930Y-77793191D01*
X103160984Y-77977952D01*
X103414905Y-78147617D01*
X103562424Y-78246186D01*
X103903814Y-78587576D01*
X103903816Y-78587579D01*
X104172048Y-78989016D01*
X104356809Y-79435070D01*
X104451000Y-79908598D01*
X104451000Y-80391402D01*
X104356809Y-80864930D01*
X104172048Y-81310984D01*
X103982018Y-81595383D01*
X103903814Y-81712424D01*
X103562424Y-82053814D01*
X103562421Y-82053816D01*
X103160984Y-82322048D01*
X102714930Y-82506809D01*
X102714929Y-82506809D01*
X102714927Y-82506810D01*
X102241404Y-82601000D01*
X101758596Y-82601000D01*
X101285073Y-82506810D01*
X101285071Y-82506809D01*
X101285070Y-82506809D01*
X100839016Y-82322048D01*
X100437579Y-82053816D01*
X100437576Y-82053814D01*
X100096186Y-81712424D01*
X100017982Y-81595383D01*
X99827952Y-81310984D01*
X99643191Y-80864930D01*
X99549000Y-80391402D01*
X99549000Y-79908598D01*
X99643191Y-79435070D01*
X99827952Y-78989016D01*
X100096184Y-78587579D01*
X100096186Y-78587576D01*
X100437576Y-78246186D01*
X100585095Y-78147617D01*
X100839016Y-77977952D01*
X101285070Y-77793191D01*
X101285071Y-77793191D01*
X101285073Y-77793190D01*
X101758596Y-77699000D01*
X102241404Y-77699000D01*
X102714927Y-77793190D01*
X102714927Y-77793190D01*
G37*
G36*
X96715830Y-75914930D02*
X96715833Y-75914931D01*
X96715834Y-75914931D01*
X96923373Y-75977887D01*
X96923375Y-75977888D01*
X97114644Y-76080123D01*
X97282291Y-76217709D01*
X97419877Y-76385356D01*
X97522112Y-76576625D01*
X97585070Y-76784170D01*
X97606327Y-77000000D01*
X97585070Y-77215830D01*
X97522112Y-77423375D01*
X97419877Y-77614644D01*
X97282291Y-77782291D01*
X97114644Y-77919877D01*
X96923375Y-78022112D01*
X96923373Y-78022113D01*
X96715834Y-78085069D01*
X96715833Y-78085069D01*
X96715830Y-78085070D01*
X96554089Y-78101000D01*
X95445911Y-78101000D01*
X95284170Y-78085070D01*
X95284167Y-78085069D01*
X95284166Y-78085069D01*
X95076627Y-78022113D01*
X95076625Y-78022112D01*
X94885356Y-77919877D01*
X94717709Y-77782291D01*
X94580123Y-77614644D01*
X94477888Y-77423375D01*
X94414930Y-77215830D01*
X94393673Y-77000000D01*
X94414930Y-76784170D01*
X94477888Y-76576625D01*
X94580123Y-76385356D01*
X94717709Y-76217709D01*
X94885356Y-76080123D01*
X95076625Y-75977888D01*
X95076627Y-75977887D01*
X95284166Y-75914931D01*
X95284167Y-75914931D01*
X95284170Y-75914930D01*
X95445911Y-75899000D01*
X96554089Y-75899000D01*
X96715830Y-75914930D01*
X96715830Y-75914930D01*
G37*
G36*
X189315830Y-75914930D02*
X189315833Y-75914931D01*
X189315834Y-75914931D01*
X189523373Y-75977887D01*
X189523375Y-75977888D01*
X189714644Y-76080123D01*
X189882291Y-76217709D01*
X190019877Y-76385356D01*
X190122112Y-76576625D01*
X190185070Y-76784170D01*
X190206327Y-77000000D01*
X190185070Y-77215830D01*
X190122112Y-77423375D01*
X190019877Y-77614644D01*
X189882291Y-77782291D01*
X189714644Y-77919877D01*
X189523375Y-78022112D01*
X189523373Y-78022113D01*
X189315834Y-78085069D01*
X189315833Y-78085069D01*
X189315830Y-78085070D01*
X189154089Y-78101000D01*
X188045911Y-78101000D01*
X187884170Y-78085070D01*
X187884167Y-78085069D01*
X187884166Y-78085069D01*
X187676627Y-78022113D01*
X187676625Y-78022112D01*
X187485356Y-77919877D01*
X187317709Y-77782291D01*
X187180123Y-77614644D01*
X187077888Y-77423375D01*
X187014930Y-77215830D01*
X186993673Y-77000000D01*
X187014930Y-76784170D01*
X187077888Y-76576625D01*
X187180123Y-76385356D01*
X187317709Y-76217709D01*
X187485356Y-76080123D01*
X187676625Y-75977888D01*
X187676627Y-75977887D01*
X187884166Y-75914931D01*
X187884167Y-75914931D01*
X187884170Y-75914930D01*
X188045911Y-75899000D01*
X189154089Y-75899000D01*
X189315830Y-75914930D01*
X189315830Y-75914930D01*
G37*
G36*
X96715830Y-70664930D02*
X96715833Y-70664931D01*
X96715834Y-70664931D01*
X96923373Y-70727887D01*
X96923375Y-70727888D01*
X97114644Y-70830123D01*
X97282291Y-70967709D01*
X97419877Y-71135356D01*
X97522112Y-71326625D01*
X97585070Y-71534170D01*
X97606327Y-71750000D01*
X97585070Y-71965830D01*
X97522112Y-72173375D01*
X97419877Y-72364644D01*
X97282291Y-72532291D01*
X97114644Y-72669877D01*
X96923375Y-72772112D01*
X96923373Y-72772113D01*
X96715834Y-72835069D01*
X96715833Y-72835069D01*
X96715830Y-72835070D01*
X96554089Y-72851000D01*
X95445911Y-72851000D01*
X95284170Y-72835070D01*
X95284167Y-72835069D01*
X95284166Y-72835069D01*
X95076627Y-72772113D01*
X95076625Y-72772112D01*
X94885356Y-72669877D01*
X94717709Y-72532291D01*
X94580123Y-72364644D01*
X94477888Y-72173375D01*
X94414930Y-71965830D01*
X94393673Y-71750000D01*
X94414930Y-71534170D01*
X94477888Y-71326625D01*
X94580123Y-71135356D01*
X94717709Y-70967709D01*
X94885356Y-70830123D01*
X95076625Y-70727888D01*
X95076627Y-70727887D01*
X95284166Y-70664931D01*
X95284167Y-70664931D01*
X95284170Y-70664930D01*
X95445911Y-70649000D01*
X96554089Y-70649000D01*
X96715830Y-70664930D01*
X96715830Y-70664930D01*
G37*
G36*
X102714927Y-66243190D02*
X102714929Y-66243191D01*
X102714930Y-66243191D01*
X103160984Y-66427952D01*
X103414905Y-66597617D01*
X103562424Y-66696186D01*
X103903814Y-67037576D01*
X103903816Y-67037579D01*
X104172048Y-67439016D01*
X104356809Y-67885070D01*
X104451000Y-68358598D01*
X104451000Y-68841402D01*
X104356809Y-69314930D01*
X104172048Y-69760984D01*
X104072859Y-69909430D01*
X103903814Y-70162424D01*
X103562424Y-70503814D01*
X103562421Y-70503816D01*
X103160984Y-70772048D01*
X102714930Y-70956809D01*
X102714929Y-70956809D01*
X102714927Y-70956810D01*
X102241404Y-71051000D01*
X101758596Y-71051000D01*
X101285073Y-70956810D01*
X101285071Y-70956809D01*
X101285070Y-70956809D01*
X100839016Y-70772048D01*
X100437579Y-70503816D01*
X100437576Y-70503814D01*
X100096186Y-70162424D01*
X99927141Y-69909430D01*
X99827952Y-69760984D01*
X99643191Y-69314930D01*
X99549000Y-68841402D01*
X99549000Y-68358598D01*
X99643191Y-67885070D01*
X99827952Y-67439016D01*
X100096184Y-67037579D01*
X100096186Y-67037576D01*
X100437576Y-66696186D01*
X100585095Y-66597617D01*
X100839016Y-66427952D01*
X101285070Y-66243191D01*
X101285071Y-66243191D01*
X101285073Y-66243190D01*
X101758596Y-66149000D01*
X102241404Y-66149000D01*
X102714927Y-66243190D01*
X102714927Y-66243190D01*
G37*
G36*
X187491242Y-65953404D02*
X187528339Y-65964657D01*
X187562520Y-65982927D01*
X187592482Y-66007518D01*
X187617073Y-66037480D01*
X187635343Y-66071661D01*
X187646596Y-66108758D01*
X187651000Y-66153473D01*
X187651000Y-67046527D01*
X187646596Y-67091242D01*
X187635343Y-67128339D01*
X187617073Y-67162520D01*
X187592482Y-67192482D01*
X187562520Y-67217073D01*
X187528339Y-67235343D01*
X187491242Y-67246596D01*
X187446527Y-67251000D01*
X186003473Y-67251000D01*
X185958758Y-67246596D01*
X185921661Y-67235343D01*
X185887480Y-67217073D01*
X185857518Y-67192482D01*
X185832927Y-67162520D01*
X185814657Y-67128339D01*
X185803404Y-67091242D01*
X185799000Y-67046527D01*
X185799000Y-66153473D01*
X185803404Y-66108758D01*
X185814657Y-66071661D01*
X185832927Y-66037480D01*
X185857518Y-66007518D01*
X185887480Y-65982927D01*
X185921661Y-65964657D01*
X185958758Y-65953404D01*
X186003473Y-65949000D01*
X187446527Y-65949000D01*
X187491242Y-65953404D01*
X187491242Y-65953404D01*
G37*
G36*
X187063855Y-63952140D02*
X187127618Y-63958420D01*
X187209427Y-63983237D01*
X187250333Y-63995645D01*
X187350491Y-64049181D01*
X187363426Y-64056095D01*
X187462553Y-64137447D01*
X187543905Y-64236574D01*
X187543906Y-64236576D01*
X187604355Y-64349667D01*
X187604355Y-64349668D01*
X187641580Y-64472382D01*
X187654149Y-64600000D01*
X187641580Y-64727618D01*
X187616763Y-64809427D01*
X187604355Y-64850333D01*
X187550819Y-64950491D01*
X187543905Y-64963426D01*
X187462553Y-65062553D01*
X187363426Y-65143905D01*
X187363424Y-65143906D01*
X187250333Y-65204355D01*
X187209427Y-65216763D01*
X187127618Y-65241580D01*
X187063855Y-65247860D01*
X187031974Y-65251000D01*
X186418026Y-65251000D01*
X186386145Y-65247860D01*
X186322382Y-65241580D01*
X186240573Y-65216763D01*
X186199667Y-65204355D01*
X186086576Y-65143906D01*
X186086574Y-65143905D01*
X185987447Y-65062553D01*
X185906095Y-64963426D01*
X185899181Y-64950491D01*
X185845645Y-64850333D01*
X185833237Y-64809427D01*
X185808420Y-64727618D01*
X185795851Y-64600000D01*
X185808420Y-64472382D01*
X185845645Y-64349668D01*
X185845645Y-64349667D01*
X185906094Y-64236576D01*
X185906095Y-64236574D01*
X185987447Y-64137447D01*
X186086574Y-64056095D01*
X186099509Y-64049181D01*
X186199667Y-63995645D01*
X186240573Y-63983237D01*
X186322382Y-63958420D01*
X186386145Y-63952140D01*
X186418026Y-63949000D01*
X187031974Y-63949000D01*
X187063855Y-63952140D01*
X187063855Y-63952140D01*
G37*
G36*
X102714927Y-59043190D02*
X102714929Y-59043191D01*
X102714930Y-59043191D01*
X103160984Y-59227952D01*
X103414905Y-59397617D01*
X103562424Y-59496186D01*
X103903814Y-59837576D01*
X103903816Y-59837579D01*
X104172048Y-60239016D01*
X104321572Y-60600000D01*
X104356810Y-60685073D01*
X104451000Y-61158596D01*
X104451000Y-61641404D01*
X104368513Y-62056094D01*
X104356809Y-62114930D01*
X104172048Y-62560984D01*
X103978711Y-62850333D01*
X103903814Y-62962424D01*
X103562424Y-63303814D01*
X103562421Y-63303816D01*
X103160984Y-63572048D01*
X102714930Y-63756809D01*
X102714929Y-63756809D01*
X102714927Y-63756810D01*
X102241404Y-63851000D01*
X101758596Y-63851000D01*
X101285073Y-63756810D01*
X101285071Y-63756809D01*
X101285070Y-63756809D01*
X100839016Y-63572048D01*
X100437579Y-63303816D01*
X100437576Y-63303814D01*
X100096186Y-62962424D01*
X100021289Y-62850333D01*
X99827952Y-62560984D01*
X99643191Y-62114930D01*
X99631488Y-62056094D01*
X99549000Y-61641404D01*
X99549000Y-61158596D01*
X99643190Y-60685073D01*
X99678428Y-60600000D01*
X99827952Y-60239016D01*
X100096184Y-59837579D01*
X100096186Y-59837576D01*
X100437576Y-59496186D01*
X100585095Y-59397617D01*
X100839016Y-59227952D01*
X101285070Y-59043191D01*
X101285071Y-59043191D01*
X101285073Y-59043190D01*
X101758596Y-58949000D01*
X102241404Y-58949000D01*
X102714927Y-59043190D01*
X102714927Y-59043190D01*
G37*
G36*
X187063855Y-61952140D02*
X187127618Y-61958420D01*
X187209427Y-61983237D01*
X187250333Y-61995645D01*
X187350491Y-62049181D01*
X187363426Y-62056095D01*
X187462553Y-62137447D01*
X187543905Y-62236574D01*
X187543906Y-62236576D01*
X187604355Y-62349667D01*
X187604355Y-62349668D01*
X187641580Y-62472382D01*
X187654149Y-62600000D01*
X187641580Y-62727618D01*
X187626427Y-62777570D01*
X187604355Y-62850333D01*
X187572857Y-62909261D01*
X187543905Y-62963426D01*
X187462553Y-63062553D01*
X187363426Y-63143905D01*
X187363424Y-63143906D01*
X187250333Y-63204355D01*
X187209427Y-63216763D01*
X187127618Y-63241580D01*
X187063855Y-63247860D01*
X187031974Y-63251000D01*
X186418026Y-63251000D01*
X186386145Y-63247860D01*
X186322382Y-63241580D01*
X186240573Y-63216763D01*
X186199667Y-63204355D01*
X186086576Y-63143906D01*
X186086574Y-63143905D01*
X185987447Y-63062553D01*
X185906095Y-62963426D01*
X185877143Y-62909261D01*
X185845645Y-62850333D01*
X185823573Y-62777570D01*
X185808420Y-62727618D01*
X185795851Y-62600000D01*
X185808420Y-62472382D01*
X185845645Y-62349668D01*
X185845645Y-62349667D01*
X185906094Y-62236576D01*
X185906095Y-62236574D01*
X185987447Y-62137447D01*
X186086574Y-62056095D01*
X186099509Y-62049181D01*
X186199667Y-61995645D01*
X186240573Y-61983237D01*
X186322382Y-61958420D01*
X186386145Y-61952140D01*
X186418026Y-61949000D01*
X187031974Y-61949000D01*
X187063855Y-61952140D01*
X187063855Y-61952140D01*
G37*
G36*
X187063855Y-59952140D02*
X187127618Y-59958420D01*
X187209427Y-59983237D01*
X187250333Y-59995645D01*
X187350491Y-60049181D01*
X187363426Y-60056095D01*
X187462553Y-60137447D01*
X187543905Y-60236574D01*
X187543906Y-60236576D01*
X187604355Y-60349667D01*
X187616763Y-60390573D01*
X187641580Y-60472382D01*
X187654149Y-60600000D01*
X187641580Y-60727618D01*
X187616763Y-60809427D01*
X187604355Y-60850333D01*
X187550819Y-60950491D01*
X187543905Y-60963426D01*
X187462553Y-61062553D01*
X187363426Y-61143905D01*
X187363424Y-61143906D01*
X187250333Y-61204355D01*
X187209427Y-61216763D01*
X187127618Y-61241580D01*
X187063855Y-61247860D01*
X187031974Y-61251000D01*
X186418026Y-61251000D01*
X186386145Y-61247860D01*
X186322382Y-61241580D01*
X186240573Y-61216763D01*
X186199667Y-61204355D01*
X186086576Y-61143906D01*
X186086574Y-61143905D01*
X185987447Y-61062553D01*
X185906095Y-60963426D01*
X185899181Y-60950491D01*
X185845645Y-60850333D01*
X185833237Y-60809427D01*
X185808420Y-60727618D01*
X185795851Y-60600000D01*
X185808420Y-60472382D01*
X185833237Y-60390573D01*
X185845645Y-60349667D01*
X185906094Y-60236576D01*
X185906095Y-60236574D01*
X185987447Y-60137447D01*
X186086574Y-60056095D01*
X186099509Y-60049181D01*
X186199667Y-59995645D01*
X186240573Y-59983237D01*
X186322382Y-59958420D01*
X186386145Y-59952140D01*
X186418026Y-59949000D01*
X187031974Y-59949000D01*
X187063855Y-59952140D01*
X187063855Y-59952140D01*
G37*
G36*
X96715830Y-57164930D02*
X96715833Y-57164931D01*
X96715834Y-57164931D01*
X96923373Y-57227887D01*
X96923375Y-57227888D01*
X97114644Y-57330123D01*
X97282291Y-57467709D01*
X97419877Y-57635356D01*
X97522112Y-57826625D01*
X97585070Y-58034170D01*
X97606327Y-58250000D01*
X97585070Y-58465830D01*
X97585069Y-58465833D01*
X97585069Y-58465834D01*
X97583083Y-58472382D01*
X97522112Y-58673375D01*
X97419877Y-58864644D01*
X97282291Y-59032291D01*
X97114644Y-59169877D01*
X96923375Y-59272112D01*
X96923373Y-59272113D01*
X96715834Y-59335069D01*
X96715833Y-59335069D01*
X96715830Y-59335070D01*
X96554089Y-59351000D01*
X95445911Y-59351000D01*
X95284170Y-59335070D01*
X95284167Y-59335069D01*
X95284166Y-59335069D01*
X95076627Y-59272113D01*
X95076625Y-59272112D01*
X94885356Y-59169877D01*
X94717709Y-59032291D01*
X94580123Y-58864644D01*
X94477888Y-58673375D01*
X94416918Y-58472382D01*
X94414931Y-58465834D01*
X94414931Y-58465833D01*
X94414930Y-58465830D01*
X94393673Y-58250000D01*
X94414930Y-58034170D01*
X94477888Y-57826625D01*
X94580123Y-57635356D01*
X94717709Y-57467709D01*
X94885356Y-57330123D01*
X95076625Y-57227888D01*
X95076627Y-57227887D01*
X95284166Y-57164931D01*
X95284167Y-57164931D01*
X95284170Y-57164930D01*
X95445911Y-57149000D01*
X96554089Y-57149000D01*
X96715830Y-57164930D01*
X96715830Y-57164930D01*
G37*
G36*
X187063855Y-57952140D02*
X187127618Y-57958420D01*
X187209427Y-57983237D01*
X187250333Y-57995645D01*
X187322400Y-58034166D01*
X187363426Y-58056095D01*
X187462553Y-58137447D01*
X187543905Y-58236574D01*
X187543906Y-58236576D01*
X187604355Y-58349667D01*
X187604355Y-58349668D01*
X187641580Y-58472382D01*
X187654149Y-58600000D01*
X187641580Y-58727618D01*
X187616763Y-58809427D01*
X187604355Y-58850333D01*
X187551616Y-58949000D01*
X187543905Y-58963426D01*
X187462553Y-59062553D01*
X187363426Y-59143905D01*
X187363424Y-59143906D01*
X187250333Y-59204355D01*
X187209427Y-59216763D01*
X187127618Y-59241580D01*
X187063855Y-59247860D01*
X187031974Y-59251000D01*
X186418026Y-59251000D01*
X186386145Y-59247860D01*
X186322382Y-59241580D01*
X186240573Y-59216763D01*
X186199667Y-59204355D01*
X186086576Y-59143906D01*
X186086574Y-59143905D01*
X185987447Y-59062553D01*
X185906095Y-58963426D01*
X185898384Y-58949000D01*
X185845645Y-58850333D01*
X185833237Y-58809427D01*
X185808420Y-58727618D01*
X185795851Y-58600000D01*
X185808420Y-58472382D01*
X185845645Y-58349668D01*
X185845645Y-58349667D01*
X185906094Y-58236576D01*
X185906095Y-58236574D01*
X185987447Y-58137447D01*
X186086574Y-58056095D01*
X186127600Y-58034166D01*
X186199667Y-57995645D01*
X186240573Y-57983237D01*
X186322382Y-57958420D01*
X186386145Y-57952140D01*
X186418026Y-57949000D01*
X187031974Y-57949000D01*
X187063855Y-57952140D01*
X187063855Y-57952140D01*
G37*
G36*
X96715830Y-51914930D02*
X96715833Y-51914931D01*
X96715834Y-51914931D01*
X96923373Y-51977887D01*
X96923375Y-51977888D01*
X97114644Y-52080123D01*
X97282291Y-52217709D01*
X97419877Y-52385356D01*
X97522112Y-52576625D01*
X97585070Y-52784170D01*
X97606327Y-53000000D01*
X97585070Y-53215830D01*
X97522112Y-53423375D01*
X97419877Y-53614644D01*
X97282291Y-53782291D01*
X97114644Y-53919877D01*
X96923375Y-54022112D01*
X96923373Y-54022113D01*
X96715834Y-54085069D01*
X96715833Y-54085069D01*
X96715830Y-54085070D01*
X96554089Y-54101000D01*
X95445911Y-54101000D01*
X95284170Y-54085070D01*
X95284167Y-54085069D01*
X95284166Y-54085069D01*
X95076627Y-54022113D01*
X95076625Y-54022112D01*
X94885356Y-53919877D01*
X94717709Y-53782291D01*
X94580123Y-53614644D01*
X94477888Y-53423375D01*
X94414930Y-53215830D01*
X94393673Y-53000000D01*
X94414930Y-52784170D01*
X94477888Y-52576625D01*
X94580123Y-52385356D01*
X94717709Y-52217709D01*
X94885356Y-52080123D01*
X95076625Y-51977888D01*
X95076627Y-51977887D01*
X95284166Y-51914931D01*
X95284167Y-51914931D01*
X95284170Y-51914930D01*
X95445911Y-51899000D01*
X96554089Y-51899000D01*
X96715830Y-51914930D01*
X96715830Y-51914930D01*
G37*
G36*
X189215830Y-51914930D02*
X189215833Y-51914931D01*
X189215834Y-51914931D01*
X189423373Y-51977887D01*
X189423375Y-51977888D01*
X189614644Y-52080123D01*
X189782291Y-52217709D01*
X189919877Y-52385356D01*
X190022112Y-52576625D01*
X190085070Y-52784170D01*
X190106327Y-53000000D01*
X190085070Y-53215830D01*
X190022112Y-53423375D01*
X189919877Y-53614644D01*
X189782291Y-53782291D01*
X189614644Y-53919877D01*
X189423375Y-54022112D01*
X189423373Y-54022113D01*
X189215834Y-54085069D01*
X189215833Y-54085069D01*
X189215830Y-54085070D01*
X189054089Y-54101000D01*
X187945911Y-54101000D01*
X187784170Y-54085070D01*
X187784167Y-54085069D01*
X187784166Y-54085069D01*
X187576627Y-54022113D01*
X187576625Y-54022112D01*
X187385356Y-53919877D01*
X187217709Y-53782291D01*
X187080123Y-53614644D01*
X186977888Y-53423375D01*
X186914930Y-53215830D01*
X186893673Y-53000000D01*
X186914930Y-52784170D01*
X186977888Y-52576625D01*
X187080123Y-52385356D01*
X187217709Y-52217709D01*
X187385356Y-52080123D01*
X187576625Y-51977888D01*
X187576627Y-51977887D01*
X187784166Y-51914931D01*
X187784167Y-51914931D01*
X187784170Y-51914930D01*
X187945911Y-51899000D01*
X189054089Y-51899000D01*
X189215830Y-51914930D01*
X189215830Y-51914930D01*
G37*
G36*
X102714927Y-47493190D02*
X102714929Y-47493191D01*
X102714930Y-47493191D01*
X103160984Y-47677952D01*
X103414905Y-47847617D01*
X103562424Y-47946186D01*
X103903814Y-48287576D01*
X103903816Y-48287579D01*
X104172048Y-48689016D01*
X104356809Y-49135070D01*
X104451000Y-49608598D01*
X104451000Y-50091402D01*
X104356809Y-50564930D01*
X104172048Y-51010984D01*
X104072859Y-51159430D01*
X103903814Y-51412424D01*
X103562424Y-51753814D01*
X103562421Y-51753816D01*
X103160984Y-52022048D01*
X102714930Y-52206809D01*
X102714929Y-52206809D01*
X102714927Y-52206810D01*
X102241404Y-52301000D01*
X101758596Y-52301000D01*
X101285073Y-52206810D01*
X101285071Y-52206809D01*
X101285070Y-52206809D01*
X100839016Y-52022048D01*
X100437579Y-51753816D01*
X100437576Y-51753814D01*
X100096186Y-51412424D01*
X99927141Y-51159430D01*
X99827952Y-51010984D01*
X99643191Y-50564930D01*
X99549000Y-50091402D01*
X99549000Y-49608598D01*
X99643191Y-49135070D01*
X99827952Y-48689016D01*
X100096184Y-48287579D01*
X100096186Y-48287576D01*
X100437576Y-47946186D01*
X100585095Y-47847617D01*
X100839016Y-47677952D01*
X101285070Y-47493191D01*
X101285071Y-47493191D01*
X101285073Y-47493190D01*
X101758596Y-47399000D01*
X102241404Y-47399000D01*
X102714927Y-47493190D01*
X102714927Y-47493190D01*
G37*
G36*
X183214927Y-47493190D02*
X183214929Y-47493191D01*
X183214930Y-47493191D01*
X183660984Y-47677952D01*
X183914905Y-47847617D01*
X184062424Y-47946186D01*
X184403814Y-48287576D01*
X184403816Y-48287579D01*
X184672048Y-48689016D01*
X184856809Y-49135070D01*
X184951000Y-49608598D01*
X184951000Y-50091402D01*
X184856809Y-50564930D01*
X184672048Y-51010984D01*
X184572859Y-51159430D01*
X184403814Y-51412424D01*
X184062424Y-51753814D01*
X184062421Y-51753816D01*
X183660984Y-52022048D01*
X183214930Y-52206809D01*
X183214929Y-52206809D01*
X183214927Y-52206810D01*
X182741404Y-52301000D01*
X182258596Y-52301000D01*
X181785073Y-52206810D01*
X181785071Y-52206809D01*
X181785070Y-52206809D01*
X181339016Y-52022048D01*
X180937579Y-51753816D01*
X180937576Y-51753814D01*
X180596186Y-51412424D01*
X180427141Y-51159430D01*
X180327952Y-51010984D01*
X180143191Y-50564930D01*
X180049000Y-50091402D01*
X180049000Y-49608598D01*
X180143191Y-49135070D01*
X180327952Y-48689016D01*
X180596184Y-48287579D01*
X180596186Y-48287576D01*
X180937576Y-47946186D01*
X181085095Y-47847617D01*
X181339016Y-47677952D01*
X181785070Y-47493191D01*
X181785071Y-47493191D01*
X181785073Y-47493190D01*
X182258596Y-47399000D01*
X182741404Y-47399000D01*
X183214927Y-47493190D01*
X183214927Y-47493190D01*
G37*
G36*
X102714927Y-40293190D02*
X102714929Y-40293191D01*
X102714930Y-40293191D01*
X103160984Y-40477952D01*
X103414905Y-40647617D01*
X103562424Y-40746186D01*
X103903814Y-41087576D01*
X103903816Y-41087579D01*
X104172048Y-41489016D01*
X104356809Y-41935070D01*
X104451000Y-42408598D01*
X104451000Y-42891402D01*
X104356809Y-43364930D01*
X104172048Y-43810984D01*
X103982018Y-44095383D01*
X103903814Y-44212424D01*
X103562424Y-44553814D01*
X103562421Y-44553816D01*
X103160984Y-44822048D01*
X102714930Y-45006809D01*
X102714929Y-45006809D01*
X102714927Y-45006810D01*
X102241404Y-45101000D01*
X101758596Y-45101000D01*
X101285073Y-45006810D01*
X101285071Y-45006809D01*
X101285070Y-45006809D01*
X100839016Y-44822048D01*
X100437579Y-44553816D01*
X100437576Y-44553814D01*
X100096186Y-44212424D01*
X100017982Y-44095383D01*
X99827952Y-43810984D01*
X99643191Y-43364930D01*
X99549000Y-42891402D01*
X99549000Y-42408598D01*
X99643191Y-41935070D01*
X99827952Y-41489016D01*
X100096184Y-41087579D01*
X100096186Y-41087576D01*
X100437576Y-40746186D01*
X100585095Y-40647617D01*
X100839016Y-40477952D01*
X101285070Y-40293191D01*
X101285071Y-40293191D01*
X101285073Y-40293190D01*
X101758596Y-40199000D01*
X102241404Y-40199000D01*
X102714927Y-40293190D01*
X102714927Y-40293190D01*
G37*
G36*
X183214927Y-40293190D02*
X183214929Y-40293191D01*
X183214930Y-40293191D01*
X183660984Y-40477952D01*
X183914905Y-40647617D01*
X184062424Y-40746186D01*
X184403814Y-41087576D01*
X184403816Y-41087579D01*
X184672048Y-41489016D01*
X184856809Y-41935070D01*
X184951000Y-42408598D01*
X184951000Y-42891402D01*
X184856809Y-43364930D01*
X184672048Y-43810984D01*
X184482018Y-44095383D01*
X184403814Y-44212424D01*
X184062424Y-44553814D01*
X184062421Y-44553816D01*
X183660984Y-44822048D01*
X183214930Y-45006809D01*
X183214929Y-45006809D01*
X183214927Y-45006810D01*
X182741404Y-45101000D01*
X182258596Y-45101000D01*
X181785073Y-45006810D01*
X181785071Y-45006809D01*
X181785070Y-45006809D01*
X181339016Y-44822048D01*
X180937579Y-44553816D01*
X180937576Y-44553814D01*
X180596186Y-44212424D01*
X180517982Y-44095383D01*
X180327952Y-43810984D01*
X180143191Y-43364930D01*
X180049000Y-42891402D01*
X180049000Y-42408598D01*
X180143191Y-41935070D01*
X180327952Y-41489016D01*
X180596184Y-41087579D01*
X180596186Y-41087576D01*
X180937576Y-40746186D01*
X181085095Y-40647617D01*
X181339016Y-40477952D01*
X181785070Y-40293191D01*
X181785071Y-40293191D01*
X181785073Y-40293190D01*
X182258596Y-40199000D01*
X182741404Y-40199000D01*
X183214927Y-40293190D01*
X183214927Y-40293190D01*
G37*
G36*
X96715830Y-38414930D02*
X96715833Y-38414931D01*
X96715834Y-38414931D01*
X96923373Y-38477887D01*
X96923375Y-38477888D01*
X97114644Y-38580123D01*
X97282291Y-38717709D01*
X97419877Y-38885356D01*
X97522112Y-39076625D01*
X97585070Y-39284170D01*
X97606327Y-39500000D01*
X97585070Y-39715830D01*
X97522112Y-39923375D01*
X97419877Y-40114644D01*
X97282291Y-40282291D01*
X97114644Y-40419877D01*
X96923375Y-40522112D01*
X96923373Y-40522113D01*
X96715834Y-40585069D01*
X96715833Y-40585069D01*
X96715830Y-40585070D01*
X96554089Y-40601000D01*
X95445911Y-40601000D01*
X95284170Y-40585070D01*
X95284167Y-40585069D01*
X95284166Y-40585069D01*
X95076627Y-40522113D01*
X95076625Y-40522112D01*
X94885356Y-40419877D01*
X94717709Y-40282291D01*
X94580123Y-40114644D01*
X94477888Y-39923375D01*
X94414930Y-39715830D01*
X94393673Y-39500000D01*
X94414930Y-39284170D01*
X94477888Y-39076625D01*
X94580123Y-38885356D01*
X94717709Y-38717709D01*
X94885356Y-38580123D01*
X95076625Y-38477888D01*
X95076627Y-38477887D01*
X95284166Y-38414931D01*
X95284167Y-38414931D01*
X95284170Y-38414930D01*
X95445911Y-38399000D01*
X96554089Y-38399000D01*
X96715830Y-38414930D01*
X96715830Y-38414930D01*
G37*
G36*
X189215830Y-38414930D02*
X189215833Y-38414931D01*
X189215834Y-38414931D01*
X189423373Y-38477887D01*
X189423375Y-38477888D01*
X189614644Y-38580123D01*
X189782291Y-38717709D01*
X189919877Y-38885356D01*
X190022112Y-39076625D01*
X190085070Y-39284170D01*
X190106327Y-39500000D01*
X190085070Y-39715830D01*
X190022112Y-39923375D01*
X189919877Y-40114644D01*
X189782291Y-40282291D01*
X189614644Y-40419877D01*
X189423375Y-40522112D01*
X189423373Y-40522113D01*
X189215834Y-40585069D01*
X189215833Y-40585069D01*
X189215830Y-40585070D01*
X189054089Y-40601000D01*
X187945911Y-40601000D01*
X187784170Y-40585070D01*
X187784167Y-40585069D01*
X187784166Y-40585069D01*
X187576627Y-40522113D01*
X187576625Y-40522112D01*
X187385356Y-40419877D01*
X187217709Y-40282291D01*
X187080123Y-40114644D01*
X186977888Y-39923375D01*
X186914930Y-39715830D01*
X186893673Y-39500000D01*
X186914930Y-39284170D01*
X186977888Y-39076625D01*
X187080123Y-38885356D01*
X187217709Y-38717709D01*
X187385356Y-38580123D01*
X187576625Y-38477888D01*
X187576627Y-38477887D01*
X187784166Y-38414931D01*
X187784167Y-38414931D01*
X187784170Y-38414930D01*
X187945911Y-38399000D01*
X189054089Y-38399000D01*
X189215830Y-38414930D01*
X189215830Y-38414930D01*
G37*
M02*
