G04 #@! TF.GenerationSoftware,KiCad,Pcbnew,5.0.1*
G04 #@! TF.CreationDate,2019-04-07T22:06:23+02:00*
G04 #@! TF.ProjectId,ppboard,7070626F6172642E6B696361645F7063,rev?*
G04 #@! TF.SameCoordinates,Original*
G04 #@! TF.FileFunction,Soldermask,Top*
G04 #@! TF.FilePolarity,Negative*
%FSLAX46Y46*%
G04 Gerber Fmt 4.6, Leading zero omitted, Abs format (unit mm)*
G04 Created by KiCad (PCBNEW 5.0.1) date Sun Apr  7 22:06:23 2019*
%MOMM*%
%LPD*%
G01*
G04 APERTURE LIST*
%ADD10C,0.100000*%
G04 APERTURE END LIST*
D10*
G36*
X119979591Y-93002085D02*
X120013569Y-93012393D01*
X120044887Y-93029133D01*
X120072339Y-93051661D01*
X120094867Y-93079113D01*
X120111607Y-93110431D01*
X120121915Y-93144409D01*
X120126000Y-93185890D01*
X120126000Y-93862110D01*
X120121915Y-93903591D01*
X120111607Y-93937569D01*
X120094867Y-93968887D01*
X120072339Y-93996339D01*
X120044887Y-94018867D01*
X120013569Y-94035607D01*
X119979591Y-94045915D01*
X119938110Y-94050000D01*
X119336890Y-94050000D01*
X119295409Y-94045915D01*
X119261431Y-94035607D01*
X119230113Y-94018867D01*
X119202661Y-93996339D01*
X119180133Y-93968887D01*
X119163393Y-93937569D01*
X119153085Y-93903591D01*
X119149000Y-93862110D01*
X119149000Y-93185890D01*
X119153085Y-93144409D01*
X119163393Y-93110431D01*
X119180133Y-93079113D01*
X119202661Y-93051661D01*
X119230113Y-93029133D01*
X119261431Y-93012393D01*
X119295409Y-93002085D01*
X119336890Y-92998000D01*
X119938110Y-92998000D01*
X119979591Y-93002085D01*
X119979591Y-93002085D01*
G37*
G36*
X118404591Y-93002085D02*
X118438569Y-93012393D01*
X118469887Y-93029133D01*
X118497339Y-93051661D01*
X118519867Y-93079113D01*
X118536607Y-93110431D01*
X118546915Y-93144409D01*
X118551000Y-93185890D01*
X118551000Y-93862110D01*
X118546915Y-93903591D01*
X118536607Y-93937569D01*
X118519867Y-93968887D01*
X118497339Y-93996339D01*
X118469887Y-94018867D01*
X118438569Y-94035607D01*
X118404591Y-94045915D01*
X118363110Y-94050000D01*
X117761890Y-94050000D01*
X117720409Y-94045915D01*
X117686431Y-94035607D01*
X117655113Y-94018867D01*
X117627661Y-93996339D01*
X117605133Y-93968887D01*
X117588393Y-93937569D01*
X117578085Y-93903591D01*
X117574000Y-93862110D01*
X117574000Y-93185890D01*
X117578085Y-93144409D01*
X117588393Y-93110431D01*
X117605133Y-93079113D01*
X117627661Y-93051661D01*
X117655113Y-93029133D01*
X117686431Y-93012393D01*
X117720409Y-93002085D01*
X117761890Y-92998000D01*
X118363110Y-92998000D01*
X118404591Y-93002085D01*
X118404591Y-93002085D01*
G37*
G36*
X116541000Y-93909000D02*
X115539000Y-93909000D01*
X115539000Y-93007000D01*
X116541000Y-93007000D01*
X116541000Y-93909000D01*
X116541000Y-93909000D01*
G37*
G36*
X112245000Y-93459000D02*
X109643000Y-93459000D01*
X109643000Y-91557000D01*
X112245000Y-91557000D01*
X112245000Y-93459000D01*
X112245000Y-93459000D01*
G37*
G36*
X108245000Y-93459000D02*
X105643000Y-93459000D01*
X105643000Y-91557000D01*
X108245000Y-91557000D01*
X108245000Y-93459000D01*
X108245000Y-93459000D01*
G37*
G36*
X114541000Y-92959000D02*
X113539000Y-92959000D01*
X113539000Y-92057000D01*
X114541000Y-92057000D01*
X114541000Y-92959000D01*
X114541000Y-92959000D01*
G37*
G36*
X120251000Y-92231000D02*
X119349000Y-92231000D01*
X119349000Y-91229000D01*
X120251000Y-91229000D01*
X120251000Y-92231000D01*
X120251000Y-92231000D01*
G37*
G36*
X118351000Y-92231000D02*
X117449000Y-92231000D01*
X117449000Y-91229000D01*
X118351000Y-91229000D01*
X118351000Y-92231000D01*
X118351000Y-92231000D01*
G37*
G36*
X116541000Y-92009000D02*
X115539000Y-92009000D01*
X115539000Y-91107000D01*
X116541000Y-91107000D01*
X116541000Y-92009000D01*
X116541000Y-92009000D01*
G37*
G36*
X96715830Y-89414930D02*
X96715833Y-89414931D01*
X96715834Y-89414931D01*
X96923373Y-89477887D01*
X96923375Y-89477888D01*
X97114644Y-89580123D01*
X97282291Y-89717709D01*
X97419877Y-89885356D01*
X97505095Y-90044788D01*
X97522113Y-90076627D01*
X97562874Y-90211000D01*
X97585070Y-90284170D01*
X97606327Y-90500000D01*
X97585070Y-90715830D01*
X97522112Y-90923375D01*
X97419877Y-91114644D01*
X97282291Y-91282291D01*
X97114644Y-91419877D01*
X96923375Y-91522112D01*
X96923373Y-91522113D01*
X96715834Y-91585069D01*
X96715833Y-91585069D01*
X96715830Y-91585070D01*
X96554089Y-91601000D01*
X95445911Y-91601000D01*
X95284170Y-91585070D01*
X95284167Y-91585069D01*
X95284166Y-91585069D01*
X95076627Y-91522113D01*
X95076625Y-91522112D01*
X94885356Y-91419877D01*
X94717709Y-91282291D01*
X94580123Y-91114644D01*
X94477888Y-90923375D01*
X94414930Y-90715830D01*
X94393673Y-90500000D01*
X94414930Y-90284170D01*
X94437126Y-90211000D01*
X94477887Y-90076627D01*
X94494905Y-90044788D01*
X94580123Y-89885356D01*
X94717709Y-89717709D01*
X94885356Y-89580123D01*
X95076625Y-89477888D01*
X95076627Y-89477887D01*
X95284166Y-89414931D01*
X95284167Y-89414931D01*
X95284170Y-89414930D01*
X95445911Y-89399000D01*
X96554089Y-89399000D01*
X96715830Y-89414930D01*
X96715830Y-89414930D01*
G37*
G36*
X189315830Y-89414930D02*
X189315833Y-89414931D01*
X189315834Y-89414931D01*
X189523373Y-89477887D01*
X189523375Y-89477888D01*
X189714644Y-89580123D01*
X189882291Y-89717709D01*
X190019877Y-89885356D01*
X190105095Y-90044788D01*
X190122113Y-90076627D01*
X190162874Y-90211000D01*
X190185070Y-90284170D01*
X190206327Y-90500000D01*
X190185070Y-90715830D01*
X190122112Y-90923375D01*
X190019877Y-91114644D01*
X189882291Y-91282291D01*
X189714644Y-91419877D01*
X189523375Y-91522112D01*
X189523373Y-91522113D01*
X189315834Y-91585069D01*
X189315833Y-91585069D01*
X189315830Y-91585070D01*
X189154089Y-91601000D01*
X188045911Y-91601000D01*
X187884170Y-91585070D01*
X187884167Y-91585069D01*
X187884166Y-91585069D01*
X187676627Y-91522113D01*
X187676625Y-91522112D01*
X187485356Y-91419877D01*
X187317709Y-91282291D01*
X187180123Y-91114644D01*
X187077888Y-90923375D01*
X187014930Y-90715830D01*
X186993673Y-90500000D01*
X187014930Y-90284170D01*
X187037126Y-90211000D01*
X187077887Y-90076627D01*
X187094905Y-90044788D01*
X187180123Y-89885356D01*
X187317709Y-89717709D01*
X187485356Y-89580123D01*
X187676625Y-89477888D01*
X187676627Y-89477887D01*
X187884166Y-89414931D01*
X187884167Y-89414931D01*
X187884170Y-89414930D01*
X188045911Y-89399000D01*
X189154089Y-89399000D01*
X189315830Y-89414930D01*
X189315830Y-89414930D01*
G37*
G36*
X119301000Y-90231000D02*
X118399000Y-90231000D01*
X118399000Y-89229000D01*
X119301000Y-89229000D01*
X119301000Y-90231000D01*
X119301000Y-90231000D01*
G37*
G36*
X112539466Y-88713565D02*
X112578137Y-88725296D01*
X112613779Y-88744348D01*
X112645017Y-88769983D01*
X112670652Y-88801221D01*
X112689704Y-88836863D01*
X112701435Y-88875534D01*
X112706000Y-88921888D01*
X112706000Y-89998112D01*
X112701435Y-90044466D01*
X112689704Y-90083137D01*
X112670652Y-90118779D01*
X112645017Y-90150017D01*
X112613779Y-90175652D01*
X112578137Y-90194704D01*
X112539466Y-90206435D01*
X112493112Y-90211000D01*
X111841888Y-90211000D01*
X111795534Y-90206435D01*
X111756863Y-90194704D01*
X111721221Y-90175652D01*
X111689983Y-90150017D01*
X111664348Y-90118779D01*
X111645296Y-90083137D01*
X111633565Y-90044466D01*
X111629000Y-89998112D01*
X111629000Y-88921888D01*
X111633565Y-88875534D01*
X111645296Y-88836863D01*
X111664348Y-88801221D01*
X111689983Y-88769983D01*
X111721221Y-88744348D01*
X111756863Y-88725296D01*
X111795534Y-88713565D01*
X111841888Y-88709000D01*
X112493112Y-88709000D01*
X112539466Y-88713565D01*
X112539466Y-88713565D01*
G37*
G36*
X110664466Y-88713565D02*
X110703137Y-88725296D01*
X110738779Y-88744348D01*
X110770017Y-88769983D01*
X110795652Y-88801221D01*
X110814704Y-88836863D01*
X110826435Y-88875534D01*
X110831000Y-88921888D01*
X110831000Y-89998112D01*
X110826435Y-90044466D01*
X110814704Y-90083137D01*
X110795652Y-90118779D01*
X110770017Y-90150017D01*
X110738779Y-90175652D01*
X110703137Y-90194704D01*
X110664466Y-90206435D01*
X110618112Y-90211000D01*
X109966888Y-90211000D01*
X109920534Y-90206435D01*
X109881863Y-90194704D01*
X109846221Y-90175652D01*
X109814983Y-90150017D01*
X109789348Y-90118779D01*
X109770296Y-90083137D01*
X109758565Y-90044466D01*
X109754000Y-89998112D01*
X109754000Y-88921888D01*
X109758565Y-88875534D01*
X109770296Y-88836863D01*
X109789348Y-88801221D01*
X109814983Y-88769983D01*
X109846221Y-88744348D01*
X109881863Y-88725296D01*
X109920534Y-88713565D01*
X109966888Y-88709000D01*
X110618112Y-88709000D01*
X110664466Y-88713565D01*
X110664466Y-88713565D01*
G37*
G36*
X108729466Y-88713565D02*
X108768137Y-88725296D01*
X108803779Y-88744348D01*
X108835017Y-88769983D01*
X108860652Y-88801221D01*
X108879704Y-88836863D01*
X108891435Y-88875534D01*
X108896000Y-88921888D01*
X108896000Y-89998112D01*
X108891435Y-90044466D01*
X108879704Y-90083137D01*
X108860652Y-90118779D01*
X108835017Y-90150017D01*
X108803779Y-90175652D01*
X108768137Y-90194704D01*
X108729466Y-90206435D01*
X108683112Y-90211000D01*
X108031888Y-90211000D01*
X107985534Y-90206435D01*
X107946863Y-90194704D01*
X107911221Y-90175652D01*
X107879983Y-90150017D01*
X107854348Y-90118779D01*
X107835296Y-90083137D01*
X107823565Y-90044466D01*
X107819000Y-89998112D01*
X107819000Y-88921888D01*
X107823565Y-88875534D01*
X107835296Y-88836863D01*
X107854348Y-88801221D01*
X107879983Y-88769983D01*
X107911221Y-88744348D01*
X107946863Y-88725296D01*
X107985534Y-88713565D01*
X108031888Y-88709000D01*
X108683112Y-88709000D01*
X108729466Y-88713565D01*
X108729466Y-88713565D01*
G37*
G36*
X106854466Y-88713565D02*
X106893137Y-88725296D01*
X106928779Y-88744348D01*
X106960017Y-88769983D01*
X106985652Y-88801221D01*
X107004704Y-88836863D01*
X107016435Y-88875534D01*
X107021000Y-88921888D01*
X107021000Y-89998112D01*
X107016435Y-90044466D01*
X107004704Y-90083137D01*
X106985652Y-90118779D01*
X106960017Y-90150017D01*
X106928779Y-90175652D01*
X106893137Y-90194704D01*
X106854466Y-90206435D01*
X106808112Y-90211000D01*
X106156888Y-90211000D01*
X106110534Y-90206435D01*
X106071863Y-90194704D01*
X106036221Y-90175652D01*
X106004983Y-90150017D01*
X105979348Y-90118779D01*
X105960296Y-90083137D01*
X105948565Y-90044466D01*
X105944000Y-89998112D01*
X105944000Y-88921888D01*
X105948565Y-88875534D01*
X105960296Y-88836863D01*
X105979348Y-88801221D01*
X106004983Y-88769983D01*
X106036221Y-88744348D01*
X106071863Y-88725296D01*
X106110534Y-88713565D01*
X106156888Y-88709000D01*
X106808112Y-88709000D01*
X106854466Y-88713565D01*
X106854466Y-88713565D01*
G37*
G36*
X102714927Y-84993190D02*
X102714929Y-84993191D01*
X102714930Y-84993191D01*
X103160984Y-85177952D01*
X103414905Y-85347617D01*
X103562424Y-85446186D01*
X103903814Y-85787576D01*
X103903816Y-85787579D01*
X104172048Y-86189016D01*
X104238315Y-86349000D01*
X104356810Y-86635073D01*
X104451000Y-87108596D01*
X104451000Y-87591404D01*
X104363672Y-88030431D01*
X104356809Y-88064930D01*
X104172048Y-88510984D01*
X103966091Y-88819220D01*
X103903814Y-88912424D01*
X103562424Y-89253814D01*
X103562421Y-89253816D01*
X103160984Y-89522048D01*
X102714930Y-89706809D01*
X102714929Y-89706809D01*
X102714927Y-89706810D01*
X102241404Y-89801000D01*
X101758596Y-89801000D01*
X101285073Y-89706810D01*
X101285071Y-89706809D01*
X101285070Y-89706809D01*
X100839016Y-89522048D01*
X100437579Y-89253816D01*
X100437576Y-89253814D01*
X100096186Y-88912424D01*
X100033909Y-88819220D01*
X99827952Y-88510984D01*
X99643191Y-88064930D01*
X99636329Y-88030431D01*
X99549000Y-87591404D01*
X99549000Y-87108596D01*
X99643190Y-86635073D01*
X99761685Y-86349000D01*
X99827952Y-86189016D01*
X100096184Y-85787579D01*
X100096186Y-85787576D01*
X100437576Y-85446186D01*
X100585095Y-85347617D01*
X100839016Y-85177952D01*
X101285070Y-84993191D01*
X101285071Y-84993191D01*
X101285073Y-84993190D01*
X101758596Y-84899000D01*
X102241404Y-84899000D01*
X102714927Y-84993190D01*
X102714927Y-84993190D01*
G37*
G36*
X183314927Y-84993190D02*
X183314929Y-84993191D01*
X183314930Y-84993191D01*
X183760984Y-85177952D01*
X184014905Y-85347617D01*
X184162424Y-85446186D01*
X184503814Y-85787576D01*
X184503816Y-85787579D01*
X184772048Y-86189016D01*
X184838315Y-86349000D01*
X184956810Y-86635073D01*
X185051000Y-87108596D01*
X185051000Y-87591404D01*
X184963672Y-88030431D01*
X184956809Y-88064930D01*
X184772048Y-88510984D01*
X184566091Y-88819220D01*
X184503814Y-88912424D01*
X184162424Y-89253814D01*
X184162421Y-89253816D01*
X183760984Y-89522048D01*
X183314930Y-89706809D01*
X183314929Y-89706809D01*
X183314927Y-89706810D01*
X182841404Y-89801000D01*
X182358596Y-89801000D01*
X181885073Y-89706810D01*
X181885071Y-89706809D01*
X181885070Y-89706809D01*
X181439016Y-89522048D01*
X181037579Y-89253816D01*
X181037576Y-89253814D01*
X180696186Y-88912424D01*
X180633909Y-88819220D01*
X180427952Y-88510984D01*
X180243191Y-88064930D01*
X180236329Y-88030431D01*
X180149000Y-87591404D01*
X180149000Y-87108596D01*
X180243190Y-86635073D01*
X180361685Y-86349000D01*
X180427952Y-86189016D01*
X180696184Y-85787579D01*
X180696186Y-85787576D01*
X181037576Y-85446186D01*
X181185095Y-85347617D01*
X181439016Y-85177952D01*
X181885070Y-84993191D01*
X181885071Y-84993191D01*
X181885073Y-84993190D01*
X182358596Y-84899000D01*
X182841404Y-84899000D01*
X183314927Y-84993190D01*
X183314927Y-84993190D01*
G37*
G36*
X116106091Y-87922085D02*
X116140069Y-87932393D01*
X116171387Y-87949133D01*
X116198839Y-87971661D01*
X116221367Y-87999113D01*
X116238107Y-88030431D01*
X116248415Y-88064409D01*
X116252500Y-88105890D01*
X116252500Y-88782110D01*
X116248415Y-88823591D01*
X116238107Y-88857569D01*
X116221367Y-88888887D01*
X116198839Y-88916339D01*
X116171387Y-88938867D01*
X116140069Y-88955607D01*
X116106091Y-88965915D01*
X116064610Y-88970000D01*
X115463390Y-88970000D01*
X115421909Y-88965915D01*
X115387931Y-88955607D01*
X115356613Y-88938867D01*
X115329161Y-88916339D01*
X115306633Y-88888887D01*
X115289893Y-88857569D01*
X115279585Y-88823591D01*
X115275500Y-88782110D01*
X115275500Y-88105890D01*
X115279585Y-88064409D01*
X115289893Y-88030431D01*
X115306633Y-87999113D01*
X115329161Y-87971661D01*
X115356613Y-87949133D01*
X115387931Y-87932393D01*
X115421909Y-87922085D01*
X115463390Y-87918000D01*
X116064610Y-87918000D01*
X116106091Y-87922085D01*
X116106091Y-87922085D01*
G37*
G36*
X114531091Y-87922085D02*
X114565069Y-87932393D01*
X114596387Y-87949133D01*
X114623839Y-87971661D01*
X114646367Y-87999113D01*
X114663107Y-88030431D01*
X114673415Y-88064409D01*
X114677500Y-88105890D01*
X114677500Y-88782110D01*
X114673415Y-88823591D01*
X114663107Y-88857569D01*
X114646367Y-88888887D01*
X114623839Y-88916339D01*
X114596387Y-88938867D01*
X114565069Y-88955607D01*
X114531091Y-88965915D01*
X114489610Y-88970000D01*
X113888390Y-88970000D01*
X113846909Y-88965915D01*
X113812931Y-88955607D01*
X113781613Y-88938867D01*
X113754161Y-88916339D01*
X113731633Y-88888887D01*
X113714893Y-88857569D01*
X113704585Y-88823591D01*
X113700500Y-88782110D01*
X113700500Y-88105890D01*
X113704585Y-88064409D01*
X113714893Y-88030431D01*
X113731633Y-87999113D01*
X113754161Y-87971661D01*
X113781613Y-87949133D01*
X113812931Y-87932393D01*
X113846909Y-87922085D01*
X113888390Y-87918000D01*
X114489610Y-87918000D01*
X114531091Y-87922085D01*
X114531091Y-87922085D01*
G37*
G36*
X119801000Y-88951000D02*
X117899000Y-88951000D01*
X117899000Y-86349000D01*
X119801000Y-86349000D01*
X119801000Y-88951000D01*
X119801000Y-88951000D01*
G37*
G36*
X112253000Y-87525000D02*
X109651000Y-87525000D01*
X109651000Y-85623000D01*
X112253000Y-85623000D01*
X112253000Y-87525000D01*
X112253000Y-87525000D01*
G37*
G36*
X108253000Y-87525000D02*
X105651000Y-87525000D01*
X105651000Y-85623000D01*
X108253000Y-85623000D01*
X108253000Y-87525000D01*
X108253000Y-87525000D01*
G37*
G36*
X116641000Y-87075000D02*
X115639000Y-87075000D01*
X115639000Y-85273000D01*
X116641000Y-85273000D01*
X116641000Y-87075000D01*
X116641000Y-87075000D01*
G37*
G36*
X114441000Y-87075000D02*
X113439000Y-87075000D01*
X113439000Y-85273000D01*
X114441000Y-85273000D01*
X114441000Y-87075000D01*
X114441000Y-87075000D01*
G37*
G36*
X119801000Y-84951000D02*
X117899000Y-84951000D01*
X117899000Y-82349000D01*
X119801000Y-82349000D01*
X119801000Y-84951000D01*
X119801000Y-84951000D01*
G37*
G36*
X102714927Y-77793190D02*
X102714929Y-77793191D01*
X102714930Y-77793191D01*
X103160984Y-77977952D01*
X103414905Y-78147617D01*
X103562424Y-78246186D01*
X103903814Y-78587576D01*
X103903816Y-78587579D01*
X104172048Y-78989016D01*
X104356809Y-79435070D01*
X104356810Y-79435073D01*
X104451000Y-79908596D01*
X104451000Y-80391404D01*
X104385660Y-80719890D01*
X104356809Y-80864930D01*
X104172048Y-81310984D01*
X103982018Y-81595383D01*
X103903814Y-81712424D01*
X103562424Y-82053814D01*
X103562421Y-82053816D01*
X103160984Y-82322048D01*
X102714930Y-82506809D01*
X102714929Y-82506809D01*
X102714927Y-82506810D01*
X102241404Y-82601000D01*
X101758596Y-82601000D01*
X101285073Y-82506810D01*
X101285071Y-82506809D01*
X101285070Y-82506809D01*
X100839016Y-82322048D01*
X100437579Y-82053816D01*
X100437576Y-82053814D01*
X100096186Y-81712424D01*
X100017982Y-81595383D01*
X99827952Y-81310984D01*
X99643191Y-80864930D01*
X99614341Y-80719890D01*
X99549000Y-80391404D01*
X99549000Y-79908596D01*
X99643190Y-79435073D01*
X99643191Y-79435070D01*
X99827952Y-78989016D01*
X100096184Y-78587579D01*
X100096186Y-78587576D01*
X100437576Y-78246186D01*
X100585095Y-78147617D01*
X100839016Y-77977952D01*
X101285070Y-77793191D01*
X101285071Y-77793191D01*
X101285073Y-77793190D01*
X101758596Y-77699000D01*
X102241404Y-77699000D01*
X102714927Y-77793190D01*
X102714927Y-77793190D01*
G37*
G36*
X183314927Y-77793190D02*
X183314929Y-77793191D01*
X183314930Y-77793191D01*
X183760984Y-77977952D01*
X184014905Y-78147617D01*
X184162424Y-78246186D01*
X184503814Y-78587576D01*
X184503816Y-78587579D01*
X184772048Y-78989016D01*
X184956809Y-79435070D01*
X184956810Y-79435073D01*
X185051000Y-79908596D01*
X185051000Y-80391404D01*
X184985660Y-80719890D01*
X184956809Y-80864930D01*
X184772048Y-81310984D01*
X184582018Y-81595383D01*
X184503814Y-81712424D01*
X184162424Y-82053814D01*
X184162421Y-82053816D01*
X183760984Y-82322048D01*
X183314930Y-82506809D01*
X183314929Y-82506809D01*
X183314927Y-82506810D01*
X182841404Y-82601000D01*
X182358596Y-82601000D01*
X181885073Y-82506810D01*
X181885071Y-82506809D01*
X181885070Y-82506809D01*
X181439016Y-82322048D01*
X181037579Y-82053816D01*
X181037576Y-82053814D01*
X180696186Y-81712424D01*
X180617982Y-81595383D01*
X180427952Y-81310984D01*
X180243191Y-80864930D01*
X180214341Y-80719890D01*
X180149000Y-80391404D01*
X180149000Y-79908596D01*
X180243190Y-79435073D01*
X180243191Y-79435070D01*
X180427952Y-78989016D01*
X180696184Y-78587579D01*
X180696186Y-78587576D01*
X181037576Y-78246186D01*
X181185095Y-78147617D01*
X181439016Y-77977952D01*
X181885070Y-77793191D01*
X181885071Y-77793191D01*
X181885073Y-77793190D01*
X182358596Y-77699000D01*
X182841404Y-77699000D01*
X183314927Y-77793190D01*
X183314927Y-77793190D01*
G37*
G36*
X109357996Y-79027051D02*
X109391653Y-79037261D01*
X109422667Y-79053838D01*
X109449852Y-79076148D01*
X109472162Y-79103333D01*
X109488739Y-79134347D01*
X109498949Y-79168004D01*
X109503000Y-79209138D01*
X109503000Y-80538862D01*
X109498949Y-80579996D01*
X109488739Y-80613653D01*
X109472162Y-80644667D01*
X109449852Y-80671852D01*
X109422667Y-80694162D01*
X109391653Y-80710739D01*
X109357996Y-80720949D01*
X109316862Y-80725000D01*
X106087138Y-80725000D01*
X106046004Y-80720949D01*
X106012347Y-80710739D01*
X105981333Y-80694162D01*
X105954148Y-80671852D01*
X105931838Y-80644667D01*
X105915261Y-80613653D01*
X105905051Y-80579996D01*
X105901000Y-80538862D01*
X105901000Y-79209138D01*
X105905051Y-79168004D01*
X105915261Y-79134347D01*
X105931838Y-79103333D01*
X105954148Y-79076148D01*
X105981333Y-79053838D01*
X106012347Y-79037261D01*
X106046004Y-79027051D01*
X106087138Y-79023000D01*
X109316862Y-79023000D01*
X109357996Y-79027051D01*
X109357996Y-79027051D01*
G37*
G36*
X114957996Y-79027051D02*
X114991653Y-79037261D01*
X115022667Y-79053838D01*
X115049852Y-79076148D01*
X115072162Y-79103333D01*
X115088739Y-79134347D01*
X115098949Y-79168004D01*
X115103000Y-79209138D01*
X115103000Y-80538862D01*
X115098949Y-80579996D01*
X115088739Y-80613653D01*
X115072162Y-80644667D01*
X115049852Y-80671852D01*
X115022667Y-80694162D01*
X114991653Y-80710739D01*
X114957996Y-80720949D01*
X114916862Y-80725000D01*
X111687138Y-80725000D01*
X111646004Y-80720949D01*
X111612347Y-80710739D01*
X111581333Y-80694162D01*
X111554148Y-80671852D01*
X111531838Y-80644667D01*
X111515261Y-80613653D01*
X111505051Y-80579996D01*
X111501000Y-80538862D01*
X111501000Y-79209138D01*
X111505051Y-79168004D01*
X111515261Y-79134347D01*
X111531838Y-79103333D01*
X111554148Y-79076148D01*
X111581333Y-79053838D01*
X111612347Y-79037261D01*
X111646004Y-79027051D01*
X111687138Y-79023000D01*
X114916862Y-79023000D01*
X114957996Y-79027051D01*
X114957996Y-79027051D01*
G37*
G36*
X96715830Y-75914930D02*
X96715833Y-75914931D01*
X96715834Y-75914931D01*
X96923373Y-75977887D01*
X96923375Y-75977888D01*
X97114644Y-76080123D01*
X97282291Y-76217709D01*
X97419877Y-76385356D01*
X97522112Y-76576625D01*
X97585070Y-76784170D01*
X97606327Y-77000000D01*
X97585070Y-77215830D01*
X97522112Y-77423375D01*
X97419877Y-77614644D01*
X97282291Y-77782291D01*
X97114644Y-77919877D01*
X96923375Y-78022112D01*
X96923373Y-78022113D01*
X96715834Y-78085069D01*
X96715833Y-78085069D01*
X96715830Y-78085070D01*
X96554089Y-78101000D01*
X95445911Y-78101000D01*
X95284170Y-78085070D01*
X95284167Y-78085069D01*
X95284166Y-78085069D01*
X95076627Y-78022113D01*
X95076625Y-78022112D01*
X94885356Y-77919877D01*
X94717709Y-77782291D01*
X94580123Y-77614644D01*
X94477888Y-77423375D01*
X94414930Y-77215830D01*
X94393673Y-77000000D01*
X94414930Y-76784170D01*
X94477888Y-76576625D01*
X94580123Y-76385356D01*
X94717709Y-76217709D01*
X94885356Y-76080123D01*
X95076625Y-75977888D01*
X95076627Y-75977887D01*
X95284166Y-75914931D01*
X95284167Y-75914931D01*
X95284170Y-75914930D01*
X95445911Y-75899000D01*
X96554089Y-75899000D01*
X96715830Y-75914930D01*
X96715830Y-75914930D01*
G37*
G36*
X189315830Y-75914930D02*
X189315833Y-75914931D01*
X189315834Y-75914931D01*
X189523373Y-75977887D01*
X189523375Y-75977888D01*
X189714644Y-76080123D01*
X189882291Y-76217709D01*
X190019877Y-76385356D01*
X190122112Y-76576625D01*
X190185070Y-76784170D01*
X190206327Y-77000000D01*
X190185070Y-77215830D01*
X190122112Y-77423375D01*
X190019877Y-77614644D01*
X189882291Y-77782291D01*
X189714644Y-77919877D01*
X189523375Y-78022112D01*
X189523373Y-78022113D01*
X189315834Y-78085069D01*
X189315833Y-78085069D01*
X189315830Y-78085070D01*
X189154089Y-78101000D01*
X188045911Y-78101000D01*
X187884170Y-78085070D01*
X187884167Y-78085069D01*
X187884166Y-78085069D01*
X187676627Y-78022113D01*
X187676625Y-78022112D01*
X187485356Y-77919877D01*
X187317709Y-77782291D01*
X187180123Y-77614644D01*
X187077888Y-77423375D01*
X187014930Y-77215830D01*
X186993673Y-77000000D01*
X187014930Y-76784170D01*
X187077888Y-76576625D01*
X187180123Y-76385356D01*
X187317709Y-76217709D01*
X187485356Y-76080123D01*
X187676625Y-75977888D01*
X187676627Y-75977887D01*
X187884166Y-75914931D01*
X187884167Y-75914931D01*
X187884170Y-75914930D01*
X188045911Y-75899000D01*
X189154089Y-75899000D01*
X189315830Y-75914930D01*
X189315830Y-75914930D01*
G37*
G36*
X181817966Y-72521065D02*
X181856637Y-72532796D01*
X181892279Y-72551848D01*
X181923517Y-72577483D01*
X181949152Y-72608721D01*
X181968204Y-72644363D01*
X181979935Y-72683034D01*
X181984500Y-72729388D01*
X181984500Y-73805612D01*
X181979935Y-73851966D01*
X181968204Y-73890637D01*
X181949152Y-73926279D01*
X181923517Y-73957517D01*
X181892279Y-73983152D01*
X181856637Y-74002204D01*
X181817966Y-74013935D01*
X181771612Y-74018500D01*
X181120388Y-74018500D01*
X181074034Y-74013935D01*
X181035363Y-74002204D01*
X180999721Y-73983152D01*
X180968483Y-73957517D01*
X180942848Y-73926279D01*
X180923796Y-73890637D01*
X180912065Y-73851966D01*
X180907500Y-73805612D01*
X180907500Y-72729388D01*
X180912065Y-72683034D01*
X180923796Y-72644363D01*
X180942848Y-72608721D01*
X180968483Y-72577483D01*
X180999721Y-72551848D01*
X181035363Y-72532796D01*
X181074034Y-72521065D01*
X181120388Y-72516500D01*
X181771612Y-72516500D01*
X181817966Y-72521065D01*
X181817966Y-72521065D01*
G37*
G36*
X179942966Y-72521065D02*
X179981637Y-72532796D01*
X180017279Y-72551848D01*
X180048517Y-72577483D01*
X180074152Y-72608721D01*
X180093204Y-72644363D01*
X180104935Y-72683034D01*
X180109500Y-72729388D01*
X180109500Y-73805612D01*
X180104935Y-73851966D01*
X180093204Y-73890637D01*
X180074152Y-73926279D01*
X180048517Y-73957517D01*
X180017279Y-73983152D01*
X179981637Y-74002204D01*
X179942966Y-74013935D01*
X179896612Y-74018500D01*
X179245388Y-74018500D01*
X179199034Y-74013935D01*
X179160363Y-74002204D01*
X179124721Y-73983152D01*
X179093483Y-73957517D01*
X179067848Y-73926279D01*
X179048796Y-73890637D01*
X179037065Y-73851966D01*
X179032500Y-73805612D01*
X179032500Y-72729388D01*
X179037065Y-72683034D01*
X179048796Y-72644363D01*
X179067848Y-72608721D01*
X179093483Y-72577483D01*
X179124721Y-72551848D01*
X179160363Y-72532796D01*
X179199034Y-72521065D01*
X179245388Y-72516500D01*
X179896612Y-72516500D01*
X179942966Y-72521065D01*
X179942966Y-72521065D01*
G37*
G36*
X96715830Y-70664930D02*
X96715833Y-70664931D01*
X96715834Y-70664931D01*
X96923373Y-70727887D01*
X96923375Y-70727888D01*
X97114644Y-70830123D01*
X97282291Y-70967709D01*
X97419877Y-71135356D01*
X97502623Y-71290164D01*
X97522113Y-71326627D01*
X97572657Y-71493250D01*
X97585070Y-71534170D01*
X97606327Y-71750000D01*
X97585070Y-71965830D01*
X97585069Y-71965833D01*
X97585069Y-71965834D01*
X97532671Y-72138569D01*
X97522112Y-72173375D01*
X97419877Y-72364644D01*
X97282291Y-72532291D01*
X97114644Y-72669877D01*
X96996133Y-72733222D01*
X96923373Y-72772113D01*
X96715834Y-72835069D01*
X96715833Y-72835069D01*
X96715830Y-72835070D01*
X96554089Y-72851000D01*
X95445911Y-72851000D01*
X95284170Y-72835070D01*
X95284167Y-72835069D01*
X95284166Y-72835069D01*
X95076627Y-72772113D01*
X95003867Y-72733222D01*
X94885356Y-72669877D01*
X94717709Y-72532291D01*
X94580123Y-72364644D01*
X94477888Y-72173375D01*
X94467330Y-72138569D01*
X94414931Y-71965834D01*
X94414931Y-71965833D01*
X94414930Y-71965830D01*
X94393673Y-71750000D01*
X94414930Y-71534170D01*
X94427343Y-71493250D01*
X94477887Y-71326627D01*
X94497377Y-71290164D01*
X94580123Y-71135356D01*
X94717709Y-70967709D01*
X94885356Y-70830123D01*
X95076625Y-70727888D01*
X95076627Y-70727887D01*
X95284166Y-70664931D01*
X95284167Y-70664931D01*
X95284170Y-70664930D01*
X95445911Y-70649000D01*
X96554089Y-70649000D01*
X96715830Y-70664930D01*
X96715830Y-70664930D01*
G37*
G36*
X174076000Y-72476000D02*
X173074000Y-72476000D01*
X173074000Y-71574000D01*
X174076000Y-71574000D01*
X174076000Y-72476000D01*
X174076000Y-72476000D01*
G37*
G36*
X161504591Y-71253085D02*
X161538569Y-71263393D01*
X161569887Y-71280133D01*
X161597339Y-71302661D01*
X161619867Y-71330113D01*
X161636607Y-71361431D01*
X161646915Y-71395409D01*
X161651000Y-71436890D01*
X161651000Y-72113110D01*
X161646915Y-72154591D01*
X161636607Y-72188569D01*
X161619867Y-72219887D01*
X161597339Y-72247339D01*
X161569887Y-72269867D01*
X161538569Y-72286607D01*
X161504591Y-72296915D01*
X161463110Y-72301000D01*
X160861890Y-72301000D01*
X160820409Y-72296915D01*
X160786431Y-72286607D01*
X160755113Y-72269867D01*
X160727661Y-72247339D01*
X160705133Y-72219887D01*
X160688393Y-72188569D01*
X160678085Y-72154591D01*
X160674000Y-72113110D01*
X160674000Y-71436890D01*
X160678085Y-71395409D01*
X160688393Y-71361431D01*
X160705133Y-71330113D01*
X160727661Y-71302661D01*
X160755113Y-71280133D01*
X160786431Y-71263393D01*
X160820409Y-71253085D01*
X160861890Y-71249000D01*
X161463110Y-71249000D01*
X161504591Y-71253085D01*
X161504591Y-71253085D01*
G37*
G36*
X159929591Y-71253085D02*
X159963569Y-71263393D01*
X159994887Y-71280133D01*
X160022339Y-71302661D01*
X160044867Y-71330113D01*
X160061607Y-71361431D01*
X160071915Y-71395409D01*
X160076000Y-71436890D01*
X160076000Y-72113110D01*
X160071915Y-72154591D01*
X160061607Y-72188569D01*
X160044867Y-72219887D01*
X160022339Y-72247339D01*
X159994887Y-72269867D01*
X159963569Y-72286607D01*
X159929591Y-72296915D01*
X159888110Y-72301000D01*
X159286890Y-72301000D01*
X159245409Y-72296915D01*
X159211431Y-72286607D01*
X159180113Y-72269867D01*
X159152661Y-72247339D01*
X159130133Y-72219887D01*
X159113393Y-72188569D01*
X159103085Y-72154591D01*
X159099000Y-72113110D01*
X159099000Y-71436890D01*
X159103085Y-71395409D01*
X159113393Y-71361431D01*
X159130133Y-71330113D01*
X159152661Y-71302661D01*
X159180113Y-71280133D01*
X159211431Y-71263393D01*
X159245409Y-71253085D01*
X159286890Y-71249000D01*
X159888110Y-71249000D01*
X159929591Y-71253085D01*
X159929591Y-71253085D01*
G37*
G36*
X178154591Y-71203085D02*
X178188569Y-71213393D01*
X178219887Y-71230133D01*
X178247339Y-71252661D01*
X178269867Y-71280113D01*
X178286607Y-71311431D01*
X178296915Y-71345409D01*
X178301000Y-71386890D01*
X178301000Y-72063110D01*
X178296915Y-72104591D01*
X178286607Y-72138569D01*
X178269867Y-72169887D01*
X178247339Y-72197339D01*
X178219887Y-72219867D01*
X178188569Y-72236607D01*
X178154591Y-72246915D01*
X178113110Y-72251000D01*
X177511890Y-72251000D01*
X177470409Y-72246915D01*
X177436431Y-72236607D01*
X177405113Y-72219867D01*
X177377661Y-72197339D01*
X177355133Y-72169887D01*
X177338393Y-72138569D01*
X177328085Y-72104591D01*
X177324000Y-72063110D01*
X177324000Y-71386890D01*
X177328085Y-71345409D01*
X177338393Y-71311431D01*
X177355133Y-71280113D01*
X177377661Y-71252661D01*
X177405113Y-71230133D01*
X177436431Y-71213393D01*
X177470409Y-71203085D01*
X177511890Y-71199000D01*
X178113110Y-71199000D01*
X178154591Y-71203085D01*
X178154591Y-71203085D01*
G37*
G36*
X176579591Y-71203085D02*
X176613569Y-71213393D01*
X176644887Y-71230133D01*
X176672339Y-71252661D01*
X176694867Y-71280113D01*
X176711607Y-71311431D01*
X176721915Y-71345409D01*
X176726000Y-71386890D01*
X176726000Y-72063110D01*
X176721915Y-72104591D01*
X176711607Y-72138569D01*
X176694867Y-72169887D01*
X176672339Y-72197339D01*
X176644887Y-72219867D01*
X176613569Y-72236607D01*
X176579591Y-72246915D01*
X176538110Y-72251000D01*
X175936890Y-72251000D01*
X175895409Y-72246915D01*
X175861431Y-72236607D01*
X175830113Y-72219867D01*
X175802661Y-72197339D01*
X175780133Y-72169887D01*
X175763393Y-72138569D01*
X175753085Y-72104591D01*
X175749000Y-72063110D01*
X175749000Y-71386890D01*
X175753085Y-71345409D01*
X175763393Y-71311431D01*
X175780133Y-71280113D01*
X175802661Y-71252661D01*
X175830113Y-71230133D01*
X175861431Y-71213393D01*
X175895409Y-71203085D01*
X175936890Y-71199000D01*
X176538110Y-71199000D01*
X176579591Y-71203085D01*
X176579591Y-71203085D01*
G37*
G36*
X170601000Y-72101000D02*
X167999000Y-72101000D01*
X167999000Y-70199000D01*
X170601000Y-70199000D01*
X170601000Y-72101000D01*
X170601000Y-72101000D01*
G37*
G36*
X166601000Y-72101000D02*
X163999000Y-72101000D01*
X163999000Y-70199000D01*
X166601000Y-70199000D01*
X166601000Y-72101000D01*
X166601000Y-72101000D01*
G37*
G36*
X172076000Y-71526000D02*
X171074000Y-71526000D01*
X171074000Y-70624000D01*
X172076000Y-70624000D01*
X172076000Y-71526000D01*
X172076000Y-71526000D01*
G37*
G36*
X158101000Y-71526000D02*
X157099000Y-71526000D01*
X157099000Y-70624000D01*
X158101000Y-70624000D01*
X158101000Y-71526000D01*
X158101000Y-71526000D01*
G37*
G36*
X117276000Y-71136000D02*
X116374000Y-71136000D01*
X116374000Y-70334000D01*
X117276000Y-70334000D01*
X117276000Y-71136000D01*
X117276000Y-71136000D01*
G37*
G36*
X122776000Y-67316000D02*
X122396000Y-67316000D01*
X122371614Y-67318402D01*
X122348165Y-67325515D01*
X122326554Y-67337066D01*
X122307612Y-67352612D01*
X122292066Y-67371554D01*
X122280515Y-67393165D01*
X122273402Y-67416614D01*
X122271000Y-67441000D01*
X122271000Y-67659000D01*
X122273402Y-67683386D01*
X122280515Y-67706835D01*
X122292066Y-67728446D01*
X122307612Y-67747388D01*
X122326554Y-67762934D01*
X122348165Y-67774485D01*
X122371614Y-67781598D01*
X122396000Y-67784000D01*
X122776000Y-67784000D01*
X122776000Y-68586000D01*
X122396000Y-68586000D01*
X122371614Y-68588402D01*
X122348165Y-68595515D01*
X122326554Y-68607066D01*
X122307612Y-68622612D01*
X122292066Y-68641554D01*
X122280515Y-68663165D01*
X122273402Y-68686614D01*
X122271000Y-68711000D01*
X122271000Y-68939000D01*
X122273402Y-68963386D01*
X122280515Y-68986835D01*
X122292066Y-69008446D01*
X122307612Y-69027388D01*
X122326554Y-69042934D01*
X122348165Y-69054485D01*
X122371614Y-69061598D01*
X122396000Y-69064000D01*
X122776000Y-69064000D01*
X122776000Y-69866000D01*
X122396000Y-69866000D01*
X122371614Y-69868402D01*
X122348165Y-69875515D01*
X122326554Y-69887066D01*
X122307612Y-69902612D01*
X122292066Y-69921554D01*
X122280515Y-69943165D01*
X122273402Y-69966614D01*
X122271000Y-69991000D01*
X122271000Y-70209000D01*
X122273402Y-70233386D01*
X122280515Y-70256835D01*
X122292066Y-70278446D01*
X122307612Y-70297388D01*
X122326554Y-70312934D01*
X122348165Y-70324485D01*
X122371614Y-70331598D01*
X122396000Y-70334000D01*
X122776000Y-70334000D01*
X122776000Y-71136000D01*
X121797742Y-71136000D01*
X121796835Y-71135515D01*
X121773386Y-71128402D01*
X121749000Y-71126000D01*
X117879000Y-71126000D01*
X117879000Y-66524000D01*
X121749000Y-66524000D01*
X121773386Y-66521598D01*
X121796835Y-66514485D01*
X121797742Y-66514000D01*
X122776000Y-66514000D01*
X122776000Y-67316000D01*
X122776000Y-67316000D01*
G37*
G36*
X150626000Y-71076000D02*
X148024000Y-71076000D01*
X148024000Y-69174000D01*
X150626000Y-69174000D01*
X150626000Y-71076000D01*
X150626000Y-71076000D01*
G37*
G36*
X154626000Y-71076000D02*
X152024000Y-71076000D01*
X152024000Y-69174000D01*
X154626000Y-69174000D01*
X154626000Y-71076000D01*
X154626000Y-71076000D01*
G37*
G36*
X102714927Y-66243190D02*
X102714929Y-66243191D01*
X102714930Y-66243191D01*
X103160984Y-66427952D01*
X103483818Y-66643663D01*
X103562424Y-66696186D01*
X103903814Y-67037576D01*
X103903816Y-67037579D01*
X104172048Y-67439016D01*
X104348795Y-67865722D01*
X104356810Y-67885073D01*
X104451000Y-68358596D01*
X104451000Y-68841404D01*
X104358519Y-69306337D01*
X104356809Y-69314930D01*
X104172048Y-69760984D01*
X104072859Y-69909430D01*
X103903814Y-70162424D01*
X103562424Y-70503814D01*
X103562421Y-70503816D01*
X103160984Y-70772048D01*
X102714930Y-70956809D01*
X102714929Y-70956809D01*
X102714927Y-70956810D01*
X102241404Y-71051000D01*
X101758596Y-71051000D01*
X101285073Y-70956810D01*
X101285071Y-70956809D01*
X101285070Y-70956809D01*
X100839016Y-70772048D01*
X100437579Y-70503816D01*
X100437576Y-70503814D01*
X100096186Y-70162424D01*
X99927141Y-69909430D01*
X99827952Y-69760984D01*
X99643191Y-69314930D01*
X99641482Y-69306337D01*
X99549000Y-68841404D01*
X99549000Y-68358596D01*
X99643190Y-67885073D01*
X99651205Y-67865722D01*
X99827952Y-67439016D01*
X100096184Y-67037579D01*
X100096186Y-67037576D01*
X100437576Y-66696186D01*
X100516182Y-66643663D01*
X100839016Y-66427952D01*
X101285070Y-66243191D01*
X101285071Y-66243191D01*
X101285073Y-66243190D01*
X101758596Y-66149000D01*
X102241404Y-66149000D01*
X102714927Y-66243190D01*
X102714927Y-66243190D01*
G37*
G36*
X156101000Y-70576000D02*
X155099000Y-70576000D01*
X155099000Y-69674000D01*
X156101000Y-69674000D01*
X156101000Y-70576000D01*
X156101000Y-70576000D01*
G37*
G36*
X174076000Y-70576000D02*
X173074000Y-70576000D01*
X173074000Y-69674000D01*
X174076000Y-69674000D01*
X174076000Y-70576000D01*
X174076000Y-70576000D01*
G37*
G36*
X160751000Y-70476000D02*
X159849000Y-70476000D01*
X159849000Y-69474000D01*
X160751000Y-69474000D01*
X160751000Y-70476000D01*
X160751000Y-70476000D01*
G37*
G36*
X177476000Y-70451000D02*
X176574000Y-70451000D01*
X176574000Y-69449000D01*
X177476000Y-69449000D01*
X177476000Y-70451000D01*
X177476000Y-70451000D01*
G37*
G36*
X117276000Y-69866000D02*
X116374000Y-69866000D01*
X116374000Y-69064000D01*
X117276000Y-69064000D01*
X117276000Y-69866000D01*
X117276000Y-69866000D01*
G37*
G36*
X158101000Y-69626000D02*
X157099000Y-69626000D01*
X157099000Y-68724000D01*
X158101000Y-68724000D01*
X158101000Y-69626000D01*
X158101000Y-69626000D01*
G37*
G36*
X170359466Y-67928565D02*
X170398137Y-67940296D01*
X170433779Y-67959348D01*
X170465017Y-67984983D01*
X170490652Y-68016221D01*
X170509704Y-68051863D01*
X170521435Y-68090534D01*
X170526000Y-68136888D01*
X170526000Y-69213112D01*
X170521435Y-69259466D01*
X170509704Y-69298137D01*
X170490652Y-69333779D01*
X170465017Y-69365017D01*
X170433779Y-69390652D01*
X170398137Y-69409704D01*
X170359466Y-69421435D01*
X170313112Y-69426000D01*
X169661888Y-69426000D01*
X169615534Y-69421435D01*
X169576863Y-69409704D01*
X169541221Y-69390652D01*
X169509983Y-69365017D01*
X169484348Y-69333779D01*
X169465296Y-69298137D01*
X169453565Y-69259466D01*
X169449000Y-69213112D01*
X169449000Y-68136888D01*
X169453565Y-68090534D01*
X169465296Y-68051863D01*
X169484348Y-68016221D01*
X169509983Y-67984983D01*
X169541221Y-67959348D01*
X169576863Y-67940296D01*
X169615534Y-67928565D01*
X169661888Y-67924000D01*
X170313112Y-67924000D01*
X170359466Y-67928565D01*
X170359466Y-67928565D01*
G37*
G36*
X168484466Y-67928565D02*
X168523137Y-67940296D01*
X168558779Y-67959348D01*
X168590017Y-67984983D01*
X168615652Y-68016221D01*
X168634704Y-68051863D01*
X168646435Y-68090534D01*
X168651000Y-68136888D01*
X168651000Y-69213112D01*
X168646435Y-69259466D01*
X168634704Y-69298137D01*
X168615652Y-69333779D01*
X168590017Y-69365017D01*
X168558779Y-69390652D01*
X168523137Y-69409704D01*
X168484466Y-69421435D01*
X168438112Y-69426000D01*
X167786888Y-69426000D01*
X167740534Y-69421435D01*
X167701863Y-69409704D01*
X167666221Y-69390652D01*
X167634983Y-69365017D01*
X167609348Y-69333779D01*
X167590296Y-69298137D01*
X167578565Y-69259466D01*
X167574000Y-69213112D01*
X167574000Y-68136888D01*
X167578565Y-68090534D01*
X167590296Y-68051863D01*
X167609348Y-68016221D01*
X167634983Y-67984983D01*
X167666221Y-67959348D01*
X167701863Y-67940296D01*
X167740534Y-67928565D01*
X167786888Y-67924000D01*
X168438112Y-67924000D01*
X168484466Y-67928565D01*
X168484466Y-67928565D01*
G37*
G36*
X164709466Y-67653565D02*
X164748137Y-67665296D01*
X164783779Y-67684348D01*
X164815017Y-67709983D01*
X164840652Y-67741221D01*
X164859704Y-67776863D01*
X164871435Y-67815534D01*
X164876000Y-67861888D01*
X164876000Y-68938112D01*
X164871435Y-68984466D01*
X164859704Y-69023137D01*
X164840652Y-69058779D01*
X164815017Y-69090017D01*
X164783779Y-69115652D01*
X164748137Y-69134704D01*
X164709466Y-69146435D01*
X164663112Y-69151000D01*
X164011888Y-69151000D01*
X163965534Y-69146435D01*
X163926863Y-69134704D01*
X163891221Y-69115652D01*
X163859983Y-69090017D01*
X163834348Y-69058779D01*
X163815296Y-69023137D01*
X163803565Y-68984466D01*
X163799000Y-68938112D01*
X163799000Y-67861888D01*
X163803565Y-67815534D01*
X163815296Y-67776863D01*
X163834348Y-67741221D01*
X163859983Y-67709983D01*
X163891221Y-67684348D01*
X163926863Y-67665296D01*
X163965534Y-67653565D01*
X164011888Y-67649000D01*
X164663112Y-67649000D01*
X164709466Y-67653565D01*
X164709466Y-67653565D01*
G37*
G36*
X166584466Y-67653565D02*
X166623137Y-67665296D01*
X166658779Y-67684348D01*
X166690017Y-67709983D01*
X166715652Y-67741221D01*
X166734704Y-67776863D01*
X166746435Y-67815534D01*
X166751000Y-67861888D01*
X166751000Y-68938112D01*
X166746435Y-68984466D01*
X166734704Y-69023137D01*
X166715652Y-69058779D01*
X166690017Y-69090017D01*
X166658779Y-69115652D01*
X166623137Y-69134704D01*
X166584466Y-69146435D01*
X166538112Y-69151000D01*
X165886888Y-69151000D01*
X165840534Y-69146435D01*
X165801863Y-69134704D01*
X165766221Y-69115652D01*
X165734983Y-69090017D01*
X165709348Y-69058779D01*
X165690296Y-69023137D01*
X165678565Y-68984466D01*
X165674000Y-68938112D01*
X165674000Y-67861888D01*
X165678565Y-67815534D01*
X165690296Y-67776863D01*
X165709348Y-67741221D01*
X165734983Y-67709983D01*
X165766221Y-67684348D01*
X165801863Y-67665296D01*
X165840534Y-67653565D01*
X165886888Y-67649000D01*
X166538112Y-67649000D01*
X166584466Y-67653565D01*
X166584466Y-67653565D01*
G37*
G36*
X117276000Y-68586000D02*
X116374000Y-68586000D01*
X116374000Y-67784000D01*
X117276000Y-67784000D01*
X117276000Y-68586000D01*
X117276000Y-68586000D01*
G37*
G36*
X161701000Y-68476000D02*
X160799000Y-68476000D01*
X160799000Y-67474000D01*
X161701000Y-67474000D01*
X161701000Y-68476000D01*
X161701000Y-68476000D01*
G37*
G36*
X159801000Y-68476000D02*
X158899000Y-68476000D01*
X158899000Y-67474000D01*
X159801000Y-67474000D01*
X159801000Y-68476000D01*
X159801000Y-68476000D01*
G37*
G36*
X176526000Y-68451000D02*
X175624000Y-68451000D01*
X175624000Y-67449000D01*
X176526000Y-67449000D01*
X176526000Y-68451000D01*
X176526000Y-68451000D01*
G37*
G36*
X178426000Y-68451000D02*
X177524000Y-68451000D01*
X177524000Y-67449000D01*
X178426000Y-67449000D01*
X178426000Y-68451000D01*
X178426000Y-68451000D01*
G37*
G36*
X149034466Y-66528565D02*
X149073137Y-66540296D01*
X149108779Y-66559348D01*
X149140017Y-66584983D01*
X149165652Y-66616221D01*
X149184704Y-66651863D01*
X149196435Y-66690534D01*
X149201000Y-66736888D01*
X149201000Y-67813112D01*
X149196435Y-67859466D01*
X149184704Y-67898137D01*
X149165652Y-67933779D01*
X149140017Y-67965017D01*
X149108779Y-67990652D01*
X149073137Y-68009704D01*
X149034466Y-68021435D01*
X148988112Y-68026000D01*
X148336888Y-68026000D01*
X148290534Y-68021435D01*
X148251863Y-68009704D01*
X148216221Y-67990652D01*
X148184983Y-67965017D01*
X148159348Y-67933779D01*
X148140296Y-67898137D01*
X148128565Y-67859466D01*
X148124000Y-67813112D01*
X148124000Y-66736888D01*
X148128565Y-66690534D01*
X148140296Y-66651863D01*
X148159348Y-66616221D01*
X148184983Y-66584983D01*
X148216221Y-66559348D01*
X148251863Y-66540296D01*
X148290534Y-66528565D01*
X148336888Y-66524000D01*
X148988112Y-66524000D01*
X149034466Y-66528565D01*
X149034466Y-66528565D01*
G37*
G36*
X150909466Y-66528565D02*
X150948137Y-66540296D01*
X150983779Y-66559348D01*
X151015017Y-66584983D01*
X151040652Y-66616221D01*
X151059704Y-66651863D01*
X151071435Y-66690534D01*
X151076000Y-66736888D01*
X151076000Y-67813112D01*
X151071435Y-67859466D01*
X151059704Y-67898137D01*
X151040652Y-67933779D01*
X151015017Y-67965017D01*
X150983779Y-67990652D01*
X150948137Y-68009704D01*
X150909466Y-68021435D01*
X150863112Y-68026000D01*
X150211888Y-68026000D01*
X150165534Y-68021435D01*
X150126863Y-68009704D01*
X150091221Y-67990652D01*
X150059983Y-67965017D01*
X150034348Y-67933779D01*
X150015296Y-67898137D01*
X150003565Y-67859466D01*
X149999000Y-67813112D01*
X149999000Y-66736888D01*
X150003565Y-66690534D01*
X150015296Y-66651863D01*
X150034348Y-66616221D01*
X150059983Y-66584983D01*
X150091221Y-66559348D01*
X150126863Y-66540296D01*
X150165534Y-66528565D01*
X150211888Y-66524000D01*
X150863112Y-66524000D01*
X150909466Y-66528565D01*
X150909466Y-66528565D01*
G37*
G36*
X152659466Y-66378565D02*
X152698137Y-66390296D01*
X152733779Y-66409348D01*
X152765017Y-66434983D01*
X152790652Y-66466221D01*
X152809704Y-66501863D01*
X152821435Y-66540534D01*
X152826000Y-66586888D01*
X152826000Y-67663112D01*
X152821435Y-67709466D01*
X152809704Y-67748137D01*
X152790652Y-67783779D01*
X152765017Y-67815017D01*
X152733779Y-67840652D01*
X152698137Y-67859704D01*
X152659466Y-67871435D01*
X152613112Y-67876000D01*
X151961888Y-67876000D01*
X151915534Y-67871435D01*
X151876863Y-67859704D01*
X151841221Y-67840652D01*
X151809983Y-67815017D01*
X151784348Y-67783779D01*
X151765296Y-67748137D01*
X151753565Y-67709466D01*
X151749000Y-67663112D01*
X151749000Y-66586888D01*
X151753565Y-66540534D01*
X151765296Y-66501863D01*
X151784348Y-66466221D01*
X151809983Y-66434983D01*
X151841221Y-66409348D01*
X151876863Y-66390296D01*
X151915534Y-66378565D01*
X151961888Y-66374000D01*
X152613112Y-66374000D01*
X152659466Y-66378565D01*
X152659466Y-66378565D01*
G37*
G36*
X154534466Y-66378565D02*
X154573137Y-66390296D01*
X154608779Y-66409348D01*
X154640017Y-66434983D01*
X154665652Y-66466221D01*
X154684704Y-66501863D01*
X154696435Y-66540534D01*
X154701000Y-66586888D01*
X154701000Y-67663112D01*
X154696435Y-67709466D01*
X154684704Y-67748137D01*
X154665652Y-67783779D01*
X154640017Y-67815017D01*
X154608779Y-67840652D01*
X154573137Y-67859704D01*
X154534466Y-67871435D01*
X154488112Y-67876000D01*
X153836888Y-67876000D01*
X153790534Y-67871435D01*
X153751863Y-67859704D01*
X153716221Y-67840652D01*
X153684983Y-67815017D01*
X153659348Y-67783779D01*
X153640296Y-67748137D01*
X153628565Y-67709466D01*
X153624000Y-67663112D01*
X153624000Y-66586888D01*
X153628565Y-66540534D01*
X153640296Y-66501863D01*
X153659348Y-66466221D01*
X153684983Y-66434983D01*
X153716221Y-66409348D01*
X153751863Y-66390296D01*
X153790534Y-66378565D01*
X153836888Y-66374000D01*
X154488112Y-66374000D01*
X154534466Y-66378565D01*
X154534466Y-66378565D01*
G37*
G36*
X117276000Y-67316000D02*
X116374000Y-67316000D01*
X116374000Y-66514000D01*
X117276000Y-66514000D01*
X117276000Y-67316000D01*
X117276000Y-67316000D01*
G37*
G36*
X187491242Y-65953404D02*
X187528339Y-65964657D01*
X187562520Y-65982927D01*
X187592482Y-66007518D01*
X187617073Y-66037480D01*
X187635343Y-66071661D01*
X187646596Y-66108758D01*
X187651000Y-66153473D01*
X187651000Y-67046527D01*
X187646596Y-67091242D01*
X187635343Y-67128339D01*
X187617073Y-67162520D01*
X187592482Y-67192482D01*
X187562520Y-67217073D01*
X187528339Y-67235343D01*
X187491242Y-67246596D01*
X187446527Y-67251000D01*
X186003473Y-67251000D01*
X185958758Y-67246596D01*
X185921661Y-67235343D01*
X185887480Y-67217073D01*
X185857518Y-67192482D01*
X185832927Y-67162520D01*
X185814657Y-67128339D01*
X185803404Y-67091242D01*
X185799000Y-67046527D01*
X185799000Y-66153473D01*
X185803404Y-66108758D01*
X185814657Y-66071661D01*
X185832927Y-66037480D01*
X185857518Y-66007518D01*
X185887480Y-65982927D01*
X185921661Y-65964657D01*
X185958758Y-65953404D01*
X186003473Y-65949000D01*
X187446527Y-65949000D01*
X187491242Y-65953404D01*
X187491242Y-65953404D01*
G37*
G36*
X177876000Y-67001000D02*
X175974000Y-67001000D01*
X175974000Y-64399000D01*
X177876000Y-64399000D01*
X177876000Y-67001000D01*
X177876000Y-67001000D01*
G37*
G36*
X161176000Y-66976000D02*
X159274000Y-66976000D01*
X159274000Y-64374000D01*
X161176000Y-64374000D01*
X161176000Y-66976000D01*
X161176000Y-66976000D01*
G37*
G36*
X170401000Y-66876000D02*
X167799000Y-66876000D01*
X167799000Y-64974000D01*
X170401000Y-64974000D01*
X170401000Y-66876000D01*
X170401000Y-66876000D01*
G37*
G36*
X166401000Y-66876000D02*
X163799000Y-66876000D01*
X163799000Y-64974000D01*
X166401000Y-64974000D01*
X166401000Y-66876000D01*
X166401000Y-66876000D01*
G37*
G36*
X174801000Y-66626000D02*
X173799000Y-66626000D01*
X173799000Y-64824000D01*
X174801000Y-64824000D01*
X174801000Y-66626000D01*
X174801000Y-66626000D01*
G37*
G36*
X172601000Y-66626000D02*
X171599000Y-66626000D01*
X171599000Y-64824000D01*
X172601000Y-64824000D01*
X172601000Y-66626000D01*
X172601000Y-66626000D01*
G37*
G36*
X187063855Y-63952140D02*
X187127618Y-63958420D01*
X187209427Y-63983237D01*
X187250333Y-63995645D01*
X187350491Y-64049181D01*
X187363426Y-64056095D01*
X187462553Y-64137447D01*
X187543905Y-64236574D01*
X187543906Y-64236576D01*
X187604355Y-64349667D01*
X187604355Y-64349668D01*
X187641580Y-64472382D01*
X187654149Y-64600000D01*
X187641580Y-64727618D01*
X187616763Y-64809427D01*
X187604355Y-64850333D01*
X187550819Y-64950491D01*
X187543905Y-64963426D01*
X187462553Y-65062553D01*
X187363426Y-65143905D01*
X187363424Y-65143906D01*
X187250333Y-65204355D01*
X187209427Y-65216763D01*
X187127618Y-65241580D01*
X187063855Y-65247860D01*
X187031974Y-65251000D01*
X186418026Y-65251000D01*
X186386145Y-65247860D01*
X186322382Y-65241580D01*
X186240573Y-65216763D01*
X186199667Y-65204355D01*
X186086576Y-65143906D01*
X186086574Y-65143905D01*
X185987447Y-65062553D01*
X185906095Y-64963426D01*
X185899181Y-64950491D01*
X185845645Y-64850333D01*
X185833237Y-64809427D01*
X185808420Y-64727618D01*
X185795851Y-64600000D01*
X185808420Y-64472382D01*
X185845645Y-64349668D01*
X185845645Y-64349667D01*
X185906094Y-64236576D01*
X185906095Y-64236574D01*
X185987447Y-64137447D01*
X186086574Y-64056095D01*
X186099509Y-64049181D01*
X186199667Y-63995645D01*
X186240573Y-63983237D01*
X186322382Y-63958420D01*
X186386145Y-63952140D01*
X186418026Y-63949000D01*
X187031974Y-63949000D01*
X187063855Y-63952140D01*
X187063855Y-63952140D01*
G37*
G36*
X149710500Y-65051000D02*
X147108500Y-65051000D01*
X147108500Y-63149000D01*
X149710500Y-63149000D01*
X149710500Y-65051000D01*
X149710500Y-65051000D01*
G37*
G36*
X153710500Y-65051000D02*
X151108500Y-65051000D01*
X151108500Y-63149000D01*
X153710500Y-63149000D01*
X153710500Y-65051000D01*
X153710500Y-65051000D01*
G37*
G36*
X158201000Y-64101000D02*
X157199000Y-64101000D01*
X157199000Y-62299000D01*
X158201000Y-62299000D01*
X158201000Y-64101000D01*
X158201000Y-64101000D01*
G37*
G36*
X156001000Y-64101000D02*
X154999000Y-64101000D01*
X154999000Y-62299000D01*
X156001000Y-62299000D01*
X156001000Y-64101000D01*
X156001000Y-64101000D01*
G37*
G36*
X102714927Y-59043190D02*
X102714929Y-59043191D01*
X102714930Y-59043191D01*
X103160984Y-59227952D01*
X103414905Y-59397617D01*
X103562424Y-59496186D01*
X103903814Y-59837576D01*
X103903816Y-59837579D01*
X104172048Y-60239016D01*
X104321572Y-60600000D01*
X104356810Y-60685073D01*
X104451000Y-61158596D01*
X104451000Y-61641404D01*
X104358467Y-62106598D01*
X104356809Y-62114930D01*
X104172048Y-62560984D01*
X103938174Y-62911000D01*
X103903814Y-62962424D01*
X103562424Y-63303814D01*
X103562421Y-63303816D01*
X103160984Y-63572048D01*
X102714930Y-63756809D01*
X102714929Y-63756809D01*
X102714927Y-63756810D01*
X102241404Y-63851000D01*
X101758596Y-63851000D01*
X101285073Y-63756810D01*
X101285071Y-63756809D01*
X101285070Y-63756809D01*
X100839016Y-63572048D01*
X100437579Y-63303816D01*
X100437576Y-63303814D01*
X100096186Y-62962424D01*
X100061826Y-62911000D01*
X99827952Y-62560984D01*
X99643191Y-62114930D01*
X99641534Y-62106598D01*
X99549000Y-61641404D01*
X99549000Y-61158596D01*
X99643190Y-60685073D01*
X99678428Y-60600000D01*
X99827952Y-60239016D01*
X100096184Y-59837579D01*
X100096186Y-59837576D01*
X100437576Y-59496186D01*
X100585095Y-59397617D01*
X100839016Y-59227952D01*
X101285070Y-59043191D01*
X101285071Y-59043191D01*
X101285073Y-59043190D01*
X101758596Y-58949000D01*
X102241404Y-58949000D01*
X102714927Y-59043190D01*
X102714927Y-59043190D01*
G37*
G36*
X174329591Y-62378085D02*
X174363569Y-62388393D01*
X174394887Y-62405133D01*
X174422339Y-62427661D01*
X174444867Y-62455113D01*
X174461607Y-62486431D01*
X174471915Y-62520409D01*
X174476000Y-62561890D01*
X174476000Y-63238110D01*
X174471915Y-63279591D01*
X174461607Y-63313569D01*
X174444867Y-63344887D01*
X174422339Y-63372339D01*
X174394887Y-63394867D01*
X174363569Y-63411607D01*
X174329591Y-63421915D01*
X174288110Y-63426000D01*
X173686890Y-63426000D01*
X173645409Y-63421915D01*
X173611431Y-63411607D01*
X173580113Y-63394867D01*
X173552661Y-63372339D01*
X173530133Y-63344887D01*
X173513393Y-63313569D01*
X173503085Y-63279591D01*
X173499000Y-63238110D01*
X173499000Y-62561890D01*
X173503085Y-62520409D01*
X173513393Y-62486431D01*
X173530133Y-62455113D01*
X173552661Y-62427661D01*
X173580113Y-62405133D01*
X173611431Y-62388393D01*
X173645409Y-62378085D01*
X173686890Y-62374000D01*
X174288110Y-62374000D01*
X174329591Y-62378085D01*
X174329591Y-62378085D01*
G37*
G36*
X172754591Y-62378085D02*
X172788569Y-62388393D01*
X172819887Y-62405133D01*
X172847339Y-62427661D01*
X172869867Y-62455113D01*
X172886607Y-62486431D01*
X172896915Y-62520409D01*
X172901000Y-62561890D01*
X172901000Y-63238110D01*
X172896915Y-63279591D01*
X172886607Y-63313569D01*
X172869867Y-63344887D01*
X172847339Y-63372339D01*
X172819887Y-63394867D01*
X172788569Y-63411607D01*
X172754591Y-63421915D01*
X172713110Y-63426000D01*
X172111890Y-63426000D01*
X172070409Y-63421915D01*
X172036431Y-63411607D01*
X172005113Y-63394867D01*
X171977661Y-63372339D01*
X171955133Y-63344887D01*
X171938393Y-63313569D01*
X171928085Y-63279591D01*
X171924000Y-63238110D01*
X171924000Y-62561890D01*
X171928085Y-62520409D01*
X171938393Y-62486431D01*
X171955133Y-62455113D01*
X171977661Y-62427661D01*
X172005113Y-62405133D01*
X172036431Y-62388393D01*
X172070409Y-62378085D01*
X172111890Y-62374000D01*
X172713110Y-62374000D01*
X172754591Y-62378085D01*
X172754591Y-62378085D01*
G37*
G36*
X187063855Y-61952140D02*
X187127618Y-61958420D01*
X187209427Y-61983237D01*
X187250333Y-61995645D01*
X187274169Y-62008386D01*
X187363426Y-62056095D01*
X187462553Y-62137447D01*
X187543905Y-62236574D01*
X187543906Y-62236576D01*
X187604355Y-62349667D01*
X187604355Y-62349668D01*
X187641580Y-62472382D01*
X187654149Y-62600000D01*
X187641580Y-62727618D01*
X187626427Y-62777570D01*
X187604355Y-62850333D01*
X187572857Y-62909261D01*
X187543905Y-62963426D01*
X187462553Y-63062553D01*
X187363426Y-63143905D01*
X187363424Y-63143906D01*
X187250333Y-63204355D01*
X187209427Y-63216763D01*
X187127618Y-63241580D01*
X187063855Y-63247860D01*
X187031974Y-63251000D01*
X186418026Y-63251000D01*
X186386145Y-63247860D01*
X186322382Y-63241580D01*
X186240573Y-63216763D01*
X186199667Y-63204355D01*
X186086576Y-63143906D01*
X186086574Y-63143905D01*
X185987447Y-63062553D01*
X185906095Y-62963426D01*
X185877143Y-62909261D01*
X185845645Y-62850333D01*
X185823573Y-62777570D01*
X185808420Y-62727618D01*
X185795851Y-62600000D01*
X185808420Y-62472382D01*
X185845645Y-62349668D01*
X185845645Y-62349667D01*
X185906094Y-62236576D01*
X185906095Y-62236574D01*
X185987447Y-62137447D01*
X186086574Y-62056095D01*
X186175831Y-62008386D01*
X186199667Y-61995645D01*
X186240573Y-61983237D01*
X186322382Y-61958420D01*
X186386145Y-61952140D01*
X186418026Y-61949000D01*
X187031974Y-61949000D01*
X187063855Y-61952140D01*
X187063855Y-61952140D01*
G37*
G36*
X177876000Y-63001000D02*
X175974000Y-63001000D01*
X175974000Y-60399000D01*
X177876000Y-60399000D01*
X177876000Y-63001000D01*
X177876000Y-63001000D01*
G37*
G36*
X161176000Y-62976000D02*
X159274000Y-62976000D01*
X159274000Y-60374000D01*
X161176000Y-60374000D01*
X161176000Y-62976000D01*
X161176000Y-62976000D01*
G37*
G36*
X117476000Y-62911000D02*
X116574000Y-62911000D01*
X116574000Y-62109000D01*
X117476000Y-62109000D01*
X117476000Y-62911000D01*
X117476000Y-62911000D01*
G37*
G36*
X122976000Y-59091000D02*
X122596000Y-59091000D01*
X122571614Y-59093402D01*
X122548165Y-59100515D01*
X122526554Y-59112066D01*
X122507612Y-59127612D01*
X122492066Y-59146554D01*
X122480515Y-59168165D01*
X122473402Y-59191614D01*
X122471000Y-59216000D01*
X122471000Y-59434000D01*
X122473402Y-59458386D01*
X122480515Y-59481835D01*
X122492066Y-59503446D01*
X122507612Y-59522388D01*
X122526554Y-59537934D01*
X122548165Y-59549485D01*
X122571614Y-59556598D01*
X122596000Y-59559000D01*
X122976000Y-59559000D01*
X122976000Y-60361000D01*
X122596000Y-60361000D01*
X122571614Y-60363402D01*
X122548165Y-60370515D01*
X122526554Y-60382066D01*
X122507612Y-60397612D01*
X122492066Y-60416554D01*
X122480515Y-60438165D01*
X122473402Y-60461614D01*
X122471000Y-60486000D01*
X122471000Y-60714000D01*
X122473402Y-60738386D01*
X122480515Y-60761835D01*
X122492066Y-60783446D01*
X122507612Y-60802388D01*
X122526554Y-60817934D01*
X122548165Y-60829485D01*
X122571614Y-60836598D01*
X122596000Y-60839000D01*
X122976000Y-60839000D01*
X122976000Y-61641000D01*
X122596000Y-61641000D01*
X122571614Y-61643402D01*
X122548165Y-61650515D01*
X122526554Y-61662066D01*
X122507612Y-61677612D01*
X122492066Y-61696554D01*
X122480515Y-61718165D01*
X122473402Y-61741614D01*
X122471000Y-61766000D01*
X122471000Y-61984000D01*
X122473402Y-62008386D01*
X122480515Y-62031835D01*
X122492066Y-62053446D01*
X122507612Y-62072388D01*
X122526554Y-62087934D01*
X122548165Y-62099485D01*
X122571614Y-62106598D01*
X122596000Y-62109000D01*
X122976000Y-62109000D01*
X122976000Y-62911000D01*
X121997742Y-62911000D01*
X121996835Y-62910515D01*
X121973386Y-62903402D01*
X121949000Y-62901000D01*
X118079000Y-62901000D01*
X118079000Y-58299000D01*
X121949000Y-58299000D01*
X121973386Y-58296598D01*
X121996835Y-58289485D01*
X121997742Y-58289000D01*
X122976000Y-58289000D01*
X122976000Y-59091000D01*
X122976000Y-59091000D01*
G37*
G36*
X117476000Y-61641000D02*
X116574000Y-61641000D01*
X116574000Y-60839000D01*
X117476000Y-60839000D01*
X117476000Y-61641000D01*
X117476000Y-61641000D01*
G37*
G36*
X172205996Y-59778051D02*
X172239653Y-59788261D01*
X172270667Y-59804838D01*
X172297852Y-59827148D01*
X172320162Y-59854333D01*
X172336739Y-59885347D01*
X172346949Y-59919004D01*
X172351000Y-59960138D01*
X172351000Y-61289862D01*
X172346949Y-61330996D01*
X172336739Y-61364653D01*
X172320162Y-61395667D01*
X172297852Y-61422852D01*
X172270667Y-61445162D01*
X172239653Y-61461739D01*
X172205996Y-61471949D01*
X172164862Y-61476000D01*
X168935138Y-61476000D01*
X168894004Y-61471949D01*
X168860347Y-61461739D01*
X168829333Y-61445162D01*
X168802148Y-61422852D01*
X168779838Y-61395667D01*
X168763261Y-61364653D01*
X168753051Y-61330996D01*
X168749000Y-61289862D01*
X168749000Y-59960138D01*
X168753051Y-59919004D01*
X168763261Y-59885347D01*
X168779838Y-59854333D01*
X168802148Y-59827148D01*
X168829333Y-59804838D01*
X168860347Y-59788261D01*
X168894004Y-59778051D01*
X168935138Y-59774000D01*
X172164862Y-59774000D01*
X172205996Y-59778051D01*
X172205996Y-59778051D01*
G37*
G36*
X166605996Y-59778051D02*
X166639653Y-59788261D01*
X166670667Y-59804838D01*
X166697852Y-59827148D01*
X166720162Y-59854333D01*
X166736739Y-59885347D01*
X166746949Y-59919004D01*
X166751000Y-59960138D01*
X166751000Y-61289862D01*
X166746949Y-61330996D01*
X166736739Y-61364653D01*
X166720162Y-61395667D01*
X166697852Y-61422852D01*
X166670667Y-61445162D01*
X166639653Y-61461739D01*
X166605996Y-61471949D01*
X166564862Y-61476000D01*
X163335138Y-61476000D01*
X163294004Y-61471949D01*
X163260347Y-61461739D01*
X163229333Y-61445162D01*
X163202148Y-61422852D01*
X163179838Y-61395667D01*
X163163261Y-61364653D01*
X163153051Y-61330996D01*
X163149000Y-61289862D01*
X163149000Y-59960138D01*
X163153051Y-59919004D01*
X163163261Y-59885347D01*
X163179838Y-59854333D01*
X163202148Y-59827148D01*
X163229333Y-59804838D01*
X163260347Y-59788261D01*
X163294004Y-59778051D01*
X163335138Y-59774000D01*
X166564862Y-59774000D01*
X166605996Y-59778051D01*
X166605996Y-59778051D01*
G37*
G36*
X187063855Y-59952140D02*
X187127618Y-59958420D01*
X187209427Y-59983237D01*
X187250333Y-59995645D01*
X187333197Y-60039937D01*
X187363426Y-60056095D01*
X187462553Y-60137447D01*
X187543905Y-60236574D01*
X187543906Y-60236576D01*
X187604355Y-60349667D01*
X187611736Y-60374000D01*
X187641580Y-60472382D01*
X187654149Y-60600000D01*
X187641580Y-60727618D01*
X187631200Y-60761835D01*
X187604355Y-60850333D01*
X187550819Y-60950491D01*
X187543905Y-60963426D01*
X187462553Y-61062553D01*
X187363426Y-61143905D01*
X187363424Y-61143906D01*
X187250333Y-61204355D01*
X187209427Y-61216763D01*
X187127618Y-61241580D01*
X187063855Y-61247860D01*
X187031974Y-61251000D01*
X186418026Y-61251000D01*
X186386145Y-61247860D01*
X186322382Y-61241580D01*
X186240573Y-61216763D01*
X186199667Y-61204355D01*
X186086576Y-61143906D01*
X186086574Y-61143905D01*
X185987447Y-61062553D01*
X185906095Y-60963426D01*
X185899181Y-60950491D01*
X185845645Y-60850333D01*
X185818800Y-60761835D01*
X185808420Y-60727618D01*
X185795851Y-60600000D01*
X185808420Y-60472382D01*
X185838264Y-60374000D01*
X185845645Y-60349667D01*
X185906094Y-60236576D01*
X185906095Y-60236574D01*
X185987447Y-60137447D01*
X186086574Y-60056095D01*
X186116803Y-60039937D01*
X186199667Y-59995645D01*
X186240573Y-59983237D01*
X186322382Y-59958420D01*
X186386145Y-59952140D01*
X186418026Y-59949000D01*
X187031974Y-59949000D01*
X187063855Y-59952140D01*
X187063855Y-59952140D01*
G37*
G36*
X157904591Y-60178085D02*
X157938569Y-60188393D01*
X157969887Y-60205133D01*
X157997339Y-60227661D01*
X158019867Y-60255113D01*
X158036607Y-60286431D01*
X158046915Y-60320409D01*
X158051000Y-60361890D01*
X158051000Y-61038110D01*
X158046915Y-61079591D01*
X158036607Y-61113569D01*
X158019867Y-61144887D01*
X157997339Y-61172339D01*
X157969887Y-61194867D01*
X157938569Y-61211607D01*
X157904591Y-61221915D01*
X157863110Y-61226000D01*
X157261890Y-61226000D01*
X157220409Y-61221915D01*
X157186431Y-61211607D01*
X157155113Y-61194867D01*
X157127661Y-61172339D01*
X157105133Y-61144887D01*
X157088393Y-61113569D01*
X157078085Y-61079591D01*
X157074000Y-61038110D01*
X157074000Y-60361890D01*
X157078085Y-60320409D01*
X157088393Y-60286431D01*
X157105133Y-60255113D01*
X157127661Y-60227661D01*
X157155113Y-60205133D01*
X157186431Y-60188393D01*
X157220409Y-60178085D01*
X157261890Y-60174000D01*
X157863110Y-60174000D01*
X157904591Y-60178085D01*
X157904591Y-60178085D01*
G37*
G36*
X156329591Y-60178085D02*
X156363569Y-60188393D01*
X156394887Y-60205133D01*
X156422339Y-60227661D01*
X156444867Y-60255113D01*
X156461607Y-60286431D01*
X156471915Y-60320409D01*
X156476000Y-60361890D01*
X156476000Y-61038110D01*
X156471915Y-61079591D01*
X156461607Y-61113569D01*
X156444867Y-61144887D01*
X156422339Y-61172339D01*
X156394887Y-61194867D01*
X156363569Y-61211607D01*
X156329591Y-61221915D01*
X156288110Y-61226000D01*
X155686890Y-61226000D01*
X155645409Y-61221915D01*
X155611431Y-61211607D01*
X155580113Y-61194867D01*
X155552661Y-61172339D01*
X155530133Y-61144887D01*
X155513393Y-61113569D01*
X155503085Y-61079591D01*
X155499000Y-61038110D01*
X155499000Y-60361890D01*
X155503085Y-60320409D01*
X155513393Y-60286431D01*
X155530133Y-60255113D01*
X155552661Y-60227661D01*
X155580113Y-60205133D01*
X155611431Y-60188393D01*
X155645409Y-60178085D01*
X155686890Y-60174000D01*
X156288110Y-60174000D01*
X156329591Y-60178085D01*
X156329591Y-60178085D01*
G37*
G36*
X117476000Y-60361000D02*
X116574000Y-60361000D01*
X116574000Y-59559000D01*
X117476000Y-59559000D01*
X117476000Y-60361000D01*
X117476000Y-60361000D01*
G37*
G36*
X96715830Y-57164930D02*
X96715833Y-57164931D01*
X96715834Y-57164931D01*
X96923373Y-57227887D01*
X96923375Y-57227888D01*
X97114644Y-57330123D01*
X97282291Y-57467709D01*
X97419877Y-57635356D01*
X97522112Y-57826625D01*
X97522113Y-57826627D01*
X97559234Y-57949000D01*
X97585070Y-58034170D01*
X97606327Y-58250000D01*
X97585070Y-58465830D01*
X97585069Y-58465833D01*
X97585069Y-58465834D01*
X97583083Y-58472382D01*
X97522112Y-58673375D01*
X97419877Y-58864644D01*
X97282291Y-59032291D01*
X97114644Y-59169877D01*
X96923375Y-59272112D01*
X96923373Y-59272113D01*
X96715834Y-59335069D01*
X96715833Y-59335069D01*
X96715830Y-59335070D01*
X96554089Y-59351000D01*
X95445911Y-59351000D01*
X95284170Y-59335070D01*
X95284167Y-59335069D01*
X95284166Y-59335069D01*
X95076627Y-59272113D01*
X95076625Y-59272112D01*
X94885356Y-59169877D01*
X94717709Y-59032291D01*
X94580123Y-58864644D01*
X94477888Y-58673375D01*
X94416918Y-58472382D01*
X94414931Y-58465834D01*
X94414931Y-58465833D01*
X94414930Y-58465830D01*
X94393673Y-58250000D01*
X94414930Y-58034170D01*
X94440766Y-57949000D01*
X94477887Y-57826627D01*
X94477888Y-57826625D01*
X94580123Y-57635356D01*
X94717709Y-57467709D01*
X94885356Y-57330123D01*
X95076625Y-57227888D01*
X95076627Y-57227887D01*
X95284166Y-57164931D01*
X95284167Y-57164931D01*
X95284170Y-57164930D01*
X95445911Y-57149000D01*
X96554089Y-57149000D01*
X96715830Y-57164930D01*
X96715830Y-57164930D01*
G37*
G36*
X149930996Y-57628051D02*
X149964653Y-57638261D01*
X149995667Y-57654838D01*
X150022852Y-57677148D01*
X150045162Y-57704333D01*
X150061739Y-57735347D01*
X150071949Y-57769004D01*
X150076000Y-57810138D01*
X150076000Y-59139862D01*
X150071949Y-59180996D01*
X150061739Y-59214653D01*
X150045162Y-59245667D01*
X150022852Y-59272852D01*
X149995667Y-59295162D01*
X149964653Y-59311739D01*
X149930996Y-59321949D01*
X149889862Y-59326000D01*
X146660138Y-59326000D01*
X146619004Y-59321949D01*
X146585347Y-59311739D01*
X146554333Y-59295162D01*
X146527148Y-59272852D01*
X146504838Y-59245667D01*
X146488261Y-59214653D01*
X146478051Y-59180996D01*
X146474000Y-59139862D01*
X146474000Y-57810138D01*
X146478051Y-57769004D01*
X146488261Y-57735347D01*
X146504838Y-57704333D01*
X146527148Y-57677148D01*
X146554333Y-57654838D01*
X146585347Y-57638261D01*
X146619004Y-57628051D01*
X146660138Y-57624000D01*
X149889862Y-57624000D01*
X149930996Y-57628051D01*
X149930996Y-57628051D01*
G37*
G36*
X155530996Y-57628051D02*
X155564653Y-57638261D01*
X155595667Y-57654838D01*
X155622852Y-57677148D01*
X155645162Y-57704333D01*
X155661739Y-57735347D01*
X155671949Y-57769004D01*
X155676000Y-57810138D01*
X155676000Y-59139862D01*
X155671949Y-59180996D01*
X155661739Y-59214653D01*
X155645162Y-59245667D01*
X155622852Y-59272852D01*
X155595667Y-59295162D01*
X155564653Y-59311739D01*
X155530996Y-59321949D01*
X155489862Y-59326000D01*
X152260138Y-59326000D01*
X152219004Y-59321949D01*
X152185347Y-59311739D01*
X152154333Y-59295162D01*
X152127148Y-59272852D01*
X152104838Y-59245667D01*
X152088261Y-59214653D01*
X152078051Y-59180996D01*
X152074000Y-59139862D01*
X152074000Y-57810138D01*
X152078051Y-57769004D01*
X152088261Y-57735347D01*
X152104838Y-57704333D01*
X152127148Y-57677148D01*
X152154333Y-57654838D01*
X152185347Y-57638261D01*
X152219004Y-57628051D01*
X152260138Y-57624000D01*
X155489862Y-57624000D01*
X155530996Y-57628051D01*
X155530996Y-57628051D01*
G37*
G36*
X187063855Y-57952140D02*
X187127618Y-57958420D01*
X187209427Y-57983237D01*
X187250333Y-57995645D01*
X187322400Y-58034166D01*
X187363426Y-58056095D01*
X187462553Y-58137447D01*
X187543905Y-58236574D01*
X187543906Y-58236576D01*
X187604355Y-58349667D01*
X187604355Y-58349668D01*
X187641580Y-58472382D01*
X187654149Y-58600000D01*
X187641580Y-58727618D01*
X187616763Y-58809427D01*
X187604355Y-58850333D01*
X187551616Y-58949000D01*
X187543905Y-58963426D01*
X187462553Y-59062553D01*
X187363426Y-59143905D01*
X187363424Y-59143906D01*
X187250333Y-59204355D01*
X187216384Y-59214653D01*
X187127618Y-59241580D01*
X187063855Y-59247860D01*
X187031974Y-59251000D01*
X186418026Y-59251000D01*
X186386145Y-59247860D01*
X186322382Y-59241580D01*
X186233616Y-59214653D01*
X186199667Y-59204355D01*
X186086576Y-59143906D01*
X186086574Y-59143905D01*
X185987447Y-59062553D01*
X185906095Y-58963426D01*
X185898384Y-58949000D01*
X185845645Y-58850333D01*
X185833237Y-58809427D01*
X185808420Y-58727618D01*
X185795851Y-58600000D01*
X185808420Y-58472382D01*
X185845645Y-58349668D01*
X185845645Y-58349667D01*
X185906094Y-58236576D01*
X185906095Y-58236574D01*
X185987447Y-58137447D01*
X186086574Y-58056095D01*
X186127600Y-58034166D01*
X186199667Y-57995645D01*
X186240573Y-57983237D01*
X186322382Y-57958420D01*
X186386145Y-57952140D01*
X186418026Y-57949000D01*
X187031974Y-57949000D01*
X187063855Y-57952140D01*
X187063855Y-57952140D01*
G37*
G36*
X117476000Y-59091000D02*
X116574000Y-59091000D01*
X116574000Y-58289000D01*
X117476000Y-58289000D01*
X117476000Y-59091000D01*
X117476000Y-59091000D01*
G37*
G36*
X177951000Y-58426000D02*
X176949000Y-58426000D01*
X176949000Y-57524000D01*
X177951000Y-57524000D01*
X177951000Y-58426000D01*
X177951000Y-58426000D01*
G37*
G36*
X182076000Y-58276000D02*
X181074000Y-58276000D01*
X181074000Y-57374000D01*
X182076000Y-57374000D01*
X182076000Y-58276000D01*
X182076000Y-58276000D01*
G37*
G36*
X179951000Y-57476000D02*
X178949000Y-57476000D01*
X178949000Y-56574000D01*
X179951000Y-56574000D01*
X179951000Y-57476000D01*
X179951000Y-57476000D01*
G37*
G36*
X184076000Y-57326000D02*
X183074000Y-57326000D01*
X183074000Y-56424000D01*
X184076000Y-56424000D01*
X184076000Y-57326000D01*
X184076000Y-57326000D01*
G37*
G36*
X177951000Y-56526000D02*
X176949000Y-56526000D01*
X176949000Y-55624000D01*
X177951000Y-55624000D01*
X177951000Y-56526000D01*
X177951000Y-56526000D01*
G37*
G36*
X182076000Y-56376000D02*
X181074000Y-56376000D01*
X181074000Y-55474000D01*
X182076000Y-55474000D01*
X182076000Y-56376000D01*
X182076000Y-56376000D01*
G37*
G36*
X119744591Y-53798085D02*
X119778569Y-53808393D01*
X119809887Y-53825133D01*
X119837339Y-53847661D01*
X119859867Y-53875113D01*
X119876607Y-53906431D01*
X119886915Y-53940409D01*
X119891000Y-53981890D01*
X119891000Y-54658110D01*
X119886915Y-54699591D01*
X119876607Y-54733569D01*
X119859867Y-54764887D01*
X119837339Y-54792339D01*
X119809887Y-54814867D01*
X119778569Y-54831607D01*
X119744591Y-54841915D01*
X119703110Y-54846000D01*
X119101890Y-54846000D01*
X119060409Y-54841915D01*
X119026431Y-54831607D01*
X118995113Y-54814867D01*
X118967661Y-54792339D01*
X118945133Y-54764887D01*
X118928393Y-54733569D01*
X118918085Y-54699591D01*
X118914000Y-54658110D01*
X118914000Y-53981890D01*
X118918085Y-53940409D01*
X118928393Y-53906431D01*
X118945133Y-53875113D01*
X118967661Y-53847661D01*
X118995113Y-53825133D01*
X119026431Y-53808393D01*
X119060409Y-53798085D01*
X119101890Y-53794000D01*
X119703110Y-53794000D01*
X119744591Y-53798085D01*
X119744591Y-53798085D01*
G37*
G36*
X121319591Y-53798085D02*
X121353569Y-53808393D01*
X121384887Y-53825133D01*
X121412339Y-53847661D01*
X121434867Y-53875113D01*
X121451607Y-53906431D01*
X121461915Y-53940409D01*
X121466000Y-53981890D01*
X121466000Y-54658110D01*
X121461915Y-54699591D01*
X121451607Y-54733569D01*
X121434867Y-54764887D01*
X121412339Y-54792339D01*
X121384887Y-54814867D01*
X121353569Y-54831607D01*
X121319591Y-54841915D01*
X121278110Y-54846000D01*
X120676890Y-54846000D01*
X120635409Y-54841915D01*
X120601431Y-54831607D01*
X120570113Y-54814867D01*
X120542661Y-54792339D01*
X120520133Y-54764887D01*
X120503393Y-54733569D01*
X120493085Y-54699591D01*
X120489000Y-54658110D01*
X120489000Y-53981890D01*
X120493085Y-53940409D01*
X120503393Y-53906431D01*
X120520133Y-53875113D01*
X120542661Y-53847661D01*
X120570113Y-53825133D01*
X120601431Y-53808393D01*
X120635409Y-53798085D01*
X120676890Y-53794000D01*
X121278110Y-53794000D01*
X121319591Y-53798085D01*
X121319591Y-53798085D01*
G37*
G36*
X189215830Y-51914930D02*
X189215833Y-51914931D01*
X189215834Y-51914931D01*
X189423373Y-51977887D01*
X189423375Y-51977888D01*
X189614644Y-52080123D01*
X189782291Y-52217709D01*
X189919877Y-52385356D01*
X190022112Y-52576625D01*
X190085070Y-52784170D01*
X190106327Y-53000000D01*
X190085070Y-53215830D01*
X190022112Y-53423375D01*
X189919877Y-53614644D01*
X189782291Y-53782291D01*
X189614644Y-53919877D01*
X189423375Y-54022112D01*
X189423373Y-54022113D01*
X189215834Y-54085069D01*
X189215833Y-54085069D01*
X189215830Y-54085070D01*
X189054089Y-54101000D01*
X187945911Y-54101000D01*
X187784170Y-54085070D01*
X187784167Y-54085069D01*
X187784166Y-54085069D01*
X187576627Y-54022113D01*
X187576625Y-54022112D01*
X187385356Y-53919877D01*
X187217709Y-53782291D01*
X187080123Y-53614644D01*
X186977888Y-53423375D01*
X186914930Y-53215830D01*
X186893673Y-53000000D01*
X186914930Y-52784170D01*
X186977888Y-52576625D01*
X187080123Y-52385356D01*
X187217709Y-52217709D01*
X187385356Y-52080123D01*
X187576625Y-51977888D01*
X187576627Y-51977887D01*
X187784166Y-51914931D01*
X187784167Y-51914931D01*
X187784170Y-51914930D01*
X187945911Y-51899000D01*
X189054089Y-51899000D01*
X189215830Y-51914930D01*
X189215830Y-51914930D01*
G37*
G36*
X96715830Y-51914930D02*
X96715833Y-51914931D01*
X96715834Y-51914931D01*
X96923373Y-51977887D01*
X96923375Y-51977888D01*
X97114644Y-52080123D01*
X97282291Y-52217709D01*
X97419877Y-52385356D01*
X97522112Y-52576625D01*
X97585070Y-52784170D01*
X97606327Y-53000000D01*
X97585070Y-53215830D01*
X97522112Y-53423375D01*
X97419877Y-53614644D01*
X97282291Y-53782291D01*
X97114644Y-53919877D01*
X96923375Y-54022112D01*
X96923373Y-54022113D01*
X96715834Y-54085069D01*
X96715833Y-54085069D01*
X96715830Y-54085070D01*
X96554089Y-54101000D01*
X95445911Y-54101000D01*
X95284170Y-54085070D01*
X95284167Y-54085069D01*
X95284166Y-54085069D01*
X95076627Y-54022113D01*
X95076625Y-54022112D01*
X94885356Y-53919877D01*
X94717709Y-53782291D01*
X94580123Y-53614644D01*
X94477888Y-53423375D01*
X94414930Y-53215830D01*
X94393673Y-53000000D01*
X94414930Y-52784170D01*
X94477888Y-52576625D01*
X94580123Y-52385356D01*
X94717709Y-52217709D01*
X94885356Y-52080123D01*
X95076625Y-51977888D01*
X95076627Y-51977887D01*
X95284166Y-51914931D01*
X95284167Y-51914931D01*
X95284170Y-51914930D01*
X95445911Y-51899000D01*
X96554089Y-51899000D01*
X96715830Y-51914930D01*
X96715830Y-51914930D01*
G37*
G36*
X116541000Y-54001000D02*
X115539000Y-54001000D01*
X115539000Y-53099000D01*
X116541000Y-53099000D01*
X116541000Y-54001000D01*
X116541000Y-54001000D01*
G37*
G36*
X108880000Y-53581000D02*
X106278000Y-53581000D01*
X106278000Y-51679000D01*
X108880000Y-51679000D01*
X108880000Y-53581000D01*
X108880000Y-53581000D01*
G37*
G36*
X112880000Y-53581000D02*
X110278000Y-53581000D01*
X110278000Y-51679000D01*
X112880000Y-51679000D01*
X112880000Y-53581000D01*
X112880000Y-53581000D01*
G37*
G36*
X121441000Y-53071000D02*
X120539000Y-53071000D01*
X120539000Y-52069000D01*
X121441000Y-52069000D01*
X121441000Y-53071000D01*
X121441000Y-53071000D01*
G37*
G36*
X119541000Y-53071000D02*
X118639000Y-53071000D01*
X118639000Y-52069000D01*
X119541000Y-52069000D01*
X119541000Y-53071000D01*
X119541000Y-53071000D01*
G37*
G36*
X114541000Y-53051000D02*
X113539000Y-53051000D01*
X113539000Y-52149000D01*
X114541000Y-52149000D01*
X114541000Y-53051000D01*
X114541000Y-53051000D01*
G37*
G36*
X183214927Y-47493190D02*
X183214929Y-47493191D01*
X183214930Y-47493191D01*
X183660984Y-47677952D01*
X183947648Y-47869495D01*
X184062424Y-47946186D01*
X184403814Y-48287576D01*
X184403816Y-48287579D01*
X184672048Y-48689016D01*
X184856481Y-49134278D01*
X184856810Y-49135073D01*
X184929200Y-49499000D01*
X184951000Y-49608598D01*
X184951000Y-50091402D01*
X184856809Y-50564930D01*
X184672048Y-51010984D01*
X184526661Y-51228570D01*
X184403814Y-51412424D01*
X184062424Y-51753814D01*
X184062421Y-51753816D01*
X183660984Y-52022048D01*
X183214930Y-52206809D01*
X183214929Y-52206809D01*
X183214927Y-52206810D01*
X182741404Y-52301000D01*
X182258596Y-52301000D01*
X181785073Y-52206810D01*
X181785071Y-52206809D01*
X181785070Y-52206809D01*
X181339016Y-52022048D01*
X180937579Y-51753816D01*
X180937576Y-51753814D01*
X180596186Y-51412424D01*
X180473339Y-51228570D01*
X180327952Y-51010984D01*
X180143191Y-50564930D01*
X180049000Y-50091402D01*
X180049000Y-49608598D01*
X180070800Y-49499000D01*
X180143190Y-49135073D01*
X180143519Y-49134278D01*
X180327952Y-48689016D01*
X180596184Y-48287579D01*
X180596186Y-48287576D01*
X180937576Y-47946186D01*
X181052352Y-47869495D01*
X181339016Y-47677952D01*
X181785070Y-47493191D01*
X181785071Y-47493191D01*
X181785073Y-47493190D01*
X182258596Y-47399000D01*
X182741404Y-47399000D01*
X183214927Y-47493190D01*
X183214927Y-47493190D01*
G37*
G36*
X102714927Y-47493190D02*
X102714929Y-47493191D01*
X102714930Y-47493191D01*
X103160984Y-47677952D01*
X103447648Y-47869495D01*
X103562424Y-47946186D01*
X103903814Y-48287576D01*
X103903816Y-48287579D01*
X104172048Y-48689016D01*
X104356481Y-49134278D01*
X104356810Y-49135073D01*
X104429200Y-49499000D01*
X104451000Y-49608598D01*
X104451000Y-50091402D01*
X104356809Y-50564930D01*
X104172048Y-51010984D01*
X104026661Y-51228570D01*
X103903814Y-51412424D01*
X103562424Y-51753814D01*
X103562421Y-51753816D01*
X103160984Y-52022048D01*
X102714930Y-52206809D01*
X102714929Y-52206809D01*
X102714927Y-52206810D01*
X102241404Y-52301000D01*
X101758596Y-52301000D01*
X101285073Y-52206810D01*
X101285071Y-52206809D01*
X101285070Y-52206809D01*
X100839016Y-52022048D01*
X100437579Y-51753816D01*
X100437576Y-51753814D01*
X100096186Y-51412424D01*
X99973339Y-51228570D01*
X99827952Y-51010984D01*
X99643191Y-50564930D01*
X99549000Y-50091402D01*
X99549000Y-49608598D01*
X99570800Y-49499000D01*
X99643190Y-49135073D01*
X99643519Y-49134278D01*
X99827952Y-48689016D01*
X100096184Y-48287579D01*
X100096186Y-48287576D01*
X100437576Y-47946186D01*
X100552352Y-47869495D01*
X100839016Y-47677952D01*
X101285070Y-47493191D01*
X101285071Y-47493191D01*
X101285073Y-47493190D01*
X101758596Y-47399000D01*
X102241404Y-47399000D01*
X102714927Y-47493190D01*
X102714927Y-47493190D01*
G37*
G36*
X116541000Y-52101000D02*
X115539000Y-52101000D01*
X115539000Y-51199000D01*
X116541000Y-51199000D01*
X116541000Y-52101000D01*
X116541000Y-52101000D01*
G37*
G36*
X120491000Y-51071000D02*
X119589000Y-51071000D01*
X119589000Y-50069000D01*
X120491000Y-50069000D01*
X120491000Y-51071000D01*
X120491000Y-51071000D01*
G37*
G36*
X121134500Y-49454000D02*
X119232500Y-49454000D01*
X119232500Y-46852000D01*
X121134500Y-46852000D01*
X121134500Y-49454000D01*
X121134500Y-49454000D01*
G37*
G36*
X113209466Y-47853565D02*
X113248137Y-47865296D01*
X113283779Y-47884348D01*
X113315017Y-47909983D01*
X113340652Y-47941221D01*
X113359704Y-47976863D01*
X113371435Y-48015534D01*
X113376000Y-48061888D01*
X113376000Y-49138112D01*
X113371435Y-49184466D01*
X113359704Y-49223137D01*
X113340652Y-49258779D01*
X113315017Y-49290017D01*
X113283779Y-49315652D01*
X113248137Y-49334704D01*
X113209466Y-49346435D01*
X113163112Y-49351000D01*
X112511888Y-49351000D01*
X112465534Y-49346435D01*
X112426863Y-49334704D01*
X112391221Y-49315652D01*
X112359983Y-49290017D01*
X112334348Y-49258779D01*
X112315296Y-49223137D01*
X112303565Y-49184466D01*
X112299000Y-49138112D01*
X112299000Y-48061888D01*
X112303565Y-48015534D01*
X112315296Y-47976863D01*
X112334348Y-47941221D01*
X112359983Y-47909983D01*
X112391221Y-47884348D01*
X112426863Y-47865296D01*
X112465534Y-47853565D01*
X112511888Y-47849000D01*
X113163112Y-47849000D01*
X113209466Y-47853565D01*
X113209466Y-47853565D01*
G37*
G36*
X111334466Y-47853565D02*
X111373137Y-47865296D01*
X111408779Y-47884348D01*
X111440017Y-47909983D01*
X111465652Y-47941221D01*
X111484704Y-47976863D01*
X111496435Y-48015534D01*
X111501000Y-48061888D01*
X111501000Y-49138112D01*
X111496435Y-49184466D01*
X111484704Y-49223137D01*
X111465652Y-49258779D01*
X111440017Y-49290017D01*
X111408779Y-49315652D01*
X111373137Y-49334704D01*
X111334466Y-49346435D01*
X111288112Y-49351000D01*
X110636888Y-49351000D01*
X110590534Y-49346435D01*
X110551863Y-49334704D01*
X110516221Y-49315652D01*
X110484983Y-49290017D01*
X110459348Y-49258779D01*
X110440296Y-49223137D01*
X110428565Y-49184466D01*
X110424000Y-49138112D01*
X110424000Y-48061888D01*
X110428565Y-48015534D01*
X110440296Y-47976863D01*
X110459348Y-47941221D01*
X110484983Y-47909983D01*
X110516221Y-47884348D01*
X110551863Y-47865296D01*
X110590534Y-47853565D01*
X110636888Y-47849000D01*
X111288112Y-47849000D01*
X111334466Y-47853565D01*
X111334466Y-47853565D01*
G37*
G36*
X109159466Y-47753565D02*
X109198137Y-47765296D01*
X109233779Y-47784348D01*
X109265017Y-47809983D01*
X109290652Y-47841221D01*
X109309704Y-47876863D01*
X109321435Y-47915534D01*
X109326000Y-47961888D01*
X109326000Y-49038112D01*
X109321435Y-49084466D01*
X109309704Y-49123137D01*
X109290652Y-49158779D01*
X109265017Y-49190017D01*
X109233779Y-49215652D01*
X109198137Y-49234704D01*
X109159466Y-49246435D01*
X109113112Y-49251000D01*
X108461888Y-49251000D01*
X108415534Y-49246435D01*
X108376863Y-49234704D01*
X108341221Y-49215652D01*
X108309983Y-49190017D01*
X108284348Y-49158779D01*
X108265296Y-49123137D01*
X108253565Y-49084466D01*
X108249000Y-49038112D01*
X108249000Y-47961888D01*
X108253565Y-47915534D01*
X108265296Y-47876863D01*
X108284348Y-47841221D01*
X108309983Y-47809983D01*
X108341221Y-47784348D01*
X108376863Y-47765296D01*
X108415534Y-47753565D01*
X108461888Y-47749000D01*
X109113112Y-47749000D01*
X109159466Y-47753565D01*
X109159466Y-47753565D01*
G37*
G36*
X107284466Y-47753565D02*
X107323137Y-47765296D01*
X107358779Y-47784348D01*
X107390017Y-47809983D01*
X107415652Y-47841221D01*
X107434704Y-47876863D01*
X107446435Y-47915534D01*
X107451000Y-47961888D01*
X107451000Y-49038112D01*
X107446435Y-49084466D01*
X107434704Y-49123137D01*
X107415652Y-49158779D01*
X107390017Y-49190017D01*
X107358779Y-49215652D01*
X107323137Y-49234704D01*
X107284466Y-49246435D01*
X107238112Y-49251000D01*
X106586888Y-49251000D01*
X106540534Y-49246435D01*
X106501863Y-49234704D01*
X106466221Y-49215652D01*
X106434983Y-49190017D01*
X106409348Y-49158779D01*
X106390296Y-49123137D01*
X106378565Y-49084466D01*
X106374000Y-49038112D01*
X106374000Y-47961888D01*
X106378565Y-47915534D01*
X106390296Y-47876863D01*
X106409348Y-47841221D01*
X106434983Y-47809983D01*
X106466221Y-47784348D01*
X106501863Y-47765296D01*
X106540534Y-47753565D01*
X106586888Y-47749000D01*
X107238112Y-47749000D01*
X107284466Y-47753565D01*
X107284466Y-47753565D01*
G37*
G36*
X149626000Y-48761000D02*
X148724000Y-48761000D01*
X148724000Y-47959000D01*
X149626000Y-47959000D01*
X149626000Y-48761000D01*
X149626000Y-48761000D01*
G37*
G36*
X144203165Y-44139485D02*
X144226614Y-44146598D01*
X144251000Y-44149000D01*
X148121000Y-44149000D01*
X148121000Y-48751000D01*
X144251000Y-48751000D01*
X144226614Y-48753402D01*
X144203165Y-48760515D01*
X144202258Y-48761000D01*
X143224000Y-48761000D01*
X143224000Y-47959000D01*
X143604000Y-47959000D01*
X143628386Y-47956598D01*
X143651835Y-47949485D01*
X143673446Y-47937934D01*
X143692388Y-47922388D01*
X143707934Y-47903446D01*
X143719485Y-47881835D01*
X143726598Y-47858386D01*
X143729000Y-47834000D01*
X143729000Y-47616000D01*
X143726598Y-47591614D01*
X143719485Y-47568165D01*
X143707934Y-47546554D01*
X143692388Y-47527612D01*
X143673446Y-47512066D01*
X143651835Y-47500515D01*
X143628386Y-47493402D01*
X143604000Y-47491000D01*
X143224000Y-47491000D01*
X143224000Y-46689000D01*
X143604000Y-46689000D01*
X143628386Y-46686598D01*
X143651835Y-46679485D01*
X143673446Y-46667934D01*
X143692388Y-46652388D01*
X143707934Y-46633446D01*
X143719485Y-46611835D01*
X143726598Y-46588386D01*
X143729000Y-46564000D01*
X143729000Y-46336000D01*
X143726598Y-46311614D01*
X143719485Y-46288165D01*
X143707934Y-46266554D01*
X143692388Y-46247612D01*
X143673446Y-46232066D01*
X143651835Y-46220515D01*
X143628386Y-46213402D01*
X143604000Y-46211000D01*
X143224000Y-46211000D01*
X143224000Y-45409000D01*
X143604000Y-45409000D01*
X143628386Y-45406598D01*
X143651835Y-45399485D01*
X143673446Y-45387934D01*
X143692388Y-45372388D01*
X143707934Y-45353446D01*
X143719485Y-45331835D01*
X143726598Y-45308386D01*
X143729000Y-45284000D01*
X143729000Y-45066000D01*
X143726598Y-45041614D01*
X143719485Y-45018165D01*
X143707934Y-44996554D01*
X143692388Y-44977612D01*
X143673446Y-44962066D01*
X143651835Y-44950515D01*
X143628386Y-44943402D01*
X143604000Y-44941000D01*
X143224000Y-44941000D01*
X143224000Y-44139000D01*
X144202258Y-44139000D01*
X144203165Y-44139485D01*
X144203165Y-44139485D01*
G37*
G36*
X149626000Y-47491000D02*
X148724000Y-47491000D01*
X148724000Y-46689000D01*
X149626000Y-46689000D01*
X149626000Y-47491000D01*
X149626000Y-47491000D01*
G37*
G36*
X115451000Y-47181000D02*
X114449000Y-47181000D01*
X114449000Y-45379000D01*
X115451000Y-45379000D01*
X115451000Y-47181000D01*
X115451000Y-47181000D01*
G37*
G36*
X117651000Y-47181000D02*
X116649000Y-47181000D01*
X116649000Y-45379000D01*
X117651000Y-45379000D01*
X117651000Y-47181000D01*
X117651000Y-47181000D01*
G37*
G36*
X149626000Y-46211000D02*
X148724000Y-46211000D01*
X148724000Y-45409000D01*
X149626000Y-45409000D01*
X149626000Y-46211000D01*
X149626000Y-46211000D01*
G37*
G36*
X108951000Y-45701000D02*
X106349000Y-45701000D01*
X106349000Y-43799000D01*
X108951000Y-43799000D01*
X108951000Y-45701000D01*
X108951000Y-45701000D01*
G37*
G36*
X112951000Y-45701000D02*
X110349000Y-45701000D01*
X110349000Y-43799000D01*
X112951000Y-43799000D01*
X112951000Y-45701000D01*
X112951000Y-45701000D01*
G37*
G36*
X121134500Y-45454000D02*
X119232500Y-45454000D01*
X119232500Y-42852000D01*
X121134500Y-42852000D01*
X121134500Y-45454000D01*
X121134500Y-45454000D01*
G37*
G36*
X102714927Y-40293190D02*
X102714929Y-40293191D01*
X102714930Y-40293191D01*
X103160984Y-40477952D01*
X103414905Y-40647617D01*
X103562424Y-40746186D01*
X103903814Y-41087576D01*
X103903816Y-41087579D01*
X104172048Y-41489016D01*
X104356809Y-41935070D01*
X104356810Y-41935073D01*
X104451000Y-42408596D01*
X104451000Y-42891404D01*
X104357709Y-43360409D01*
X104356809Y-43364930D01*
X104172048Y-43810984D01*
X103912784Y-44199000D01*
X103903814Y-44212424D01*
X103562424Y-44553814D01*
X103562421Y-44553816D01*
X103160984Y-44822048D01*
X102714930Y-45006809D01*
X102714929Y-45006809D01*
X102714927Y-45006810D01*
X102241404Y-45101000D01*
X101758596Y-45101000D01*
X101285073Y-45006810D01*
X101285071Y-45006809D01*
X101285070Y-45006809D01*
X100839016Y-44822048D01*
X100437579Y-44553816D01*
X100437576Y-44553814D01*
X100096186Y-44212424D01*
X100087216Y-44199000D01*
X99827952Y-43810984D01*
X99643191Y-43364930D01*
X99642292Y-43360409D01*
X99549000Y-42891404D01*
X99549000Y-42408596D01*
X99643190Y-41935073D01*
X99643191Y-41935070D01*
X99827952Y-41489016D01*
X100096184Y-41087579D01*
X100096186Y-41087576D01*
X100437576Y-40746186D01*
X100585095Y-40647617D01*
X100839016Y-40477952D01*
X101285070Y-40293191D01*
X101285071Y-40293191D01*
X101285073Y-40293190D01*
X101758596Y-40199000D01*
X102241404Y-40199000D01*
X102714927Y-40293190D01*
X102714927Y-40293190D01*
G37*
G36*
X183214927Y-40293190D02*
X183214929Y-40293191D01*
X183214930Y-40293191D01*
X183660984Y-40477952D01*
X183914905Y-40647617D01*
X184062424Y-40746186D01*
X184403814Y-41087576D01*
X184403816Y-41087579D01*
X184672048Y-41489016D01*
X184856809Y-41935070D01*
X184856810Y-41935073D01*
X184951000Y-42408596D01*
X184951000Y-42891404D01*
X184857709Y-43360409D01*
X184856809Y-43364930D01*
X184672048Y-43810984D01*
X184412784Y-44199000D01*
X184403814Y-44212424D01*
X184062424Y-44553814D01*
X184062421Y-44553816D01*
X183660984Y-44822048D01*
X183214930Y-45006809D01*
X183214929Y-45006809D01*
X183214927Y-45006810D01*
X182741404Y-45101000D01*
X182258596Y-45101000D01*
X181785073Y-45006810D01*
X181785071Y-45006809D01*
X181785070Y-45006809D01*
X181339016Y-44822048D01*
X180937579Y-44553816D01*
X180937576Y-44553814D01*
X180596186Y-44212424D01*
X180587216Y-44199000D01*
X180327952Y-43810984D01*
X180143191Y-43364930D01*
X180142292Y-43360409D01*
X180049000Y-42891404D01*
X180049000Y-42408596D01*
X180143190Y-41935073D01*
X180143191Y-41935070D01*
X180327952Y-41489016D01*
X180596184Y-41087579D01*
X180596186Y-41087576D01*
X180937576Y-40746186D01*
X181085095Y-40647617D01*
X181339016Y-40477952D01*
X181785070Y-40293191D01*
X181785071Y-40293191D01*
X181785073Y-40293190D01*
X182258596Y-40199000D01*
X182741404Y-40199000D01*
X183214927Y-40293190D01*
X183214927Y-40293190D01*
G37*
G36*
X149626000Y-44941000D02*
X148724000Y-44941000D01*
X148724000Y-44139000D01*
X149626000Y-44139000D01*
X149626000Y-44941000D01*
X149626000Y-44941000D01*
G37*
G36*
X115704591Y-43218085D02*
X115738569Y-43228393D01*
X115769887Y-43245133D01*
X115797339Y-43267661D01*
X115819867Y-43295113D01*
X115836607Y-43326431D01*
X115846915Y-43360409D01*
X115851000Y-43401890D01*
X115851000Y-44078110D01*
X115846915Y-44119591D01*
X115836607Y-44153569D01*
X115819867Y-44184887D01*
X115797339Y-44212339D01*
X115769887Y-44234867D01*
X115738569Y-44251607D01*
X115704591Y-44261915D01*
X115663110Y-44266000D01*
X115061890Y-44266000D01*
X115020409Y-44261915D01*
X114986431Y-44251607D01*
X114955113Y-44234867D01*
X114927661Y-44212339D01*
X114905133Y-44184887D01*
X114888393Y-44153569D01*
X114878085Y-44119591D01*
X114874000Y-44078110D01*
X114874000Y-43401890D01*
X114878085Y-43360409D01*
X114888393Y-43326431D01*
X114905133Y-43295113D01*
X114927661Y-43267661D01*
X114955113Y-43245133D01*
X114986431Y-43228393D01*
X115020409Y-43218085D01*
X115061890Y-43214000D01*
X115663110Y-43214000D01*
X115704591Y-43218085D01*
X115704591Y-43218085D01*
G37*
G36*
X117279591Y-43218085D02*
X117313569Y-43228393D01*
X117344887Y-43245133D01*
X117372339Y-43267661D01*
X117394867Y-43295113D01*
X117411607Y-43326431D01*
X117421915Y-43360409D01*
X117426000Y-43401890D01*
X117426000Y-44078110D01*
X117421915Y-44119591D01*
X117411607Y-44153569D01*
X117394867Y-44184887D01*
X117372339Y-44212339D01*
X117344887Y-44234867D01*
X117313569Y-44251607D01*
X117279591Y-44261915D01*
X117238110Y-44266000D01*
X116636890Y-44266000D01*
X116595409Y-44261915D01*
X116561431Y-44251607D01*
X116530113Y-44234867D01*
X116502661Y-44212339D01*
X116480133Y-44184887D01*
X116463393Y-44153569D01*
X116453085Y-44119591D01*
X116449000Y-44078110D01*
X116449000Y-43401890D01*
X116453085Y-43360409D01*
X116463393Y-43326431D01*
X116480133Y-43295113D01*
X116502661Y-43267661D01*
X116530113Y-43245133D01*
X116561431Y-43228393D01*
X116595409Y-43218085D01*
X116636890Y-43214000D01*
X117238110Y-43214000D01*
X117279591Y-43218085D01*
X117279591Y-43218085D01*
G37*
G36*
X158701000Y-40961000D02*
X157799000Y-40961000D01*
X157799000Y-40159000D01*
X158701000Y-40159000D01*
X158701000Y-40961000D01*
X158701000Y-40961000D01*
G37*
G36*
X153278165Y-36339485D02*
X153301614Y-36346598D01*
X153326000Y-36349000D01*
X157196000Y-36349000D01*
X157196000Y-40951000D01*
X153326000Y-40951000D01*
X153301614Y-40953402D01*
X153278165Y-40960515D01*
X153277258Y-40961000D01*
X152299000Y-40961000D01*
X152299000Y-40159000D01*
X152679000Y-40159000D01*
X152703386Y-40156598D01*
X152726835Y-40149485D01*
X152748446Y-40137934D01*
X152767388Y-40122388D01*
X152782934Y-40103446D01*
X152794485Y-40081835D01*
X152801598Y-40058386D01*
X152804000Y-40034000D01*
X152804000Y-39816000D01*
X152801598Y-39791614D01*
X152794485Y-39768165D01*
X152782934Y-39746554D01*
X152767388Y-39727612D01*
X152748446Y-39712066D01*
X152726835Y-39700515D01*
X152703386Y-39693402D01*
X152679000Y-39691000D01*
X152299000Y-39691000D01*
X152299000Y-38889000D01*
X152679000Y-38889000D01*
X152703386Y-38886598D01*
X152726835Y-38879485D01*
X152748446Y-38867934D01*
X152767388Y-38852388D01*
X152782934Y-38833446D01*
X152794485Y-38811835D01*
X152801598Y-38788386D01*
X152804000Y-38764000D01*
X152804000Y-38536000D01*
X152801598Y-38511614D01*
X152794485Y-38488165D01*
X152782934Y-38466554D01*
X152767388Y-38447612D01*
X152748446Y-38432066D01*
X152726835Y-38420515D01*
X152703386Y-38413402D01*
X152679000Y-38411000D01*
X152299000Y-38411000D01*
X152299000Y-37609000D01*
X152679000Y-37609000D01*
X152703386Y-37606598D01*
X152726835Y-37599485D01*
X152748446Y-37587934D01*
X152767388Y-37572388D01*
X152782934Y-37553446D01*
X152794485Y-37531835D01*
X152801598Y-37508386D01*
X152804000Y-37484000D01*
X152804000Y-37266000D01*
X152801598Y-37241614D01*
X152794485Y-37218165D01*
X152782934Y-37196554D01*
X152767388Y-37177612D01*
X152748446Y-37162066D01*
X152726835Y-37150515D01*
X152703386Y-37143402D01*
X152679000Y-37141000D01*
X152299000Y-37141000D01*
X152299000Y-36339000D01*
X153277258Y-36339000D01*
X153278165Y-36339485D01*
X153278165Y-36339485D01*
G37*
G36*
X96715830Y-38414930D02*
X96715833Y-38414931D01*
X96715834Y-38414931D01*
X96923373Y-38477887D01*
X96923375Y-38477888D01*
X97114644Y-38580123D01*
X97282291Y-38717709D01*
X97419877Y-38885356D01*
X97522112Y-39076625D01*
X97585070Y-39284170D01*
X97606327Y-39500000D01*
X97585070Y-39715830D01*
X97585069Y-39715833D01*
X97585069Y-39715834D01*
X97569195Y-39768165D01*
X97522112Y-39923375D01*
X97419877Y-40114644D01*
X97282291Y-40282291D01*
X97114644Y-40419877D01*
X96923375Y-40522112D01*
X96923373Y-40522113D01*
X96715834Y-40585069D01*
X96715833Y-40585069D01*
X96715830Y-40585070D01*
X96554089Y-40601000D01*
X95445911Y-40601000D01*
X95284170Y-40585070D01*
X95284167Y-40585069D01*
X95284166Y-40585069D01*
X95076627Y-40522113D01*
X95076625Y-40522112D01*
X94885356Y-40419877D01*
X94717709Y-40282291D01*
X94580123Y-40114644D01*
X94477888Y-39923375D01*
X94430806Y-39768165D01*
X94414931Y-39715834D01*
X94414931Y-39715833D01*
X94414930Y-39715830D01*
X94393673Y-39500000D01*
X94414930Y-39284170D01*
X94477888Y-39076625D01*
X94580123Y-38885356D01*
X94717709Y-38717709D01*
X94885356Y-38580123D01*
X95076625Y-38477888D01*
X95076627Y-38477887D01*
X95284166Y-38414931D01*
X95284167Y-38414931D01*
X95284170Y-38414930D01*
X95445911Y-38399000D01*
X96554089Y-38399000D01*
X96715830Y-38414930D01*
X96715830Y-38414930D01*
G37*
G36*
X189215830Y-38414930D02*
X189215833Y-38414931D01*
X189215834Y-38414931D01*
X189423373Y-38477887D01*
X189423375Y-38477888D01*
X189614644Y-38580123D01*
X189782291Y-38717709D01*
X189919877Y-38885356D01*
X190022112Y-39076625D01*
X190085070Y-39284170D01*
X190106327Y-39500000D01*
X190085070Y-39715830D01*
X190085069Y-39715833D01*
X190085069Y-39715834D01*
X190069195Y-39768165D01*
X190022112Y-39923375D01*
X189919877Y-40114644D01*
X189782291Y-40282291D01*
X189614644Y-40419877D01*
X189423375Y-40522112D01*
X189423373Y-40522113D01*
X189215834Y-40585069D01*
X189215833Y-40585069D01*
X189215830Y-40585070D01*
X189054089Y-40601000D01*
X187945911Y-40601000D01*
X187784170Y-40585070D01*
X187784167Y-40585069D01*
X187784166Y-40585069D01*
X187576627Y-40522113D01*
X187576625Y-40522112D01*
X187385356Y-40419877D01*
X187217709Y-40282291D01*
X187080123Y-40114644D01*
X186977888Y-39923375D01*
X186930806Y-39768165D01*
X186914931Y-39715834D01*
X186914931Y-39715833D01*
X186914930Y-39715830D01*
X186893673Y-39500000D01*
X186914930Y-39284170D01*
X186977888Y-39076625D01*
X187080123Y-38885356D01*
X187217709Y-38717709D01*
X187385356Y-38580123D01*
X187576625Y-38477888D01*
X187576627Y-38477887D01*
X187784166Y-38414931D01*
X187784167Y-38414931D01*
X187784170Y-38414930D01*
X187945911Y-38399000D01*
X189054089Y-38399000D01*
X189215830Y-38414930D01*
X189215830Y-38414930D01*
G37*
G36*
X108905996Y-38003051D02*
X108939653Y-38013261D01*
X108970667Y-38029838D01*
X108997852Y-38052148D01*
X109020162Y-38079333D01*
X109036739Y-38110347D01*
X109046949Y-38144004D01*
X109051000Y-38185138D01*
X109051000Y-39514862D01*
X109046949Y-39555996D01*
X109036739Y-39589653D01*
X109020162Y-39620667D01*
X108997852Y-39647852D01*
X108970667Y-39670162D01*
X108939653Y-39686739D01*
X108905996Y-39696949D01*
X108864862Y-39701000D01*
X105635138Y-39701000D01*
X105594004Y-39696949D01*
X105560347Y-39686739D01*
X105529333Y-39670162D01*
X105502148Y-39647852D01*
X105479838Y-39620667D01*
X105463261Y-39589653D01*
X105453051Y-39555996D01*
X105449000Y-39514862D01*
X105449000Y-38185138D01*
X105453051Y-38144004D01*
X105463261Y-38110347D01*
X105479838Y-38079333D01*
X105502148Y-38052148D01*
X105529333Y-38029838D01*
X105560347Y-38013261D01*
X105594004Y-38003051D01*
X105635138Y-37999000D01*
X108864862Y-37999000D01*
X108905996Y-38003051D01*
X108905996Y-38003051D01*
G37*
G36*
X114505996Y-38003051D02*
X114539653Y-38013261D01*
X114570667Y-38029838D01*
X114597852Y-38052148D01*
X114620162Y-38079333D01*
X114636739Y-38110347D01*
X114646949Y-38144004D01*
X114651000Y-38185138D01*
X114651000Y-39514862D01*
X114646949Y-39555996D01*
X114636739Y-39589653D01*
X114620162Y-39620667D01*
X114597852Y-39647852D01*
X114570667Y-39670162D01*
X114539653Y-39686739D01*
X114505996Y-39696949D01*
X114464862Y-39701000D01*
X111235138Y-39701000D01*
X111194004Y-39696949D01*
X111160347Y-39686739D01*
X111129333Y-39670162D01*
X111102148Y-39647852D01*
X111079838Y-39620667D01*
X111063261Y-39589653D01*
X111053051Y-39555996D01*
X111049000Y-39514862D01*
X111049000Y-38185138D01*
X111053051Y-38144004D01*
X111063261Y-38110347D01*
X111079838Y-38079333D01*
X111102148Y-38052148D01*
X111129333Y-38029838D01*
X111160347Y-38013261D01*
X111194004Y-38003051D01*
X111235138Y-37999000D01*
X114464862Y-37999000D01*
X114505996Y-38003051D01*
X114505996Y-38003051D01*
G37*
G36*
X158701000Y-39691000D02*
X157799000Y-39691000D01*
X157799000Y-38889000D01*
X158701000Y-38889000D01*
X158701000Y-39691000D01*
X158701000Y-39691000D01*
G37*
G36*
X158701000Y-38411000D02*
X157799000Y-38411000D01*
X157799000Y-37609000D01*
X158701000Y-37609000D01*
X158701000Y-38411000D01*
X158701000Y-38411000D01*
G37*
G36*
X158701000Y-37141000D02*
X157799000Y-37141000D01*
X157799000Y-36339000D01*
X158701000Y-36339000D01*
X158701000Y-37141000D01*
X158701000Y-37141000D01*
G37*
M02*
